<?xml version="1.0" encoding="utf-8"?>
<!-- Generator: Adobe Illustrator 16.0.0, SVG Export Plug-In . SVG Version: 6.00 Build 0)  -->
<!DOCTYPE svg PUBLIC "-//W3C//DTD SVG 1.1//EN" "http://www.w3.org/Graphics/SVG/1.1/DTD/svg11.dtd">
<svg version="1.1" id="Capa_1" xmlns="http://www.w3.org/2000/svg" xmlns:xlink="http://www.w3.org/1999/xlink" x="0px" y="0px"
	 width="246.441px" height="134.044px" viewBox="0 0 246.441 134.044" enable-background="new 0 0 246.441 134.044"
	 xml:space="preserve">
<path fill="#FFFFFF" stroke="#C2C3C9" stroke-width="3" stroke-miterlimit="10" d="M232.941,50.421H179.87
	c1.541-1.391,2.855-3.083,3.833-5.054l0.644-1.297c1.022-2.058,1.788-4.269,2.276-6.571c0.009-0.041,0.018-0.082,0.026-0.124
	c0.334-1.637,0.542-3.411,0.619-5.29c0.13-3.248-0.391-6.54-1.548-9.785c-1.805-5.059-5.218-9.548-9.882-12.992
	c-3.444-2.539-7.488-4.504-12.025-5.844c-4.033-1.189-8.479-1.846-13.215-1.951c-0.063-0.001-1.162-0.013-1.224-0.013
	c-4.168,0-8.473,0.474-12.801,1.407c-8.091,1.751-15.266,4.924-21.33,9.436c-5.494,4.089-10.283,8.993-14.234,14.578
	c-3.653,5.164-6.75,10.867-9.199,16.941c-0.317,0.784-0.629,1.572-0.936,2.361c-3.625-1.934-7.566-2.93-11.722-2.961
	c-0.043,0-0.087,0-0.131,0c-1.863,0-3.751,0.203-5.608,0.605c-1.917,0.416-3.736,0.988-5.438,1.715
	c-1.869-2.18-4.015-4.174-6.412-5.958c-3.866-2.878-8.367-4.989-13.386-6.274c-2.677-0.686-5.5-1.043-8.477-1.067l-0.22-0.001
	c-2.895,0-5.924,0.338-9.005,1.004c-6.103,1.318-11.252,3.516-15.315,6.539c-3.671,2.736-6.617,5.789-8.754,9.074
	c-0.045,0.07-0.091,0.141-0.135,0.212c-2.535,4.024-4.09,8.423-4.626,13.107l-0.039,0.343c-0.289,2.572,0.012,5.176,0.881,7.613
	l0.688,1.932c1.606,4.506,5.037,8.129,9.45,9.977c2.104,0.881,4.337,1.32,6.57,1.32c1.288,0,2.576-0.146,3.836-0.439
	c-0.128,0.625-0.267,1.25-0.413,1.875c-0.619,2.627-1.162,5.215-1.614,7.689c-0.529,2.896-0.876,5.715-1.03,8.379
	c-0.253,4.387,0.292,8.498,1.617,12.209c1.384,3.885,3.39,7.24,5.951,9.963c2.506,2.668,5.42,4.75,8.663,6.191
	c2.973,1.32,6.078,2.092,9.307,2.301c0.563,0.035,1.125,0.055,1.685,0.059h0.186c1.999,0,3.968-0.207,5.837-0.613
	c2.84-0.611,5.629-1.594,8.325-2.928c1.212,0.805,2.483,1.502,3.807,2.09c2.969,1.32,6.074,2.096,9.317,2.307
	c0.55,0.033,1.098,0.053,1.68,0.059c0,0,0.149,0,0.178,0c2,0,3.97-0.207,5.876-0.619c0.119-0.025,0.237-0.051,0.355-0.08
	c0.063-0.012,0.281-0.057,0.328-0.066c6.706-1.449,12.773-4.422,18.042-8.842c2.765-2.322,5.367-4.973,7.785-7.906
	c0.043,0,0.085,0.006,0.128,0.006h123.899c6.627,0,12-5.373,12-12V62.421C244.941,55.794,239.568,50.421,232.941,50.421z"/>
<g>
	<path fill="#001A5A" d="M137.02,64.253h0.794c0.283,0.17,0.396,0.623,0.51,0.906c0.17,0.51,0.623,1.926,0.623,1.982
		c2.832,13.994,3.398,17.564,3.908,19.207c0.341,1.529,0.851,3.002,1.021,4.588l2.323,9.406c0.17,0.566,0.17,0.793,0.17,1.303
		s0,1.02-0.51,1.303c-0.283,0.17-1.7,0.623-1.983,0.68h-0.623c-0.397,0-0.681,0-0.851-0.34c-0.736-1.303-1.643-4.645-2.492-8.441
		c-0.793-0.057-2.437-0.17-2.833-0.17c-0.736-0.057-3.683,0.057-5.155,0.057c-0.68,3.74-1.359,7.252-1.643,8.328
		c-0.228,0.68-0.907,1.473-1.644,1.473c-0.851,0-2.663-0.057-3.003-1.076v-1.076c5.836-28.385,6.799-32.52,7.818-36.146
		C134.13,64.479,135.207,64.253,137.02,64.253z M132.771,89.917c1.416,0.057,2.832,0.113,4.192,0.113c0.624,0,1.134-0.17,1.757-0.17
		h0.057c-0.906-4.418-1.7-8.555-1.927-10.027c-0.113-0.566-0.736-4.023-0.906-4.193c-0.057,0.17-0.228,0.963-0.228,1.135
		c0,0.17-0.113,0.906-0.17,1.02c-0.453,2.322-1.076,4.531-1.586,6.799C133.734,85.159,133.281,87.312,132.771,89.917z"/>
	<path fill="#001A5A" d="M148.689,75.47c0-2.379-0.227-4.758-0.227-7.139c0-0.283,0-1.133,0-1.189
		c0.057-1.133-0.057-1.926,0.51-2.832c0.057-0.057,0.113-0.113,0.113-0.113h2.891c5.835,0,10.65,4.418,12.237,10.027
		c0.85,2.834,0.906,5.949,0.906,8.895c0,7.875-1.36,21.02-11.841,21.02c-2.267,0-3.91-0.396-4.477-2.605
		C148.462,92.808,148.802,84.196,148.689,75.47z M153.166,99.776c4.646,0,6.346-3.91,6.742-7.932
		c0.283-3.061,0.623-6.176,0.623-9.293c0-4.305-0.906-13.541-7.025-13.541c-0.113,0-0.283,0-0.283,0.17c0,0.057,0,0.057,0,0.057
		c0,0.398,0.113,3.4,0.113,3.74c0,0.793,0,4.533,0,5.383c0.227,0.623,0.113,1.756,0.113,2.322c0,0.396,0,1.643,0,1.756
		c0,0.793-0.17,4.646-0.227,5.439v0.34c0,0.85,0,4.533,0,5.383c0,0.17,0.057,1.926,0.113,2.096c0,0,0,0.113,0,0.17
		C153.335,97.169,153.166,98.415,153.166,99.776z"/>
	<path fill="#001A5A" d="M168.63,72.921c0-0.453,0.113-4.533,0.113-4.93c0-0.227,0.113-1.529,0.113-1.756
		c0.113-1.359,0.623-1.529,1.813-1.926c0.736-0.283,2.606,0.453,2.663,0.963l0.17,0.963l-0.113,12.408
		c0,0.227,0.113,1.133,0.113,1.303c0,0,0,0.113,0,0.17c0,1.303-0.057,2.719-0.283,4.023c0,0.623,0,3.512,0,4.135
		c0,1.076,0,4.023,0,4.193c0,0.68,0.113,2.775,0.17,3.002c0.057,0.34,0.453,2.266,0.566,2.719c0.34,1.021,1.417,2.211,2.55,2.211
		c1.416,0,2.266-2.324,2.436-3.457l0.736-5.154c0-1.418,0-3.004,0.283-4.477c-0.057-5.326-0.113-12.238,0.057-17.563
		c0-0.227,0-1.871,0-2.098c0.057-0.736,0.283-1.076,0.396-1.813c0.114-0.85,0-1.246,1.021-1.246c0.396,0,3.229,0,3.06,0.85
		c0,1.133,0.057,6.402,0.057,7.535c0,7.705,0.057,10.764-0.283,17.732c-0.396,8.5-2.153,13.654-8.555,13.654
		c-3.967,0-6.119-4.588-6.742-7.875c-0.396-1.926-0.396-3.852-0.396-5.779C168.574,84.763,168.517,78.87,168.63,72.921z"/>
	<path fill="#001A5A" d="M188.118,91.222c0.057-2.494,0.17-5.27,0.17-7.82c0-0.453,0-0.623-0.17-1.076c0-0.736,0-4.021,0-4.758
		c0-1.191,0-4.533,0-4.76c0-0.453,0.227-4.477,0.283-5.723c0-0.85,0-2.719,0.851-3.285c0.113,0,0.68,0,0.736,0
		c0.68,0,1.756-0.17,2.266,0.396c0.623,0.623,0.566,2.039,0.623,2.889c0,0.283,0.113,2.891,0.113,3.23c0,0.113,0,1.586,0,2.039
		c0,2.832-0.17,5.496-0.113,8.328c-0.227,0.906-0.113,2.096-0.113,3.002c-0.113,5.156,0.396,10.143,0.057,15.242
		c-0.113,0.34,0.17,0.963,0.623,0.736c0.623,0,2.72,0,3.344,0c0.623,0,1.982,0.057,1.982,1.02v2.605l-0.113,0.283h-0.057
		c-0.736,0.057-1.529,0.113-2.209,0.396h-7.876c-0.057,0-0.113-0.113-0.113-0.17c-0.34-0.453-0.113-0.68-0.113-1.303
		c-0.057-1.529-0.283-8.328-0.283-9.801C188.004,92.468,188.118,91.392,188.118,91.222z"/>
	<path fill="#001A5A" d="M202.961,72.921c0-0.113-0.113-0.85-0.113-0.963c-0.057-0.566-0.113-3.061-0.113-3.514h-3.569
		c-0.396,0.057-0.566,0.057-0.906,0.057c-0.057,0-0.227,0-0.283,0c-0.793-1.189-1.133-1.473-1.133-2.945
		c0-0.793,1.926-1.076,2.436-1.133c0.623-0.057,1.133-0.34,9.632-0.057c0.283,0.057,1.586,0.113,1.87,0.17
		c2.039,0,3.512-0.34,3.512,2.209c0,0.453-0.453,1.359-0.793,1.416l-6.006,0.283c0.057,1.531-0.113,3.061-0.113,4.703
		c0,5.893,0.283,11.842,0.227,17.846c0.113,0.455,0.113,0.625,0.113,1.021c0,2.322-0.113,4.645-0.113,6.969c0,0.34,0,2.039,0,2.379
		c0.113,0.51,0.113,0.736,0.113,1.189c0,0.68,0,1.473-0.85,1.473h-2.832c-0.623,0-0.736-1.076-0.736-1.473L202.961,72.921z"/>
	<path fill="#001A5A" d="M219.447,91.958c0.113,0,0.623,0,0.736,0c1.076,1.643,0,7.818,2.833,7.818c1.474,0,1.7-1.133,1.7-2.494
		c0-1.982-0.85-4.135-1.587-5.947c-0.963-2.268-2.267-3.457-3.683-5.496c-1.473-2.041-2.605-4.193-3.683-6.459
		c-0.51-1.359-0.736-2.721-0.736-4.193c0-4.191,1.134-10.594,7.479-10.197c5.778,0.34,6.855,4.986,6.855,9.234
		c0,1.586,0.057,5.27-2.323,5.27c-0.396,0-2.605-1.133-2.605-1.756c0-1.02,0.17-1.928,0.17-2.891c0-0.17,0-0.34,0-0.51
		c0-2.605,0.34-5.27-2.097-5.1h-0.057c-2.72-0.17-3.003,3.91-3.003,5.496c0,2.551,1.643,4.59,2.946,6.629
		c1.53,2.322,3.06,4.363,4.362,6.799c1.246,2.209,2.606,5.779,2.606,8.385c0,1.189-0.283,2.777-0.737,3.854
		c-0.057,0-0.34,0.396-0.396,0.453c-0.057,0.113-0.283,0.623-0.34,0.736c-1.643,1.699-2.832,2.549-5.212,2.549
		c-0.51,0-0.793-0.17-1.247-0.34c-0.68-0.227-1.076-0.227-1.699-0.623c-2.322-1.473-3.229-4.418-3.455-6.969
		c-0.113-1.02-0.397-2.096-0.397-3.115C215.877,91.731,218.541,91.958,219.447,91.958z"/>
</g>
<g>
	<path fill="#C2C3C9" d="M76.439,115.036c-0.232-0.002-0.473-0.012-0.715-0.025c-1.084-0.072-2.18-0.35-3.257-0.83
		c-1.096-0.486-2.113-1.23-3.024-2.215c-0.908-0.98-1.649-2.264-2.202-3.813c-0.555-1.555-0.74-3.461-0.55-5.666
		c0.059-0.697,0.139-1.42,0.237-2.166c-0.516,0.721-1.045,1.428-1.587,2.119c-1.524,1.943-3.15,3.705-4.833,5.232
		c-1.689,1.535-3.469,2.863-5.292,3.943c-1.859,1.105-3.771,1.873-5.688,2.287c-0.697,0.15-1.453,0.225-2.246,0.219
		c-0.232-0.002-0.473-0.012-0.715-0.025c-1.084-0.07-2.181-0.35-3.257-0.828c-1.094-0.486-2.107-1.219-3.006-2.176
		c-0.902-0.959-1.651-2.256-2.221-3.854c-0.536-1.5-0.748-3.293-0.63-5.324c0.112-1.943,0.372-4.043,0.773-6.236
		c0.396-2.172,0.878-4.469,1.434-6.828c0.542-2.313,0.991-4.637,1.333-6.91c0.339-2.248,0.524-4.447,0.552-6.535
		c0.026-2.012-0.264-3.881-0.862-5.557c-0.943-2.645-2.767-4.477-5.579-5.602c-1.587-0.635-3.375-0.965-5.317-0.979
		c-1.557-0.013-3.252,0.177-5.037,0.563c-0.893,0.191-1.694,0.413-2.385,0.656c-0.703,0.248-1.344,0.507-1.901,0.766l-0.983,0.457
		l-0.465-1.305l0.026-0.229c0.231-2.021,0.918-3.949,2.042-5.734c1.006-1.547,2.53-3.082,4.539-4.58
		c2.03-1.51,4.906-2.676,8.55-3.464c1.929-0.417,3.77-0.622,5.473-0.607c1.475,0.012,2.886,0.187,4.194,0.521
		c2.792,0.716,5.237,1.845,7.267,3.355c2.018,1.502,3.688,3.229,4.963,5.134c1.257,1.881,2.191,3.662,2.774,5.297
		c0.882,2.475,1.179,5.324,0.882,8.467c-0.29,3.049-0.822,6.188-1.583,9.33c-0.76,3.135-1.624,6.209-2.571,9.143
		c-0.93,2.885-1.608,5.436-2.014,7.576c-0.386,2.031-0.424,3.582-0.111,4.605c0.096,0.32,0.259,0.633,1.078,0.639
		c0.296,0.002,0.645-0.039,1.038-0.125c0.356-0.076,1.174-0.422,2.646-1.867c1.215-1.191,2.504-2.748,3.831-4.623
		c1.337-1.895,2.682-4.072,4-6.475c1.315-2.404,2.473-4.885,3.439-7.371c0.961-2.475,1.664-4.957,2.086-7.379
		c0.414-2.377,0.455-4.564,0.123-6.5c-0.053-0.311-0.116-0.607-0.185-0.889c-0.07-0.275-0.151-0.537-0.236-0.781
		c-0.138-0.387-0.402-0.656-0.83-0.846l-1.11-0.494l0.709-0.986c0.458-0.637,1.007-1.246,1.629-1.814l0.018-0.015
		c0.578-0.503,1.306-1.011,2.162-1.511c0.898-0.523,1.997-0.928,3.268-1.202c0.667-0.145,1.326-0.215,1.962-0.21
		c1.312,0.01,2.561,0.342,3.709,0.984c1.709,0.959,2.874,2.283,3.464,3.934c0.877,2.465,1.22,5.295,1.015,8.41
		c-0.199,3.029-0.631,6.135-1.283,9.229c-0.645,3.066-1.352,6.074-2.101,8.943c-0.737,2.818-1.264,5.313-1.563,7.412
		c-0.284,1.973-0.236,3.467,0.142,4.447c0.128,0.332,0.358,0.639,1.182,0.646c0.31,0.002,0.673-0.041,1.078-0.129
		c2.353-0.508,4.283-1.861,5.896-4.135c1.688-2.379,3.221-5.408,4.554-9.004c1.351-3.645,2.625-7.795,3.787-12.334
		c1.172-4.584,2.507-9.365,3.967-14.213c1.461-4.857,3.183-9.75,5.118-14.541c1.948-4.829,4.392-9.334,7.26-13.39
		c2.886-4.079,6.384-7.659,10.394-10.644c4.042-3.008,8.948-5.149,14.579-6.367c3.214-0.695,6.375-1.035,9.396-1.012
		c0.179,0.002,0.358,0.004,0.537,0.008c3.193,0.07,6.103,0.488,8.65,1.239c2.571,0.759,4.789,1.817,6.59,3.146
		c1.869,1.38,3.14,2.988,3.78,4.78c0.401,1.126,0.585,2.204,0.545,3.204c-0.038,0.929-0.132,1.766-0.279,2.484
		c-0.184,0.865-0.461,1.673-0.828,2.41l-0.43,0.865l-0.875-0.41c-1.369-0.645-2.998-1.18-4.845-1.592
		c-1.562-0.324-3.542-0.527-5.87-0.602c-0.183-0.006-0.366-0.01-0.551-0.011c-2.17-0.018-4.625,0.267-7.297,0.845
		c-4.72,1.02-8.957,2.836-12.597,5.396c-3.672,2.584-7,5.707-9.891,9.285c-2.911,3.606-5.582,7.608-7.936,11.896
		c-2.376,4.326-4.685,8.781-6.86,13.238c-2.159,4.424-4.342,8.865-6.489,13.201c-2.145,4.33-4.472,8.336-6.916,11.904
		c-2.473,3.609-5.247,6.715-8.244,9.232c-3.057,2.564-6.582,4.293-10.478,5.135c-0.085,0.018-0.175,0.027-0.264,0.027
		c-0.129,0.049-0.275,0.09-0.44,0.125C77.986,114.968,77.23,115.042,76.439,115.036"/>
	<path fill="#C2C3C9" d="M76.528,115.536h-0.092c-0.241-0.002-0.491-0.012-0.741-0.027c-1.147-0.074-2.3-0.367-3.43-0.871
		c-1.158-0.514-2.231-1.299-3.188-2.332c-0.955-1.031-1.731-2.373-2.306-3.984c-0.579-1.623-0.773-3.602-0.577-5.877
		c0.009-0.107,0.019-0.217,0.029-0.326c-0.162,0.213-0.324,0.422-0.488,0.631c-1.541,1.965-3.186,3.748-4.89,5.295
		c-1.715,1.559-3.522,2.904-5.372,4.004c-1.905,1.131-3.869,1.92-5.837,2.344c-0.703,0.152-1.46,0.23-2.25,0.23h-0.105
		c-0.239-0.002-0.49-0.012-0.741-0.027c-1.144-0.074-2.297-0.367-3.43-0.869c-1.158-0.514-2.223-1.285-3.167-2.291
		c-0.952-1.012-1.735-2.367-2.327-4.027c-0.558-1.564-0.779-3.422-0.658-5.52c0.114-1.969,0.376-4.088,0.781-6.299
		c0.401-2.195,0.885-4.502,1.438-6.854c0.54-2.303,0.986-4.613,1.325-6.869c0.335-2.223,0.519-4.398,0.546-6.467
		c0.025-1.953-0.255-3.764-0.833-5.383c-0.893-2.502-2.624-4.238-5.294-5.305c-1.528-0.612-3.255-0.93-5.135-0.944l-0.143-0.001
		c-1.481,0-3.091,0.186-4.784,0.553c-0.866,0.186-1.648,0.401-2.325,0.64c-0.688,0.243-1.312,0.495-1.856,0.747l-1.48,0.689
		l-0.688-1.932l0.039-0.344c0.24-2.097,0.952-4.096,2.116-5.944c1.04-1.598,2.607-3.182,4.663-4.714
		c2.089-1.555,5.031-2.75,8.743-3.553c1.903-0.41,3.724-0.619,5.413-0.619l0.17,0.001c1.516,0.013,2.967,0.192,4.314,0.537
		c2.856,0.731,5.36,1.89,7.441,3.438c2.064,1.537,3.773,3.305,5.08,5.257c1.283,1.919,2.235,3.737,2.83,5.407
		c0.907,2.543,1.212,5.465,0.908,8.682c-0.292,3.074-0.828,6.236-1.594,9.4c-0.764,3.15-1.632,6.238-2.581,9.178
		c-0.925,2.871-1.597,5.4-1.998,7.518c-0.371,1.953-0.413,3.422-0.125,4.367c0.051,0.17,0.084,0.279,0.603,0.283
		c0,0,0.001,0,0.001,0c0.276,0,0.582-0.039,0.928-0.113c0.19-0.041,0.926-0.287,2.402-1.736c1.192-1.168,2.462-2.701,3.773-4.555
		c1.326-1.877,2.661-4.039,3.969-6.426c1.305-2.383,2.453-4.844,3.412-7.313c0.95-2.445,1.644-4.896,2.06-7.283
		c0.404-2.32,0.445-4.451,0.123-6.328c-0.051-0.301-0.112-0.586-0.178-0.854c-0.065-0.258-0.142-0.506-0.223-0.736
		c-0.09-0.254-0.258-0.42-0.561-0.555l-1.672-0.744l1.069-1.484c0.476-0.662,1.048-1.299,1.698-1.893
		c0.625-0.544,1.378-1.07,2.265-1.588c0.943-0.55,2.092-0.973,3.415-1.26c0.679-0.146,1.355-0.221,2.011-0.221
		c1.458,0.011,2.786,0.363,4.01,1.048c1.816,1.021,3.058,2.434,3.691,4.202c0.901,2.531,1.252,5.43,1.043,8.611
		c-0.201,3.051-0.636,6.18-1.293,9.299c-0.646,3.068-1.354,6.086-2.106,8.965c-0.734,2.811-1.256,5.285-1.552,7.359
		c-0.272,1.883-0.233,3.295,0.113,4.195c0.058,0.15,0.124,0.32,0.719,0.326h0.001c0.292,0,0.609-0.039,0.967-0.117
		c2.227-0.482,4.057-1.77,5.594-3.938c1.665-2.344,3.176-5.334,4.493-8.887c1.346-3.631,2.615-7.764,3.771-12.283
		c1.171-4.582,2.508-9.371,3.972-14.234c1.467-4.876,3.194-9.783,5.134-14.584c1.961-4.861,4.422-9.4,7.315-13.49
		c2.915-4.12,6.448-7.738,10.503-10.757c4.1-3.05,9.07-5.222,14.771-6.455c3.145-0.679,6.242-1.023,9.205-1.023l0.849,0.009
		c3.233,0.072,6.188,0.496,8.778,1.26c2.628,0.776,4.898,1.86,6.746,3.223c1.95,1.439,3.28,3.127,3.954,5.015
		c0.423,1.187,0.616,2.329,0.574,3.392c-0.039,0.957-0.136,1.82-0.289,2.565c-0.192,0.907-0.485,1.758-0.87,2.532l-0.647,1.304
		l-1.318-0.619c-1.338-0.63-2.933-1.153-4.741-1.556c-1.531-0.317-3.478-0.517-5.778-0.591c-0.179-0.005-0.357-0.009-0.538-0.01
		l-0.188-0.001c-2.087,0-4.442,0.281-7.001,0.834c-4.652,1.006-8.829,2.794-12.415,5.316c-3.634,2.557-6.928,5.649-9.79,9.191
		c-2.896,3.588-5.549,7.566-7.886,11.822c-2.373,4.318-4.677,8.766-6.849,13.217c-2.159,4.424-4.342,8.867-6.49,13.203
		c-2.157,4.354-4.495,8.381-6.951,11.967c-2.498,3.645-5.302,6.785-8.334,9.332c-3.121,2.619-6.719,4.381-10.694,5.24
		c-0.094,0.02-0.186,0.031-0.276,0.037c-0.128,0.043-0.27,0.082-0.427,0.115C78.086,115.458,77.325,115.536,76.528,115.536z
		 M67.686,98.405l-0.261,1.982c-0.097,0.736-0.176,1.451-0.235,2.141c-0.184,2.135-0.008,3.969,0.522,5.457
		c0.53,1.484,1.235,2.709,2.099,3.641c0.864,0.934,1.826,1.641,2.859,2.098c1.022,0.455,2.061,0.721,3.087,0.787
		c0.23,0.014,0.463,0.023,0.687,0.025l0.084,0.5v-0.5c0.726,0,1.417-0.07,2.053-0.207c0.14-0.031,0.263-0.064,0.372-0.105
		l0.173-0.031c0.051,0,0.107-0.006,0.162-0.018c3.811-0.822,7.263-2.516,10.258-5.027c2.963-2.49,5.707-5.563,8.152-9.133
		c2.43-3.547,4.744-7.531,6.88-11.844c2.146-4.336,4.33-8.775,6.488-13.197c2.179-4.467,4.491-8.928,6.871-13.26
		c2.364-4.309,5.051-8.336,7.984-11.971c2.92-3.613,6.282-6.77,9.992-9.38c3.695-2.601,7.995-4.442,12.779-5.477
		c2.627-0.568,5.054-0.856,7.212-0.856l0.194,0.001c0.188,0.001,0.376,0.005,0.563,0.011c2.358,0.076,4.361,0.281,5.956,0.612
		c1.887,0.42,3.552,0.968,4.957,1.628l0.432,0.203l0.212-0.428c0.348-0.699,0.612-1.47,0.787-2.291
		c0.141-0.689,0.231-1.498,0.269-2.401c0.037-0.935-0.136-1.95-0.517-3.016c-0.605-1.697-1.818-3.227-3.605-4.546
		c-1.753-1.293-3.918-2.325-6.435-3.068c-2.506-0.739-5.372-1.148-8.52-1.219l-0.824-0.009c-2.892,0-5.918,0.337-8.993,1.001
		c-5.562,1.203-10.402,3.316-14.386,6.279c-3.97,2.955-7.43,6.498-10.284,10.531c-2.848,4.027-5.272,8.498-7.205,13.289
		c-1.928,4.773-3.645,9.65-5.103,14.498c-1.461,4.85-2.793,9.625-3.961,14.193c-1.165,4.553-2.444,8.719-3.802,12.383
		c-1.347,3.635-2.9,6.703-4.615,9.119c-1.689,2.381-3.716,3.799-6.199,4.334c-0.428,0.094-0.816,0.141-1.154,0.141
		c-0.903-0.008-1.426-0.314-1.677-0.965c-0.409-1.064-0.466-2.645-0.17-4.699c0.301-2.109,0.831-4.623,1.575-7.469
		c0.748-2.865,1.453-5.865,2.095-8.92c0.647-3.072,1.076-6.152,1.273-9.158c0.2-3.045-0.132-5.807-0.987-8.209
		c-0.549-1.534-1.638-2.768-3.238-3.666c-1.075-0.601-2.242-0.91-3.469-0.92c-0.001,0-0.002,0-0.003,0
		c-0.635,0-1.24,0.066-1.849,0.199c-1.22,0.264-2.27,0.648-3.123,1.145c-0.832,0.486-1.534,0.976-2.085,1.456
		c-0.608,0.554-1.133,1.139-1.569,1.745l-0.35,0.486l0.548,0.244c0.554,0.246,0.913,0.617,1.098,1.135
		c0.09,0.258,0.175,0.535,0.25,0.826c0.073,0.295,0.139,0.605,0.194,0.93c0.341,1.99,0.3,4.234-0.124,6.668
		c-0.428,2.451-1.139,4.967-2.113,7.475s-2.141,5.008-3.467,7.43c-1.326,2.42-2.682,4.613-4.03,6.521
		c-1.346,1.904-2.654,3.482-3.889,4.693c-1.485,1.457-2.392,1.891-2.891,2c-0.417,0.09-0.793,0.135-1.119,0.135
		c-1.144-0.008-1.444-0.535-1.582-0.994c-0.336-1.1-0.303-2.729,0.099-4.844c0.408-2.156,1.091-4.727,2.029-7.637
		c0.941-2.916,1.803-5.979,2.561-9.105c0.754-3.117,1.283-6.234,1.571-9.26c0.29-3.07,0.002-5.848-0.855-8.252
		c-0.567-1.592-1.481-3.338-2.718-5.188c-1.243-1.855-2.873-3.542-4.846-5.01c-1.977-1.473-4.363-2.572-7.092-3.272
		c-1.268-0.324-2.639-0.495-4.074-0.506l-0.162-0.001c-1.618,0-3.368,0.201-5.202,0.598c-3.571,0.771-6.383,1.908-8.357,3.377
		c-1.96,1.461-3.447,2.959-4.418,4.451c-1.079,1.713-1.741,3.572-1.964,5.518l-0.013,0.113l0.242,0.679l0.485-0.226
		c0.573-0.267,1.228-0.529,1.945-0.783c0.717-0.254,1.54-0.48,2.446-0.675c1.762-0.382,3.443-0.575,4.995-0.575l0.151,0.001
		c2.005,0.016,3.855,0.357,5.499,1.015c2.952,1.181,4.87,3.109,5.864,5.898c0.618,1.73,0.918,3.66,0.891,5.73
		c-0.028,2.115-0.216,4.338-0.557,6.605c-0.344,2.281-0.795,4.619-1.341,6.947c-0.55,2.336-1.031,4.625-1.429,6.805
		c-0.397,2.17-0.655,4.248-0.766,6.176c-0.113,1.965,0.089,3.689,0.602,5.127c0.545,1.529,1.256,2.768,2.114,3.68
		c0.853,0.908,1.81,1.602,2.845,2.061c1.024,0.455,2.063,0.719,3.086,0.785c0.23,0.014,0.462,0.023,0.686,0.025
		c0.003,0,0.005,0,0.008,0c0.813,0,1.497-0.07,2.129-0.207c1.863-0.402,3.727-1.152,5.538-2.229c1.792-1.063,3.545-2.369,5.21-3.883
		c1.663-1.51,3.27-3.25,4.776-5.172c0.538-0.686,1.063-1.387,1.574-2.102L67.686,98.405z"/>
</g>
</svg>
