<?xml version="1.0" encoding="utf-8"?>
<!-- Generator: Adobe Illustrator 16.0.0, SVG Export Plug-In . SVG Version: 6.00 Build 0)  -->
<!DOCTYPE svg PUBLIC "-//W3C//DTD SVG 1.1//EN" "http://www.w3.org/Graphics/SVG/1.1/DTD/svg11.dtd">
<svg version="1.1" id="Capa_1" xmlns="http://www.w3.org/2000/svg" xmlns:xlink="http://www.w3.org/1999/xlink" x="0px" y="0px"
	 width="55.333px" height="55.333px" viewBox="5 0  55.33 55.333" enable-background="new 0 0  55.33 55.333"
	 xml:space="preserve">
<g>
	<path fill="#EAEBEC" d="M12.045,48.796c0.947,0.177,1.926,0.267,2.906,0.267c3.938,0,7.996-1.466,11.166-4.024
		c2.221,0.844,4.494,1.271,6.764,1.271l0,0c0.744,0,1.488-0.047,2.217-0.141c6.043-0.777,11.277-4.704,14.004-10.507
		c2.697-5.735,2.396-12.182-0.805-17.242c-3.176-5.021-10.078-8.265-17.586-8.265c-2.861,0-5.627,0.488-7.998,1.414
		c-3.086,1.204-5.537,3.281-7.281,6.172c-3.063,5.073-3.137,12.032-0.189,17.729c0.965,1.863,2.25,3.574,3.82,5.09
		c-0.357,0.927-0.863,1.824-1.504,2.668c-1.535,2.027-3.613,3.584-5.623,5.09c-0.086,0.063-0.125,0.172-0.102,0.275
		S11.941,48.776,12.045,48.796z"/>
	<g>
		<g>
			<path fill="#238ACA" d="M50.081,14.678c-4.77-7.537-16.973-9.978-25.26-6.743c-2.848,1.11-5.352,3.079-7.15,6.061
				c-3.143,5.208-2.975,12.063-0.178,17.466c0.992,1.921,2.324,3.654,3.893,5.142c-0.381,1.039-0.938,2.023-1.602,2.902
				c-1.549,2.042-3.629,3.605-5.678,5.142c4.912,0.921,10.125-0.636,13.973-3.8c2.854,1.11,5.945,1.563,8.995,1.172
				C49.674,40.4,56.829,25.347,50.081,14.678z"/>
			<path fill="#217EB8" d="M50.54,32.329c-3.941,1.657-8.299,2.107-12.58,2.309c-2.371,0.11-4.793,0.147-7.071-0.531
				c-1.799-0.537-3.436-1.501-5.029-2.492c-1.971-1.227-3.916-2.517-5.641-4.069c-1.934-1.742-3.563-3.814-4.824-6.091
				c-0.227,3.427,0.514,6.95,2.098,10.008c0.992,1.921,2.324,3.654,3.893,5.142c-0.381,1.039-0.938,2.023-1.602,2.902
				c-1.549,2.042-3.629,3.605-5.678,5.142c4.912,0.921,10.125-0.636,13.973-3.8c2.854,1.11,5.945,1.563,8.995,1.172
				C43.139,41.24,47.942,37.347,50.54,32.329z"/>
			<path fill="#7B4C3E" d="M16.961,45.179c-0.982,0-1.961-0.092-2.906-0.27c-0.104-0.019-0.186-0.098-0.211-0.201
				s0.016-0.212,0.1-0.275c2.012-1.506,4.09-3.063,5.625-5.09c0.639-0.844,1.145-1.742,1.504-2.668
				c-1.572-1.516-2.855-3.227-3.82-5.09c-2.947-5.697-2.873-12.655,0.189-17.729c1.744-2.891,4.193-4.968,7.283-6.172
				c2.369-0.925,5.135-1.415,7.994-1.415c7.508,0,14.411,3.244,17.588,8.265c3.201,5.062,3.502,11.508,0.805,17.243
				c-2.727,5.803-7.963,9.73-14.004,10.507c-0.729,0.094-1.473,0.141-2.217,0.141l0,0c-2.27,0-4.543-0.428-6.766-1.271
				C24.957,43.712,20.896,45.179,16.961,45.179z M14.768,44.486c0.719,0.104,1.455,0.156,2.193,0.156
				c3.865,0,7.854-1.458,10.947-4.002c0.074-0.061,0.176-0.078,0.268-0.042c2.203,0.856,4.463,1.292,6.715,1.292l0,0
				c0.721,0,1.441-0.047,2.148-0.137c5.857-0.754,10.939-4.568,13.59-10.202c2.617-5.57,2.328-11.824-0.775-16.729
				c-3.08-4.869-9.807-8.015-17.135-8.015c-2.793,0-5.492,0.476-7.801,1.377c-2.975,1.16-5.336,3.162-7.02,5.95
				c-2.967,4.917-3.033,11.669-0.17,17.204c0.963,1.861,2.256,3.567,3.842,5.071c0.078,0.073,0.104,0.186,0.066,0.287
				c-0.381,1.035-0.934,2.033-1.643,2.97C18.545,41.582,16.646,43.072,14.768,44.486z"/>
			<path fill="#68A8DC" d="M45.233,12.675c-1.576-1.833-3.824-2.49-6.041-3.247c-2.109-0.719-4.897-1.555-7.112-0.856
				c-0.246,0.077-0.266,0.448,0,0.514c1.021,0.255,2.096,0.294,3.133,0.492c1.086,0.208,2.145,0.57,3.186,0.938
				c2.049,0.72,4.463,1.452,6.191,2.803C45.045,13.675,45.625,13.128,45.233,12.675z"/>
			<path fill="#68A8DC" d="M50.458,18.101c-0.264-1.621-2.051-2.959-3.281-3.882c-0.35-0.261-0.732,0.289-0.451,0.583
				c0.553,0.577,1.055,1.187,1.512,1.843s0.83,1.393,1.467,1.894C50.067,18.824,50.532,18.563,50.458,18.101z"/>
		</g>
		<g>
			<path fill="#FFFFFF" d="M40.266,20.292c-0.088-0.117-2.492-0.072-5.201,0.071c0-1.437,0.049-2.439,0.184-2.65
				c0.592-0.934,3.602-0.529,4.314-0.835c0.711-0.305,0.182-3.908-0.363-3.883c-3.441,0.16-9.325,0.342-9.358,3.518
				c-0.01,0.77-0.014,2.329-0.004,4.254c-1.291,0.146-2.227,0.311-2.408,0.483c-0.391,0.377,0.145,3.077,0.162,3.439
				c0.004,0.108,0.947,0.132,2.289,0.106c0.08,5.521,0.293,11.618,0.799,11.72c0.732,0.148,4.909,0.227,4.963-0.502
				c0.035-0.43-0.316-6.422-0.486-11.44c1.908-0.113,3.514-0.241,3.842-0.322C39.893,24.027,40.459,20.555,40.266,20.292z"/>
		</g>
	</g>
</g>
</svg>
