<?xml version="1.0" encoding="utf-8"?>
<!-- Generator: Adobe Illustrator 16.0.0, SVG Export Plug-In . SVG Version: 6.00 Build 0)  -->
<!DOCTYPE svg PUBLIC "-//W3C//DTD SVG 1.1//EN" "http://www.w3.org/Graphics/SVG/1.1/DTD/svg11.dtd">
<svg version="1.1" id="Capa_1" xmlns="http://www.w3.org/2000/svg" xmlns:xlink="http://www.w3.org/1999/xlink" x="0px" y="0px"
	 width="456.441px" height="134.043px" viewBox="0 0 456.441 134.043" enable-background="new 0 0 456.441 134.043"
	 xml:space="preserve">
<path fill="#FFFFFF" stroke="#C2C3C9" stroke-width="3" stroke-miterlimit="10" d="M442.941,50.421H179.87
	c1.541-1.392,2.855-3.083,3.833-5.054l0.644-1.297c1.022-2.057,1.788-4.268,2.276-6.571c0.009-0.042,0.018-0.083,0.026-0.124
	c0.334-1.637,0.542-3.411,0.619-5.291c0.13-3.248-0.391-6.54-1.548-9.785c-1.805-5.059-5.218-9.548-9.882-12.992
	c-3.444-2.539-7.488-4.504-12.025-5.844c-4.033-1.189-8.479-1.846-13.215-1.95c-0.063-0.001-1.162-0.013-1.224-0.013
	c-4.168,0-8.473,0.473-12.801,1.408c-8.091,1.75-15.266,4.924-21.33,9.435c-5.494,4.089-10.283,8.994-14.234,14.579
	c-3.653,5.165-6.75,10.868-9.199,16.941c-0.317,0.785-0.629,1.572-0.936,2.362c-3.625-1.933-7.566-2.929-11.722-2.961
	c-0.043,0-0.087,0-0.131,0c-1.863,0-3.751,0.204-5.608,0.606c-1.917,0.415-3.736,0.988-5.438,1.714
	c-1.869-2.179-4.015-4.173-6.412-5.958c-3.866-2.878-8.367-4.989-13.386-6.275c-2.677-0.685-5.5-1.043-8.477-1.067l-0.22,0
	c-2.895,0-5.924,0.337-9.005,1.003c-6.103,1.319-11.252,3.516-15.315,6.54c-3.671,2.736-6.617,5.79-8.754,9.075
	c-0.045,0.07-0.091,0.141-0.135,0.211c-2.535,4.024-4.09,8.422-4.626,13.107l-0.039,0.343c-0.289,2.572,0.012,5.176,0.881,7.613
	l0.688,1.931c1.606,4.507,5.037,8.128,9.45,9.976c2.104,0.881,4.337,1.32,6.57,1.32c1.288,0,2.576-0.146,3.836-0.438
	c-0.128,0.624-0.267,1.25-0.413,1.874c-0.619,2.628-1.162,5.216-1.614,7.691c-0.529,2.895-0.876,5.713-1.03,8.378
	c-0.253,4.387,0.292,8.498,1.617,12.209c1.384,3.884,3.39,7.24,5.951,9.963c2.506,2.668,5.42,4.75,8.663,6.191
	c2.973,1.32,6.078,2.092,9.307,2.302c0.563,0.034,1.125,0.054,1.685,0.057l0.186,0c1.999,0,3.968-0.207,5.837-0.612
	c2.84-0.613,5.629-1.595,8.325-2.928c1.212,0.804,2.483,1.502,3.807,2.09c2.969,1.32,6.074,2.095,9.317,2.307
	c0.55,0.033,1.098,0.052,1.68,0.057c0,0,0.149,0,0.178,0c2,0,3.97-0.206,5.876-0.618c0.119-0.025,0.237-0.052,0.355-0.08
	c0.063-0.012,0.281-0.058,0.328-0.067c6.706-1.449,12.773-4.422,18.042-8.842c2.765-2.322,5.367-4.973,7.785-7.907
	c0.043,0,0.085,0.006,0.128,0.006h333.899c6.627,0,12-5.373,12-12V62.421C454.941,55.794,449.568,50.421,442.941,50.421z"/>
<g>
	<path fill="#C2C3C9" d="M76.439,115.035c-0.232-0.002-0.473-0.011-0.715-0.025c-1.084-0.071-2.18-0.35-3.257-0.829
		c-1.096-0.486-2.113-1.231-3.024-2.215c-0.908-0.981-1.649-2.264-2.202-3.813c-0.555-1.555-0.74-3.46-0.55-5.666
		c0.059-0.697,0.139-1.42,0.237-2.166c-0.516,0.721-1.045,1.428-1.587,2.118c-1.524,1.945-3.15,3.706-4.833,5.234
		c-1.689,1.535-3.469,2.862-5.292,3.943c-1.859,1.104-3.771,1.873-5.688,2.286c-0.697,0.151-1.453,0.225-2.246,0.218
		c-0.232-0.001-0.473-0.011-0.715-0.025c-1.084-0.07-2.181-0.35-3.257-0.828c-1.094-0.486-2.107-1.218-3.006-2.175
		c-0.902-0.959-1.651-2.256-2.221-3.854c-0.536-1.5-0.748-3.292-0.63-5.323c0.112-1.945,0.372-4.043,0.773-6.238
		c0.396-2.171,0.878-4.468,1.434-6.828c0.542-2.313,0.991-4.637,1.333-6.909c0.339-2.249,0.524-4.447,0.552-6.536
		c0.026-2.011-0.264-3.881-0.862-5.557c-0.943-2.645-2.767-4.477-5.579-5.602c-1.587-0.635-3.375-0.964-5.317-0.979
		c-1.557-0.013-3.252,0.177-5.037,0.563c-0.893,0.192-1.694,0.414-2.385,0.657c-0.703,0.249-1.344,0.507-1.901,0.766l-0.983,0.457
		l-0.465-1.305l0.026-0.228c0.231-2.021,0.918-3.95,2.042-5.734c1.006-1.546,2.53-3.083,4.539-4.58
		c2.03-1.511,4.906-2.677,8.55-3.464c1.929-0.417,3.77-0.622,5.473-0.607c1.475,0.012,2.886,0.187,4.194,0.521
		c2.792,0.715,5.237,1.844,7.267,3.355c2.018,1.502,3.688,3.229,4.963,5.134c1.257,1.88,2.191,3.662,2.774,5.297
		c0.882,2.475,1.179,5.323,0.882,8.467c-0.29,3.048-0.822,6.188-1.583,9.33c-0.76,3.134-1.624,6.208-2.571,9.142
		c-0.93,2.886-1.608,5.437-2.014,7.577c-0.386,2.032-0.424,3.582-0.111,4.606c0.096,0.32,0.259,0.632,1.078,0.638
		c0.296,0.002,0.645-0.039,1.038-0.124c0.356-0.077,1.174-0.423,2.646-1.868c1.215-1.191,2.504-2.748,3.831-4.624
		c1.337-1.893,2.682-4.071,4-6.475c1.315-2.403,2.473-4.884,3.439-7.371c0.961-2.474,1.664-4.958,2.086-7.379
		c0.414-2.377,0.455-4.563,0.123-6.499c-0.053-0.311-0.116-0.609-0.185-0.889c-0.07-0.275-0.151-0.539-0.236-0.782
		c-0.138-0.387-0.402-0.656-0.83-0.846l-1.11-0.493l0.709-0.986c0.458-0.637,1.007-1.247,1.629-1.815l0.018-0.015
		c0.578-0.503,1.306-1.011,2.162-1.511c0.898-0.523,1.997-0.927,3.268-1.202c0.667-0.145,1.326-0.215,1.962-0.21
		c1.312,0.011,2.561,0.342,3.709,0.985c1.709,0.959,2.874,2.283,3.464,3.934c0.877,2.465,1.22,5.294,1.015,8.41
		c-0.199,3.03-0.631,6.135-1.283,9.229c-0.645,3.066-1.352,6.075-2.101,8.942c-0.737,2.82-1.264,5.313-1.563,7.414
		c-0.284,1.972-0.236,3.467,0.142,4.447c0.128,0.331,0.358,0.639,1.182,0.645c0.31,0.003,0.673-0.041,1.078-0.128
		c2.353-0.509,4.283-1.862,5.896-4.136c1.688-2.379,3.221-5.408,4.554-9.003c1.351-3.644,2.625-7.794,3.787-12.333
		c1.172-4.585,2.507-9.367,3.967-14.213c1.461-4.857,3.183-9.75,5.118-14.541c1.948-4.83,4.392-9.335,7.26-13.39
		c2.886-4.08,6.384-7.66,10.394-10.644c4.042-3.007,8.948-5.149,14.579-6.367c3.214-0.694,6.375-1.035,9.396-1.011
		c0.179,0.002,0.358,0.003,0.537,0.008c3.193,0.07,6.103,0.487,8.65,1.239c2.571,0.759,4.789,1.817,6.59,3.145
		c1.869,1.38,3.14,2.988,3.78,4.781c0.401,1.126,0.585,2.204,0.545,3.204c-0.038,0.929-0.132,1.765-0.279,2.485
		c-0.184,0.864-0.461,1.672-0.828,2.41l-0.43,0.866l-0.875-0.411c-1.369-0.644-2.998-1.18-4.845-1.591
		c-1.562-0.324-3.542-0.528-5.87-0.603c-0.183-0.006-0.366-0.009-0.551-0.01c-2.17-0.018-4.625,0.267-7.297,0.844
		c-4.72,1.02-8.957,2.836-12.597,5.396c-3.672,2.584-7,5.708-9.891,9.285c-2.911,3.607-5.582,7.609-7.936,11.897
		c-2.376,4.325-4.685,8.78-6.86,13.238c-2.159,4.423-4.342,8.865-6.489,13.201c-2.145,4.331-4.472,8.336-6.916,11.905
		c-2.473,3.609-5.247,6.715-8.244,9.232c-3.057,2.565-6.582,4.293-10.478,5.135c-0.085,0.018-0.175,0.028-0.264,0.028
		c-0.129,0.048-0.275,0.089-0.44,0.125C77.986,114.968,77.23,115.041,76.439,115.035"/>
	<path fill="#C2C3C9" d="M76.528,115.536l-0.092,0c-0.241-0.002-0.491-0.011-0.741-0.026c-1.147-0.075-2.3-0.368-3.43-0.871
		c-1.158-0.514-2.231-1.299-3.188-2.333c-0.955-1.032-1.731-2.373-2.306-3.985c-0.579-1.623-0.773-3.601-0.577-5.877
		c0.009-0.108,0.019-0.216,0.029-0.325c-0.162,0.211-0.324,0.421-0.488,0.63c-1.541,1.966-3.186,3.748-4.89,5.295
		c-1.715,1.559-3.522,2.905-5.372,4.003c-1.905,1.131-3.869,1.92-5.837,2.345c-0.703,0.152-1.46,0.23-2.25,0.23l-0.105,0
		c-0.239-0.001-0.49-0.011-0.741-0.026c-1.144-0.074-2.297-0.367-3.43-0.87c-1.158-0.514-2.223-1.285-3.167-2.29
		c-0.952-1.012-1.735-2.368-2.327-4.028c-0.558-1.563-0.779-3.421-0.658-5.52c0.114-1.969,0.376-4.088,0.781-6.299
		c0.401-2.195,0.885-4.5,1.438-6.853c0.54-2.303,0.986-4.614,1.325-6.869c0.335-2.222,0.519-4.398,0.546-6.468
		c0.025-1.952-0.255-3.763-0.833-5.382c-0.893-2.502-2.624-4.238-5.294-5.305c-1.528-0.612-3.255-0.929-5.135-0.944l-0.143,0
		c-1.481,0-3.091,0.186-4.784,0.552c-0.866,0.186-1.648,0.401-2.325,0.64c-0.688,0.243-1.312,0.495-1.856,0.748l-1.48,0.688
		l-0.688-1.931l0.039-0.343c0.24-2.097,0.952-4.097,2.116-5.945c1.04-1.598,2.607-3.182,4.663-4.714
		c2.089-1.555,5.031-2.75,8.743-3.552c1.903-0.411,3.724-0.619,5.413-0.619l0.17,0c1.516,0.012,2.967,0.193,4.314,0.537
		c2.856,0.732,5.36,1.889,7.441,3.439c2.064,1.536,3.773,3.305,5.08,5.256c1.283,1.918,2.235,3.738,2.83,5.407
		c0.907,2.543,1.212,5.464,0.908,8.682c-0.292,3.074-0.828,6.237-1.594,9.401c-0.764,3.15-1.632,6.238-2.581,9.178
		c-0.925,2.87-1.597,5.399-1.998,7.516c-0.371,1.954-0.413,3.422-0.125,4.367c0.051,0.17,0.084,0.28,0.603,0.284
		c0,0,0.001,0,0.001,0c0.276,0,0.582-0.038,0.928-0.113c0.19-0.041,0.926-0.288,2.402-1.736c1.192-1.169,2.462-2.702,3.773-4.556
		c1.326-1.877,2.661-4.04,3.969-6.426c1.305-2.383,2.453-4.843,3.412-7.312c0.95-2.446,1.644-4.896,2.06-7.284
		c0.404-2.32,0.445-4.45,0.123-6.328c-0.051-0.299-0.112-0.585-0.178-0.854c-0.065-0.256-0.142-0.505-0.223-0.736
		c-0.09-0.254-0.258-0.42-0.561-0.555l-1.672-0.743l1.069-1.485c0.476-0.662,1.048-1.299,1.698-1.893
		c0.625-0.543,1.378-1.07,2.265-1.587c0.943-0.55,2.092-0.973,3.415-1.259c0.679-0.147,1.355-0.222,2.011-0.222
		c1.458,0.011,2.786,0.364,4.01,1.048c1.816,1.02,3.058,2.434,3.691,4.202c0.901,2.532,1.252,5.429,1.043,8.611
		c-0.201,3.052-0.636,6.18-1.293,9.299c-0.646,3.069-1.354,6.085-2.106,8.966c-0.734,2.809-1.256,5.285-1.552,7.358
		c-0.272,1.884-0.233,3.296,0.113,4.197c0.058,0.15,0.124,0.32,0.719,0.325h0.001c0.292,0,0.609-0.039,0.967-0.117
		c2.227-0.481,4.057-1.769,5.594-3.937c1.665-2.345,3.176-5.335,4.493-8.888c1.346-3.63,2.615-7.763,3.771-12.283
		c1.171-4.582,2.508-9.371,3.972-14.233c1.467-4.876,3.194-9.783,5.134-14.584c1.961-4.862,4.422-9.401,7.315-13.491
		c2.915-4.12,6.448-7.738,10.503-10.756c4.1-3.05,9.07-5.222,14.771-6.455c3.145-0.679,6.242-1.023,9.205-1.023l0.849,0.009
		c3.233,0.071,6.188,0.495,8.778,1.259c2.628,0.776,4.898,1.86,6.746,3.222c1.95,1.44,3.28,3.127,3.954,5.015
		c0.423,1.187,0.616,2.329,0.574,3.392c-0.039,0.957-0.136,1.819-0.289,2.565c-0.192,0.907-0.485,1.758-0.87,2.532l-0.647,1.304
		l-1.318-0.619c-1.338-0.63-2.933-1.153-4.741-1.555c-1.531-0.318-3.478-0.517-5.778-0.591c-0.179-0.005-0.357-0.009-0.538-0.01
		l-0.188-0.001c-2.087,0-4.442,0.281-7.001,0.834c-4.652,1.005-8.829,2.794-12.415,5.317c-3.634,2.557-6.928,5.649-9.79,9.19
		c-2.896,3.589-5.549,7.567-7.886,11.823c-2.373,4.318-4.677,8.765-6.849,13.216c-2.159,4.424-4.342,8.867-6.49,13.203
		c-2.157,4.354-4.495,8.38-6.951,11.966c-2.498,3.645-5.302,6.785-8.334,9.333c-3.121,2.619-6.719,4.382-10.694,5.241
		c-0.094,0.02-0.186,0.032-0.276,0.037c-0.128,0.043-0.27,0.082-0.427,0.116C78.086,115.458,77.325,115.536,76.528,115.536z
		 M67.686,98.405l-0.261,1.982c-0.097,0.737-0.176,1.453-0.235,2.142c-0.184,2.133-0.008,3.969,0.522,5.456
		c0.53,1.484,1.235,2.709,2.099,3.641c0.864,0.934,1.826,1.64,2.859,2.098c1.022,0.455,2.061,0.719,3.087,0.787
		c0.23,0.014,0.463,0.022,0.687,0.024l0.084,0.5v-0.5c0.726,0,1.417-0.07,2.053-0.208c0.14-0.03,0.263-0.064,0.372-0.104
		l0.173-0.031c0.051,0,0.107-0.006,0.162-0.018c3.811-0.823,7.263-2.515,10.258-5.028c2.963-2.489,5.707-5.562,8.152-9.132
		c2.43-3.547,4.744-7.532,6.88-11.844c2.146-4.335,4.33-8.776,6.488-13.198c2.179-4.466,4.491-8.927,6.871-13.259
		c2.364-4.308,5.051-8.335,7.984-11.97c2.92-3.614,6.282-6.77,9.992-9.38c3.695-2.6,7.995-4.443,12.779-5.477
		c2.627-0.568,5.054-0.856,7.212-0.856l0.194,0.001c0.188,0.001,0.376,0.004,0.563,0.011c2.358,0.076,4.361,0.282,5.956,0.612
		c1.887,0.42,3.552,0.967,4.957,1.628l0.432,0.203l0.212-0.427c0.348-0.699,0.612-1.47,0.787-2.292
		c0.141-0.689,0.231-1.499,0.269-2.401c0.037-0.935-0.136-1.95-0.517-3.016c-0.605-1.697-1.818-3.227-3.605-4.546
		c-1.753-1.292-3.918-2.325-6.435-3.068c-2.506-0.739-5.372-1.149-8.52-1.218l-0.824-0.009c-2.892,0-5.918,0.336-8.993,1.001
		c-5.562,1.203-10.402,3.316-14.386,6.28c-3.97,2.955-7.43,6.498-10.284,10.531c-2.848,4.027-5.272,8.498-7.205,13.289
		c-1.928,4.773-3.645,9.65-5.103,14.498c-1.461,4.849-2.793,9.625-3.961,14.193c-1.165,4.554-2.444,8.72-3.802,12.383
		c-1.347,3.635-2.9,6.703-4.615,9.119c-1.689,2.38-3.716,3.798-6.199,4.335c-0.428,0.092-0.816,0.139-1.154,0.139
		c-0.903-0.007-1.426-0.313-1.677-0.965c-0.409-1.063-0.466-2.644-0.17-4.699c0.301-2.11,0.831-4.623,1.575-7.469
		c0.748-2.865,1.453-5.866,2.095-8.919c0.647-3.073,1.076-6.154,1.273-9.158c0.2-3.045-0.132-5.808-0.987-8.21
		c-0.549-1.534-1.638-2.767-3.238-3.665c-1.075-0.601-2.242-0.911-3.469-0.921c-0.001,0-0.002,0-0.003,0
		c-0.635,0-1.24,0.067-1.849,0.199c-1.22,0.264-2.27,0.649-3.123,1.146c-0.832,0.485-1.534,0.975-2.085,1.456
		c-0.608,0.554-1.133,1.139-1.569,1.745l-0.35,0.487l0.548,0.243c0.554,0.246,0.913,0.618,1.098,1.136
		c0.09,0.258,0.175,0.535,0.25,0.826c0.073,0.295,0.139,0.605,0.194,0.929c0.341,1.991,0.3,4.234-0.124,6.668
		c-0.428,2.452-1.139,4.967-2.113,7.475c-0.975,2.509-2.141,5.008-3.467,7.43c-1.326,2.42-2.682,4.615-4.03,6.523
		c-1.346,1.903-2.654,3.482-3.889,4.692c-1.485,1.457-2.392,1.892-2.891,2c-0.417,0.09-0.793,0.135-1.119,0.135
		c-1.144-0.008-1.444-0.536-1.582-0.995c-0.336-1.098-0.303-2.729,0.099-4.842c0.408-2.158,1.091-4.727,2.029-7.637
		c0.941-2.916,1.803-5.979,2.561-9.106c0.754-3.118,1.283-6.233,1.571-9.26c0.29-3.071,0.002-5.847-0.855-8.251
		c-0.567-1.592-1.481-3.337-2.718-5.187c-1.243-1.856-2.873-3.542-4.846-5.011c-1.977-1.472-4.363-2.572-7.092-3.272
		c-1.268-0.324-2.639-0.495-4.074-0.506l-0.162,0c-1.618,0-3.368,0.201-5.202,0.597c-3.571,0.772-6.383,1.908-8.357,3.377
		c-1.96,1.461-3.447,2.959-4.418,4.451c-1.079,1.713-1.741,3.572-1.964,5.518l-0.013,0.113l0.242,0.679l0.485-0.226
		c0.573-0.266,1.228-0.529,1.945-0.783c0.717-0.253,1.54-0.479,2.446-0.674c1.762-0.381,3.443-0.575,4.995-0.575l0.151,0
		c2.005,0.016,3.855,0.357,5.499,1.015c2.952,1.18,4.87,3.109,5.864,5.898c0.618,1.731,0.918,3.659,0.891,5.731
		c-0.028,2.115-0.216,4.336-0.557,6.604c-0.344,2.281-0.795,4.619-1.341,6.949c-0.55,2.336-1.031,4.625-1.429,6.803
		c-0.397,2.171-0.655,4.249-0.766,6.177c-0.113,1.965,0.089,3.689,0.602,5.126c0.545,1.53,1.256,2.768,2.114,3.679
		c0.853,0.908,1.81,1.602,2.845,2.061c1.024,0.455,2.063,0.719,3.086,0.786c0.23,0.014,0.462,0.023,0.686,0.024
		c0.003,0,0.005,0,0.008,0c0.813,0,1.497-0.07,2.129-0.207c1.863-0.402,3.727-1.151,5.538-2.227c1.792-1.064,3.545-2.371,5.21-3.884
		c1.663-1.51,3.27-3.25,4.776-5.172c0.538-0.685,1.063-1.385,1.574-2.101L67.686,98.405z"/>
</g>
<g>
	<path fill="#727176" d="M125.633,67.498h9.34v33.316h-9.34V67.498z"/>
	<path fill="#727176" d="M141.933,67.498h11.718l9.084,19.942h0.171V67.498h8.322v33.316h-9.596l-11.208-24.321h-0.169v24.321
		h-8.322V67.498z"/>
	<path fill="#727176" d="M176.827,81.095h18.68v6.123h-18.68V81.095z"/>
	<path fill="#002E82" d="M200.515,93.104V75.208c0-5.14,4.754-8.187,13.754-8.187c9,0,13.756,3.047,13.756,8.187v3.522h-8.832
		v-3.855c0-2.19-1.868-3.094-4.669-3.094c-2.803,0-4.67,0.903-4.67,3.094v18.61c0,2.189,1.868,3.046,4.67,3.046
		c2.801,0,4.669-0.857,4.669-3.046v-5.093h8.832v4.712c0,5.139-4.756,8.186-13.756,8.186
		C205.269,101.291,200.515,98.244,200.515,93.104z"/>
	<path fill="#002E82" d="M233.117,92.913V75.399c0-5.331,5.01-8.377,14.18-8.377s14.181,3.047,14.181,8.377v17.514
		c0,5.331-5.011,8.377-14.181,8.377S233.117,98.244,233.117,92.913z M252.136,93.248V75.066c0-2.381-1.867-3.285-4.84-3.285
		c-2.972,0-4.84,0.903-4.84,3.285v18.181c0,2.379,1.868,3.284,4.84,3.284C250.269,96.532,252.136,95.627,252.136,93.248z"/>
	<path fill="#002E82" d="M267.755,67.498h13.332l5.943,23.845h0.17l5.943-23.845h13.33v33.316h-8.83V75.589h-0.17l-6.791,25.225
		h-7.813l-6.793-25.225h-0.17v25.225h-8.152V67.498z"/>
	<path fill="#002E82" d="M313.433,67.498h13.757c9.339,0,13.925,2.904,13.925,8.233v3.286c0,5.331-4.586,8.233-13.925,8.233h-4.416
		v13.564h-9.341V67.498z M327.19,82.49c2.97,0,4.584-0.761,4.584-3.142v-3.95c0-2.379-1.614-3.142-4.584-3.142h-4.416V82.49H327.19z
		"/>
	<path fill="#002E82" d="M350.453,67.498h12.65l9.679,33.316h-9.339l-1.698-6.615v0.096H351.13l-1.699,6.52h-8.66L350.453,67.498z
		 M360.641,89.773l-4.161-16.469h-0.17l-4.076,16.469H360.641z"/>
	<path fill="#002E82" d="M377.279,67.498h11.719l9.084,19.942h0.17V67.498h8.322v33.316h-9.596l-11.209-24.321h-0.168v24.321h-8.322
		V67.498z"/>
	<path fill="#002E82" d="M422.108,86.632l-11.295-19.134h9.936l6.367,12.232h0.17l6.369-12.232h9.084l-11.293,19.134v14.182h-9.338
		V86.632z"/>
</g>
</svg>
