<?xml version="1.0" encoding="utf-8"?>
<!-- Generator: Adobe Illustrator 16.0.0, SVG Export Plug-In . SVG Version: 6.00 Build 0)  -->
<!DOCTYPE svg PUBLIC "-//W3C//DTD SVG 1.1//EN" "http://www.w3.org/Graphics/SVG/1.1/DTD/svg11.dtd">
<svg version="1.1" id="Capa_1" xmlns="http://www.w3.org/2000/svg" xmlns:xlink="http://www.w3.org/1999/xlink" x="0px" y="0px"
	 width="55.333px" height="55.333px" viewBox="5 0  55.33 55.333" enable-background="new 0 0  55.33 55.333"
	 xml:space="preserve">
<g>
	<path fill="#EAEBEC" d="M26.64,12.125c-3.195,0.882-5.844,2.697-7.875,5.394c-3.385,4.495-4.275,10.851-2.35,16.645
		c-1.363,0.49-2.938,0.729-4.802,0.729c-1.655,0-3.368-0.187-4.981-0.378c-0.107-0.014-0.215,0.042-0.266,0.139
		c-0.053,0.098-0.041,0.217,0.031,0.301c3.012,3.573,7.781,5.707,12.752,5.707c0.311,0,0.623-0.008,0.934-0.025
		c3.819,4.497,9.379,7.179,14.901,7.18l0,0c0.146,0,0.292-0.002,0.438-0.006c6.089-0.155,11.698-3.527,15.005-9.02
		c3.269-5.432,3.629-11.875,0.961-17.236c-2.974-5.976-10.857-10.149-19.172-10.149C30.246,11.404,28.367,11.646,26.64,12.125z"/>
	<g>
		<g>
			<path fill="#EB3D5E" d="M51.978,34.627c3.174-5.272,3.524-11.523,0.939-16.72c-2.887-5.802-10.573-9.854-18.691-9.854
				c-1.925,0-3.754,0.236-5.436,0.701c-3.076,0.851-5.629,2.601-7.59,5.201c-3.325,4.418-4.162,10.7-2.186,16.394
				c0.047,0.137-0.021,0.286-0.157,0.338c-1.479,0.575-3.191,0.854-5.233,0.855c-1.447,0-2.928-0.139-4.348-0.301
				c2.926,3.141,7.313,4.997,11.882,4.997c0.347,0,0.692-0.011,1.037-0.032c0.005,0,0.011,0,0.017,0c0.08,0,0.153,0.034,0.205,0.096
				c3.719,4.439,9.168,7.09,14.576,7.09l0,0c0.141,0,0.281-0.002,0.424-0.004C43.323,43.239,48.767,39.963,51.978,34.627z"/>
			<path fill="#7B4C3E" d="M53.398,17.668C50.425,11.693,42.539,7.519,34.226,7.519c-1.973,0-3.849,0.242-5.576,0.72
				c-3.195,0.882-5.844,2.697-7.876,5.396c-3.384,4.494-4.276,10.85-2.351,16.645c-1.361,0.49-2.936,0.728-4.799,0.728
				c-1.656,0-3.369-0.186-4.982-0.377c-0.107-0.015-0.214,0.042-0.267,0.14c-0.053,0.097-0.04,0.215,0.03,0.299
				c3.014,3.575,7.781,5.708,12.753,5.708c0.312,0,0.624-0.01,0.936-0.025c3.817,4.497,9.377,7.179,14.899,7.179l0,0
				c0.146,0,0.291-0.001,0.438-0.006c6.09-0.154,11.698-3.526,15.006-9.019C55.705,29.473,56.066,23.03,53.398,17.668z
				 M36.994,43.393L36.994,43.393c-5.408,0-10.857-2.65-14.576-7.09c-0.052-0.062-0.125-0.096-0.205-0.096c-0.006,0-0.012,0-0.017,0
				c-0.345,0.021-0.69,0.032-1.037,0.032c-4.569,0-8.956-1.856-11.882-4.997c1.42,0.162,2.9,0.301,4.348,0.301
				c2.042-0.001,3.754-0.28,5.233-0.855c0.136-0.052,0.204-0.201,0.157-0.338c-1.977-5.693-1.14-11.976,2.186-16.394
				c1.961-2.601,4.514-4.351,7.59-5.201c1.682-0.465,3.511-0.701,5.436-0.701c8.118,0,15.805,4.052,18.691,9.854
				c2.584,5.196,2.235,11.447-0.939,16.72c-3.211,5.336-8.655,8.611-14.561,8.762C37.275,43.391,37.134,43.393,36.994,43.393z"/>
			<path fill="#D63655" d="M54.152,29.336c-1.485,1.466-3.083,2.828-4.898,3.85c-3.819,2.146-8.352,2.637-12.731,2.557
				c-2.467-0.046-4.959-0.264-7.302-1.035c-1.837-0.605-3.551-1.541-5.196-2.559c-1.912-1.187-3.77-2.514-5.214-4.238
				c-0.214-0.257-0.419-0.524-0.613-0.8c0.177,1.089,0.447,2.175,0.817,3.239c0.047,0.137-0.021,0.286-0.157,0.338
				c-1.479,0.575-3.191,0.854-5.233,0.855c-1.447,0-2.928-0.139-4.348-0.301c2.926,3.141,7.313,4.997,11.882,4.997
				c0.347,0,0.692-0.011,1.037-0.032c0.005,0,0.011,0,0.017,0c0.08,0,0.153,0.034,0.205,0.096c3.719,4.439,9.168,7.09,14.576,7.09
				l0,0c0.141,0,0.281-0.002,0.424-0.004c5.905-0.15,11.35-3.426,14.561-8.762C52.992,32.942,53.718,31.156,54.152,29.336z"/>
			<path fill="#ED5B78" d="M41.506,11.282c-2.013-1.48-4.98-1.639-7.406-1.681c-2.333-0.04-5.31,0.227-7.297,1.55
				c-0.243,0.163-0.155,0.55,0.151,0.557c2.382,0.05,4.737-0.473,7.146-0.364c2.422,0.108,4.685,1.034,7.072,1.166
				C41.891,12.55,41.986,11.634,41.506,11.282z"/>
			<path fill="#ED5B78" d="M47.421,13.905c-0.506-0.651-1.232-1.06-1.968-1.416c-0.544-0.265-1.362-0.593-1.924-0.246
				c-0.122,0.075-0.19,0.257-0.102,0.386c0.322,0.459,0.941,0.624,1.405,0.921c0.643,0.409,1.191,0.948,1.885,1.268
				C47.339,15.103,47.827,14.426,47.421,13.905z"/>
		</g>
		<g>
			<g>
				<path fill="#FFFFFF" d="M41.039,23.746c-0.971-3.667-6.234-5.261-9.422-1.412c-2.309,2.787-1.422,9.319,4.063,8.805
					C41.162,30.624,42.009,27.413,41.039,23.746z M35.754,28.834c-3.196,0.3-3.714-3.508-2.366-5.133
					c1.857-2.243,4.926-1.314,5.492,0.823S38.953,28.534,35.754,28.834z"/>
			</g>
			<g>
				<path fill="#FFFFFF" d="M39.994,18.689c-0.247,0.288-0.371,0.68-0.275,1.102c0.147,0.663,0.864,1.143,1.533,1.028
					c1.33-0.229,1.494-2.158,0.212-2.558C40.904,18.087,40.332,18.292,39.994,18.689z"/>
			</g>
			<g>
				<path fill="#FFFFFF" d="M44.413,15.182c-1.606-1.52-16.048-0.791-18.42,1.729c-1.663,1.767-1.128,16.912,1.495,19.275
					c2.623,2.364,16.114,1.516,18.571-1.22C48.517,32.23,46.015,16.702,44.413,15.182z M43.75,32.915
					c-1.895,2.109-12.289,2.762-14.31,0.941c-2.021-1.821-2.435-13.491-1.152-14.852c1.829-1.941,12.954-2.504,14.192-1.332
					C43.713,18.843,45.64,30.807,43.75,32.915z"/>
			</g>
		</g>
	</g>
</g>
</svg>
