<?xml version="1.0" encoding="utf-8"?>
<!-- Generator: Adobe Illustrator 16.0.0, SVG Export Plug-In . SVG Version: 6.00 Build 0)  -->
<!DOCTYPE svg PUBLIC "-//W3C//DTD SVG 1.1//EN" "http://www.w3.org/Graphics/SVG/1.1/DTD/svg11.dtd">
<svg version="1.1" id="Capa_1" xmlns="http://www.w3.org/2000/svg" xmlns:xlink="http://www.w3.org/1999/xlink" x="0px" y="0px"
	 width="327.441px" height="134.043px" viewBox="0 0 327.441 134.043" enable-background="new 0 0 327.441 134.043"
	 xml:space="preserve">
<path fill="#FFFFFF" stroke="#C2C3C9" stroke-width="3" stroke-miterlimit="10" d="M313.941,50.422H179.87
	c1.541-1.393,2.855-3.084,3.833-5.055l0.644-1.297c1.022-2.057,1.788-4.268,2.276-6.571c0.009-0.042,0.018-0.083,0.026-0.124
	c0.334-1.637,0.542-3.411,0.619-5.291c0.13-3.247-0.391-6.539-1.548-9.784c-1.805-5.059-5.218-9.548-9.882-12.992
	c-3.444-2.538-7.488-4.505-12.025-5.845c-4.033-1.189-8.479-1.846-13.215-1.949c-0.063-0.002-1.162-0.014-1.224-0.014
	c-4.168,0-8.473,0.473-12.801,1.408c-8.091,1.75-15.266,4.924-21.33,9.434c-5.494,4.09-10.283,8.994-14.234,14.579
	c-3.653,5.165-6.75,10.868-9.199,16.94c-0.317,0.785-0.629,1.572-0.936,2.362c-3.625-1.933-7.566-2.929-11.722-2.961
	c-0.043-0.001-0.087-0.001-0.131-0.001c-1.863,0-3.751,0.205-5.608,0.607c-1.917,0.414-3.736,0.988-5.438,1.713
	c-1.869-2.179-4.015-4.173-6.412-5.957c-3.866-2.879-8.367-4.988-13.386-6.275c-2.677-0.684-5.5-1.043-8.477-1.066h-0.22
	c-2.895,0-5.924,0.337-9.005,1.002c-6.103,1.319-11.252,3.517-15.315,6.54c-3.671,2.736-6.617,5.79-8.754,9.075
	c-0.045,0.07-0.091,0.141-0.135,0.211c-2.535,4.023-4.09,8.422-4.626,13.107l-0.039,0.343c-0.289,2.571,0.012,5.176,0.881,7.613
	l0.688,1.931c1.606,4.508,5.037,8.129,9.45,9.977c2.104,0.881,4.337,1.32,6.57,1.32c1.288,0,2.576-0.146,3.836-0.438
	c-0.128,0.623-0.267,1.249-0.413,1.873c-0.619,2.628-1.162,5.217-1.614,7.691c-0.529,2.895-0.876,5.713-1.03,8.378
	c-0.253,4.387,0.292,8.497,1.617,12.209c1.384,3.884,3.39,7.239,5.951,9.963c2.506,2.668,5.42,4.751,8.663,6.19
	c2.973,1.32,6.078,2.093,9.307,2.303c0.563,0.033,1.125,0.053,1.685,0.057h0.186c1.999,0,3.968-0.207,5.837-0.611
	c2.84-0.613,5.629-1.596,8.325-2.929c1.212,0.804,2.483,1.503,3.807,2.09c2.969,1.32,6.074,2.095,9.317,2.308
	c0.55,0.033,1.098,0.052,1.68,0.057c0,0,0.149,0,0.178,0c2,0,3.97-0.205,5.876-0.617c0.119-0.025,0.237-0.053,0.355-0.08
	c0.063-0.013,0.281-0.059,0.328-0.068c6.706-1.449,12.773-4.422,18.042-8.842c2.765-2.322,5.367-4.973,7.785-7.906
	c0.043,0,0.085,0.006,0.128,0.006h204.899c6.627,0,12-5.372,12-12V62.422C325.941,55.794,320.568,50.422,313.941,50.422z"/>
<g>
	<path fill="#58167D" stroke="#58167D" stroke-miterlimit="10" d="M127.194,96.529c-0.425,0-0.792-0.094-1.1-0.283
		c-0.308-0.188-0.462-0.527-0.462-1.02l0.23-30.762c0-0.49,0.154-0.85,0.463-1.076s0.637-0.33,0.984-0.313
		c0.347,0.02,0.664,0.162,0.95,0.426c0.287,0.266,0.431,0.643,0.431,1.133l-0.283,29.119l14.504-0.17
		c0.414,0,0.736,0.141,0.963,0.426c0.227,0.283,0.349,0.604,0.367,0.963c0.02,0.359-0.075,0.68-0.283,0.963
		c-0.207,0.283-0.537,0.424-0.99,0.424L127.194,96.529z"/>
	<path fill="#58167D" stroke="#58167D" stroke-miterlimit="10" d="M148.18,71.717c0-0.416,0.131-0.756,0.396-1.02
		c0.264-0.264,0.585-0.396,0.963-0.396c0.415,0,0.755,0.133,1.02,0.396c0.264,0.264,0.396,0.604,0.396,1.02
		c0,0.377-0.133,0.699-0.396,0.963c-0.265,0.264-0.604,0.396-1.02,0.396c-0.378,0-0.699-0.133-0.963-0.396
		C148.311,72.416,148.18,72.094,148.18,71.717z M148.18,77.438c0-0.49,0.15-0.85,0.453-1.076c0.302-0.227,0.632-0.34,0.991-0.34
		c0.358,0,0.688,0.113,0.991,0.34c0.302,0.227,0.453,0.586,0.453,1.076c0,1.701,0.01,3.307,0.028,4.816s0.048,3.002,0.085,4.475
		s0.066,2.967,0.086,4.477c0.018,1.51,0.027,3.115,0.027,4.814c0,0.416-0.15,0.727-0.453,0.936c-0.303,0.207-0.643,0.311-1.02,0.311
		c-0.378,0-0.718-0.104-1.02-0.311c-0.303-0.209-0.453-0.52-0.453-0.936c0-1.699-0.01-3.305-0.029-4.814
		c-0.019-1.51-0.037-3.004-0.057-4.477s-0.037-2.965-0.057-4.475S148.18,79.139,148.18,77.438z"/>
	<path fill="#58167D" stroke="#58167D" stroke-miterlimit="10" d="M163.758,79.309l0.227,16.371
		c-0.038,0.416-0.189,0.719-0.453,0.906c-0.266,0.189-0.559,0.283-0.879,0.283s-0.633-0.094-0.934-0.283
		c-0.303-0.188-0.473-0.49-0.51-0.906l-0.228-16.258l-4.136,0.057c-0.453,0-0.813-0.123-1.076-0.369
		c-0.265-0.244-0.416-0.52-0.453-0.822c-0.038-0.301,0.057-0.594,0.283-0.877s0.586-0.426,1.076-0.426l4.249-0.113l-0.113-10.027
		c0-0.49,0.142-0.85,0.425-1.076s0.596-0.34,0.936-0.34s0.66,0.113,0.963,0.34c0.301,0.227,0.453,0.586,0.453,1.076l0.113,9.971
		l4.758-0.113c0.416,0,0.737,0.123,0.964,0.369s0.358,0.529,0.396,0.85c0.037,0.32-0.038,0.613-0.227,0.879
		c-0.189,0.264-0.491,0.396-0.907,0.396L163.758,79.309z"/>
	<path fill="#58167D" stroke="#58167D" stroke-miterlimit="10" d="M179.508,79.309l0.227,16.371
		c-0.039,0.416-0.189,0.719-0.454,0.906c-0.265,0.189-0.558,0.283-0.878,0.283c-0.321,0-0.633-0.094-0.935-0.283
		c-0.303-0.188-0.473-0.49-0.51-0.906l-0.228-16.258l-4.135,0.057c-0.453,0-0.813-0.123-1.076-0.369
		c-0.266-0.244-0.416-0.52-0.453-0.822c-0.039-0.301,0.057-0.594,0.283-0.877s0.585-0.426,1.076-0.426l4.248-0.113l-0.113-10.027
		c0-0.49,0.143-0.85,0.426-1.076s0.595-0.34,0.935-0.34s0.66,0.113,0.963,0.34c0.302,0.227,0.453,0.586,0.453,1.076l0.114,9.971
		l4.758-0.113c0.416,0,0.736,0.123,0.963,0.369s0.359,0.529,0.396,0.85s-0.037,0.613-0.227,0.879
		c-0.189,0.264-0.49,0.396-0.906,0.396L179.508,79.309z"/>
	<path fill="#58167D" stroke="#58167D" stroke-miterlimit="10" d="M189.591,64.748c0-0.49,0.142-0.85,0.425-1.076
		s0.604-0.34,0.963-0.34s0.68,0.113,0.963,0.34s0.426,0.586,0.426,1.076l0.453,30.818c0,0.416-0.161,0.736-0.482,0.963
		c-0.32,0.227-0.66,0.34-1.02,0.34s-0.699-0.113-1.02-0.34s-0.481-0.547-0.481-0.963L189.591,64.748z"/>
	<path fill="#58167D" stroke="#58167D" stroke-miterlimit="10" d="M215.424,84.689c-0.53,0.303-1.445,0.586-2.748,0.85
		c-1.303,0.266-2.711,0.51-4.221,0.736c-1.512,0.227-2.984,0.416-4.419,0.566c-1.436,0.152-2.55,0.246-3.343,0.283
		c0.076,1.059,0.303,2.031,0.68,2.918c0.377,0.889,0.869,1.625,1.474,2.209c0.604,0.586,1.321,1.02,2.152,1.303
		s1.737,0.332,2.72,0.143c1.17-0.189,2.219-0.604,3.145-1.246c0.924-0.643,1.878-1.586,2.86-2.832
		c0.302-0.34,0.642-0.529,1.02-0.566c0.378-0.039,0.708,0.037,0.991,0.227s0.482,0.443,0.596,0.764
		c0.113,0.322,0.074,0.672-0.113,1.049c-1.285,1.662-2.578,2.889-3.881,3.682s-2.616,1.322-3.938,1.586
		c-1.398,0.264-2.729,0.217-3.994-0.141c-1.266-0.359-2.379-0.982-3.342-1.869c-0.963-0.889-1.729-2.012-2.295-3.371
		s-0.85-2.908-0.85-4.646c0-1.246,0.142-2.473,0.425-3.682s0.727-2.313,1.331-3.314c0.604-1,1.389-1.85,2.352-2.549
		s2.143-1.143,3.541-1.332c1.17-0.15,2.341-0.084,3.512,0.199c1.17,0.283,2.229,0.764,3.172,1.443
		c0.944,0.68,1.737,1.549,2.38,2.607c0.642,1.057,1.058,2.285,1.247,3.682C215.951,84.029,215.801,84.463,215.424,84.689z
		 M205.453,78.287c-0.757,0.152-1.408,0.426-1.955,0.822c-0.548,0.396-1.011,0.859-1.389,1.389c-0.377,0.529-0.67,1.123-0.877,1.783
		c-0.209,0.662-0.35,1.352-0.426,2.068c2.153,0,4.201-0.17,6.146-0.51s3.957-0.736,6.034-1.189
		c-0.151-0.717-0.444-1.389-0.878-2.012c-0.436-0.623-0.982-1.141-1.643-1.557c-0.662-0.416-1.417-0.699-2.267-0.852
		C207.35,78.08,206.434,78.1,205.453,78.287z"/>
	<path fill="#58167D" stroke="#58167D" stroke-miterlimit="10" d="M226.059,80.498c0-2.871,0.358-5.391,1.076-7.564
		c0.717-2.17,1.68-3.982,2.889-5.438c1.209-1.453,2.578-2.549,4.107-3.285s3.107-1.125,4.73-1.162s3.201,0.293,4.73,0.992
		s2.908,1.766,4.137,3.199c1.227,1.436,2.209,3.23,2.945,5.383s1.123,4.684,1.162,7.592c0,2.039-0.275,4.014-0.822,5.92
		c-0.549,1.906-1.352,3.607-2.408,5.098c-1.057,1.492-2.359,2.711-3.908,3.654c-1.549,0.945-3.324,1.455-5.326,1.529
		c-2.229,0.076-4.184-0.311-5.863-1.16c-1.68-0.85-3.068-2.021-4.164-3.514c-1.096-1.49-1.917-3.209-2.464-5.154
		C226.332,84.643,226.059,82.613,226.059,80.498z M239.173,93.754c1.59,0,3.002-0.396,4.232-1.189s2.264-1.832,3.096-3.115
		c0.834-1.285,1.469-2.748,1.904-4.391c0.436-1.645,0.652-3.314,0.652-5.014c0-3.174-0.502-5.826-1.506-7.961
		c-1.004-2.133-2.262-3.719-3.777-4.758s-3.152-1.559-4.914-1.559s-3.389,0.539-4.885,1.615s-2.738,2.691-3.722,4.844
		s-1.457,4.814-1.42,7.988c0,1.662,0.189,3.313,0.568,4.957c0.379,1.643,0.975,3.096,1.789,4.361
		c0.814,1.266,1.875,2.295,3.181,3.088S237.279,93.791,239.173,93.754z"/>
	<path fill="#58167D" stroke="#58167D" stroke-miterlimit="10" d="M259.115,96.502c-0.283,0.244-0.605,0.367-0.963,0.367
		c-0.359,0-0.68-0.123-0.965-0.367c-0.283-0.246-0.424-0.596-0.424-1.049c0-3.285-0.057-6.43-0.17-9.432
		c-0.113-3.004-0.17-6.031-0.17-9.088c0-0.457,0.141-0.807,0.424-1.053s0.596-0.369,0.936-0.369s0.66,0.123,0.963,0.369
		s0.453,0.596,0.453,1.053l0.057,2.771c0.643-0.885,1.416-1.586,2.322-2.107c0.906-0.52,2.021-0.818,3.344-0.896
		c1.66-0.037,3.039,0.311,4.135,1.043s1.982,1.676,2.662,2.832s1.182,2.441,1.502,3.859c0.32,1.416,0.52,2.803,0.596,4.162
		c0.074,1.211,0.113,2.391,0.113,3.541c0,1.152-0.02,2.182-0.057,3.088c0,0.492-0.143,0.85-0.426,1.076s-0.594,0.35-0.936,0.369
		c-0.34,0.018-0.65-0.076-0.934-0.283s-0.426-0.52-0.426-0.936c-0.037-0.943-0.037-2.002,0-3.172s0.02-2.359-0.057-3.57
		c-0.037-0.793-0.15-1.727-0.34-2.803s-0.5-2.096-0.934-3.061c-0.436-0.963-1.02-1.773-1.756-2.436
		c-0.738-0.66-1.672-0.973-2.805-0.934c-1.285,0.076-2.305,0.424-3.061,1.047s-1.33,1.408-1.727,2.352s-0.652,1.992-0.766,3.145
		s-0.17,2.275-0.17,3.371v6.061C259.539,95.906,259.398,96.256,259.115,96.502z"/>
	<path fill="#58167D" stroke="#58167D" stroke-miterlimit="10" d="M295.398,84.689c-0.529,0.303-1.443,0.586-2.748,0.85
		c-1.303,0.266-2.709,0.51-4.219,0.736c-1.512,0.227-2.984,0.416-4.42,0.566c-1.436,0.152-2.549,0.246-3.342,0.283
		c0.074,1.059,0.301,2.031,0.68,2.918c0.377,0.889,0.867,1.625,1.473,2.209c0.604,0.586,1.322,1.02,2.152,1.303
		s1.736,0.332,2.721,0.143c1.17-0.189,2.217-0.604,3.143-1.246s1.879-1.586,2.861-2.832c0.303-0.34,0.643-0.529,1.02-0.566
		c0.377-0.039,0.709,0.037,0.992,0.227s0.48,0.443,0.594,0.764c0.113,0.322,0.076,0.672-0.113,1.049
		c-1.283,1.662-2.576,2.889-3.881,3.682c-1.303,0.793-2.615,1.322-3.936,1.586c-1.398,0.264-2.73,0.217-3.994-0.141
		c-1.266-0.359-2.381-0.982-3.344-1.869c-0.963-0.889-1.727-2.012-2.293-3.371s-0.85-2.908-0.85-4.646
		c0-1.246,0.141-2.473,0.424-3.682s0.727-2.313,1.332-3.314c0.604-1,1.387-1.85,2.35-2.549c0.965-0.699,2.145-1.143,3.541-1.332
		c1.17-0.15,2.342-0.084,3.514,0.199c1.17,0.283,2.227,0.764,3.172,1.443c0.943,0.68,1.736,1.549,2.379,2.607
		c0.643,1.057,1.057,2.285,1.246,3.682C295.927,84.029,295.775,84.463,295.398,84.689z M285.427,78.287
		c-0.756,0.152-1.406,0.426-1.953,0.822c-0.549,0.396-1.012,0.859-1.389,1.389c-0.379,0.529-0.672,1.123-0.879,1.783
		c-0.207,0.662-0.35,1.352-0.424,2.068c2.152,0,4.201-0.17,6.146-0.51s3.955-0.736,6.033-1.189c-0.15-0.717-0.443-1.389-0.879-2.012
		c-0.434-0.623-0.982-1.141-1.643-1.557s-1.416-0.699-2.266-0.852C287.326,78.08,286.41,78.1,285.427,78.287z"/>
	<path fill="#58167D" stroke="#58167D" stroke-miterlimit="10" d="M302.31,92.168c0.566,0.566,1.396,1.01,2.492,1.33
		c1.096,0.322,2.189,0.463,3.285,0.426s2.059-0.264,2.891-0.68c0.83-0.416,1.246-1.076,1.246-1.982c0-0.83-0.275-1.473-0.822-1.926
		s-1.236-0.822-2.068-1.105c-0.83-0.283-1.736-0.529-2.719-0.736s-1.896-0.482-2.748-0.822c-0.85-0.34-1.586-0.793-2.209-1.359
		s-0.973-1.359-1.047-2.379c-0.076-1.057,0.074-1.982,0.453-2.775c0.377-0.793,0.896-1.465,1.557-2.012s1.416-0.963,2.268-1.246
		c0.85-0.283,1.727-0.463,2.633-0.539c1.283-0.074,2.494,0.143,3.627,0.652s2,1.199,2.605,2.068c0.227,0.34,0.301,0.67,0.227,0.99
		c-0.076,0.322-0.236,0.576-0.482,0.766s-0.537,0.264-0.877,0.227s-0.662-0.227-0.963-0.566c-0.492-0.529-1.133-0.936-1.926-1.219
		c-0.795-0.283-1.607-0.387-2.438-0.311c-1.057,0.113-1.982,0.443-2.775,0.99c-0.793,0.549-1.172,1.313-1.133,2.295
		c0,0.643,0.293,1.123,0.883,1.445c0.588,0.32,1.328,0.613,2.219,0.877c0.893,0.266,1.842,0.529,2.846,0.793
		c1.006,0.266,1.938,0.633,2.791,1.105s1.555,1.096,2.105,1.869c0.551,0.775,0.807,1.805,0.77,3.088
		c-0.037,1.02-0.35,1.889-0.938,2.605c-0.588,0.719-1.328,1.285-2.219,1.699c-0.893,0.416-1.887,0.699-2.986,0.85
		s-2.189,0.17-3.27,0.057s-2.086-0.348-3.014-0.707c-0.93-0.359-1.678-0.84-2.246-1.445c-0.34-0.34-0.492-0.717-0.453-1.133
		c0.037-0.416,0.178-0.766,0.424-1.049s0.557-0.453,0.936-0.51C301.611,91.742,301.97,91.865,302.31,92.168z"/>
</g>
<g>
	<path fill="#C2C3C9" d="M76.439,115.035c-0.232-0.002-0.473-0.011-0.715-0.025c-1.084-0.071-2.18-0.35-3.257-0.828
		c-1.096-0.486-2.113-1.232-3.024-2.216c-0.908-0.981-1.649-2.264-2.202-3.813c-0.555-1.555-0.74-3.46-0.55-5.666
		c0.059-0.697,0.139-1.42,0.237-2.165c-0.516,0.722-1.045,1.429-1.587,2.118c-1.524,1.945-3.15,3.705-4.833,5.234
		c-1.689,1.534-3.469,2.861-5.292,3.943c-1.859,1.104-3.771,1.872-5.688,2.285c-0.697,0.152-1.453,0.226-2.246,0.219
		c-0.232-0.002-0.473-0.011-0.715-0.025c-1.084-0.07-2.181-0.35-3.257-0.828c-1.094-0.485-2.107-1.217-3.006-2.175
		c-0.902-0.959-1.651-2.256-2.221-3.854c-0.536-1.5-0.748-3.291-0.63-5.322c0.112-1.945,0.372-4.044,0.773-6.238
		c0.396-2.171,0.878-4.468,1.434-6.828c0.542-2.313,0.991-4.637,1.333-6.908c0.339-2.25,0.524-4.447,0.552-6.536
		c0.026-2.011-0.264-3.882-0.862-5.557c-0.943-2.645-2.767-4.478-5.579-5.602c-1.587-0.636-3.375-0.964-5.317-0.979
		c-1.557-0.013-3.252,0.177-5.037,0.563c-0.893,0.192-1.694,0.414-2.385,0.657c-0.703,0.249-1.344,0.507-1.901,0.766l-0.983,0.457
		l-0.465-1.306l0.026-0.228c0.231-2.021,0.918-3.95,2.042-5.734c1.006-1.546,2.53-3.083,4.539-4.579
		c2.03-1.512,4.906-2.678,8.55-3.465c1.929-0.416,3.77-0.621,5.473-0.607c1.475,0.012,2.886,0.188,4.194,0.521
		c2.792,0.715,5.237,1.844,7.267,3.355c2.018,1.502,3.688,3.229,4.963,5.134c1.257,1.88,2.191,3.661,2.774,5.297
		c0.882,2.475,1.179,5.323,0.882,8.467c-0.29,3.048-0.822,6.188-1.583,9.33c-0.76,3.134-1.624,6.208-2.571,9.142
		c-0.93,2.887-1.608,5.437-2.014,7.577c-0.386,2.032-0.424,3.582-0.111,4.606c0.096,0.32,0.259,0.631,1.078,0.637
		c0.296,0.003,0.645-0.039,1.038-0.123c0.356-0.078,1.174-0.424,2.646-1.868c1.215-1.191,2.504-2.748,3.831-4.624
		c1.337-1.893,2.682-4.07,4-6.475c1.315-2.402,2.473-4.885,3.439-7.371c0.961-2.474,1.664-4.957,2.086-7.379
		c0.414-2.377,0.455-4.563,0.123-6.498c-0.053-0.312-0.116-0.609-0.185-0.889c-0.07-0.275-0.151-0.539-0.236-0.782
		c-0.138-0.387-0.402-0.656-0.83-0.847l-1.11-0.492l0.709-0.986c0.458-0.637,1.007-1.248,1.629-1.815l0.018-0.015
		c0.578-0.504,1.306-1.012,2.162-1.511c0.898-0.522,1.997-0.927,3.268-1.202c0.667-0.145,1.326-0.215,1.962-0.211
		c1.312,0.012,2.561,0.343,3.709,0.985c1.709,0.96,2.874,2.282,3.464,3.934c0.877,2.465,1.22,5.294,1.015,8.41
		c-0.199,3.03-0.631,6.136-1.283,9.229c-0.645,3.065-1.352,6.075-2.101,8.942c-0.737,2.82-1.264,5.313-1.563,7.414
		c-0.284,1.971-0.236,3.467,0.142,4.447c0.128,0.33,0.358,0.639,1.182,0.645c0.31,0.003,0.673-0.041,1.078-0.128
		c2.353-0.509,4.283-1.862,5.896-4.136c1.688-2.379,3.221-5.408,4.554-9.004c1.351-3.644,2.625-7.793,3.787-12.332
		c1.172-4.586,2.507-9.367,3.967-14.214c1.461-4.856,3.183-9.749,5.118-14.54c1.948-4.83,4.392-9.336,7.26-13.391
		c2.886-4.08,6.384-7.66,10.394-10.645c4.042-3.006,8.948-5.148,14.579-6.367c3.214-0.693,6.375-1.035,9.396-1.011
		c0.179,0.002,0.358,0.003,0.537,0.009c3.193,0.07,6.103,0.486,8.65,1.238c2.571,0.76,4.789,1.817,6.59,3.145
		c1.869,1.381,3.14,2.988,3.78,4.781c0.401,1.126,0.585,2.203,0.545,3.204c-0.038,0.929-0.132,1.765-0.279,2.485
		c-0.184,0.863-0.461,1.672-0.828,2.409l-0.43,0.866l-0.875-0.412c-1.369-0.644-2.998-1.18-4.845-1.59
		c-1.562-0.324-3.542-0.528-5.87-0.604c-0.183-0.006-0.366-0.009-0.551-0.01c-2.17-0.018-4.625,0.267-7.297,0.844
		c-4.72,1.021-8.957,2.836-12.597,5.396c-3.672,2.584-7,5.709-9.891,9.285c-2.911,3.607-5.582,7.609-7.936,11.897
		c-2.376,4.325-4.685,8.78-6.86,13.237c-2.159,4.424-4.342,8.865-6.489,13.201c-2.145,4.33-4.472,8.336-6.916,11.904
		c-2.473,3.609-5.247,6.716-8.244,9.232c-3.057,2.565-6.582,4.293-10.478,5.135c-0.085,0.018-0.175,0.028-0.264,0.028
		c-0.129,0.048-0.275,0.089-0.44,0.124C77.986,114.969,77.23,115.041,76.439,115.035"/>
	<path fill="#C2C3C9" d="M76.528,115.535h-0.092c-0.241-0.002-0.491-0.012-0.741-0.026c-1.147-0.075-2.3-0.368-3.43-0.87
		c-1.158-0.515-2.231-1.299-3.188-2.333c-0.955-1.032-1.731-2.373-2.306-3.985c-0.579-1.623-0.773-3.6-0.577-5.877
		c0.009-0.107,0.019-0.216,0.029-0.324c-0.162,0.211-0.324,0.421-0.488,0.629c-1.541,1.967-3.186,3.748-4.89,5.295
		c-1.715,1.559-3.522,2.906-5.372,4.004c-1.905,1.131-3.869,1.92-5.837,2.345c-0.703,0.152-1.46,0.229-2.25,0.229h-0.105
		c-0.239-0.002-0.49-0.012-0.741-0.026c-1.144-0.074-2.297-0.366-3.43-0.87c-1.158-0.514-2.223-1.284-3.167-2.289
		c-0.952-1.013-1.735-2.368-2.327-4.029c-0.558-1.563-0.779-3.42-0.658-5.52c0.114-1.969,0.376-4.088,0.781-6.299
		c0.401-2.195,0.885-4.5,1.438-6.853c0.54-2.303,0.986-4.614,1.325-6.869c0.335-2.222,0.519-4.398,0.546-6.468
		c0.025-1.952-0.255-3.763-0.833-5.382c-0.893-2.503-2.624-4.237-5.294-5.306c-1.528-0.611-3.255-0.929-5.135-0.943h-0.143
		c-1.481,0-3.091,0.186-4.784,0.552c-0.866,0.187-1.648,0.401-2.325,0.64c-0.688,0.243-1.312,0.494-1.856,0.748l-1.48,0.688
		l-0.688-1.932l0.039-0.342c0.24-2.098,0.952-4.098,2.116-5.945c1.04-1.598,2.607-3.182,4.663-4.714
		c2.089-1.555,5.031-2.75,8.743-3.552c1.903-0.412,3.724-0.619,5.413-0.619h0.17c1.516,0.012,2.967,0.193,4.314,0.537
		c2.856,0.732,5.36,1.889,7.441,3.439c2.064,1.535,3.773,3.305,5.08,5.256c1.283,1.918,2.235,3.738,2.83,5.407
		c0.907,2.544,1.212,5.464,0.908,8.682c-0.292,3.074-0.828,6.237-1.594,9.401c-0.764,3.15-1.632,6.238-2.581,9.178
		c-0.925,2.869-1.597,5.398-1.998,7.516c-0.371,1.953-0.413,3.422-0.125,4.367c0.051,0.17,0.084,0.279,0.603,0.283
		c0,0,0.001,0,0.001,0c0.276,0,0.582-0.037,0.928-0.112c0.19-0.041,0.926-0.288,2.402-1.735c1.192-1.17,2.462-2.702,3.773-4.557
		c1.326-1.877,2.661-4.039,3.969-6.426c1.305-2.383,2.453-4.843,3.412-7.312c0.95-2.446,1.644-4.896,2.06-7.284
		c0.404-2.32,0.445-4.449,0.123-6.328c-0.051-0.299-0.112-0.585-0.178-0.854c-0.065-0.256-0.142-0.506-0.223-0.736
		c-0.09-0.254-0.258-0.42-0.561-0.555l-1.672-0.742l1.069-1.486c0.476-0.662,1.048-1.299,1.698-1.893
		c0.625-0.543,1.378-1.07,2.265-1.587c0.943-0.55,2.092-0.974,3.415-1.259c0.679-0.147,1.355-0.223,2.011-0.223
		c1.458,0.012,2.786,0.365,4.01,1.049c1.816,1.02,3.058,2.434,3.691,4.201c0.901,2.532,1.252,5.43,1.043,8.611
		c-0.201,3.053-0.636,6.181-1.293,9.299c-0.646,3.069-1.354,6.086-2.106,8.967c-0.734,2.809-1.256,5.284-1.552,7.357
		c-0.272,1.885-0.233,3.297,0.113,4.197c0.058,0.149,0.124,0.32,0.719,0.324h0.001c0.292,0,0.609-0.039,0.967-0.117
		c2.227-0.48,4.057-1.769,5.594-3.936c1.665-2.346,3.176-5.336,4.493-8.889c1.346-3.63,2.615-7.762,3.771-12.283
		c1.171-4.582,2.508-9.371,3.972-14.232c1.467-4.877,3.194-9.783,5.134-14.584c1.961-4.862,4.422-9.402,7.315-13.492
		c2.915-4.119,6.448-7.738,10.503-10.756c4.1-3.05,9.07-5.222,14.771-6.455c3.145-0.68,6.242-1.023,9.205-1.023l0.849,0.01
		c3.233,0.07,6.188,0.494,8.778,1.259c2.628,0.776,4.898,1.86,6.746,3.222c1.95,1.44,3.28,3.128,3.954,5.016
		c0.423,1.188,0.616,2.328,0.574,3.393c-0.039,0.956-0.136,1.818-0.289,2.564c-0.192,0.907-0.485,1.758-0.87,2.532l-0.647,1.304
		l-1.318-0.619c-1.338-0.63-2.933-1.152-4.741-1.555c-1.531-0.318-3.478-0.518-5.778-0.592c-0.179-0.006-0.357-0.009-0.538-0.01
		l-0.188-0.001c-2.087,0-4.442,0.28-7.001,0.834c-4.652,1.005-8.829,2.794-12.415,5.317c-3.634,2.557-6.928,5.648-9.79,9.189
		c-2.896,3.59-5.549,7.567-7.886,11.824c-2.373,4.317-4.677,8.764-6.849,13.216c-2.159,4.425-4.342,8.866-6.49,13.203
		c-2.157,4.354-4.495,8.38-6.951,11.966c-2.498,3.645-5.302,6.785-8.334,9.332c-3.121,2.619-6.719,4.383-10.694,5.241
		c-0.094,0.02-0.186,0.032-0.276,0.036c-0.128,0.044-0.27,0.082-0.427,0.116C78.086,115.458,77.325,115.535,76.528,115.535z
		 M67.686,98.404l-0.261,1.982c-0.097,0.736-0.176,1.453-0.235,2.143c-0.184,2.133-0.008,3.969,0.522,5.455
		c0.53,1.484,1.235,2.709,2.099,3.642c0.864,0.934,1.826,1.64,2.859,2.099c1.022,0.454,2.061,0.719,3.087,0.786
		c0.23,0.015,0.463,0.022,0.687,0.024l0.084,0.5v-0.5c0.726,0,1.417-0.069,2.053-0.207c0.14-0.03,0.263-0.064,0.372-0.104
		l0.173-0.031c0.051,0,0.107-0.006,0.162-0.018c3.811-0.823,7.263-2.515,10.258-5.028c2.963-2.488,5.707-5.561,8.152-9.132
		c2.43-3.548,4.744-7.532,6.88-11.844c2.146-4.335,4.33-8.776,6.488-13.198c2.179-4.467,4.491-8.928,6.871-13.26
		c2.364-4.307,5.051-8.334,7.984-11.97c2.92-3.614,6.282-6.77,9.992-9.38c3.695-2.6,7.995-4.443,12.779-5.477
		c2.627-0.568,5.054-0.856,7.212-0.856l0.194,0.001c0.188,0.001,0.376,0.004,0.563,0.011c2.358,0.075,4.361,0.282,5.956,0.612
		c1.887,0.42,3.552,0.967,4.957,1.628l0.432,0.203l0.212-0.427c0.348-0.699,0.612-1.471,0.787-2.292
		c0.141-0.689,0.231-1.499,0.269-2.401c0.037-0.935-0.136-1.949-0.517-3.016c-0.605-1.697-1.818-3.227-3.605-4.547
		c-1.753-1.292-3.918-2.324-6.435-3.067c-2.506-0.739-5.372-1.149-8.52-1.218l-0.824-0.01c-2.892,0-5.918,0.336-8.993,1.001
		c-5.562,1.203-10.402,3.315-14.386,6.28c-3.97,2.955-7.43,6.498-10.284,10.531c-2.848,4.027-5.272,8.498-7.205,13.288
		c-1.928,4.772-3.645,9.65-5.103,14.497c-1.461,4.85-2.793,9.625-3.961,14.193c-1.165,4.555-2.444,8.721-3.802,12.383
		c-1.347,3.635-2.9,6.703-4.615,9.119c-1.689,2.381-3.716,3.799-6.199,4.336c-0.428,0.092-0.816,0.139-1.154,0.139
		c-0.903-0.007-1.426-0.313-1.677-0.965c-0.409-1.063-0.466-2.644-0.17-4.699c0.301-2.109,0.831-4.623,1.575-7.469
		c0.748-2.864,1.453-5.865,2.095-8.918c0.647-3.073,1.076-6.154,1.273-9.158c0.2-3.046-0.132-5.809-0.987-8.211
		c-0.549-1.533-1.638-2.767-3.238-3.664c-1.075-0.602-2.242-0.911-3.469-0.922c-0.001,0-0.002,0-0.003,0
		c-0.635,0-1.24,0.067-1.849,0.199c-1.22,0.264-2.27,0.649-3.123,1.146c-0.832,0.484-1.534,0.975-2.085,1.455
		c-0.608,0.554-1.133,1.139-1.569,1.744l-0.35,0.488l0.548,0.242c0.554,0.246,0.913,0.618,1.098,1.137
		c0.09,0.258,0.175,0.535,0.25,0.825c0.073,0.295,0.139,0.604,0.194,0.929c0.341,1.99,0.3,4.234-0.124,6.668
		c-0.428,2.452-1.139,4.967-2.113,7.475c-0.975,2.509-2.141,5.008-3.467,7.43c-1.326,2.42-2.682,4.615-4.03,6.523
		c-1.346,1.902-2.654,3.481-3.889,4.691c-1.485,1.457-2.392,1.893-2.891,2c-0.417,0.09-0.793,0.135-1.119,0.135
		c-1.144-0.008-1.444-0.535-1.582-0.994c-0.336-1.098-0.303-2.729,0.099-4.842c0.408-2.158,1.091-4.728,2.029-7.638
		c0.941-2.916,1.803-5.979,2.561-9.106c0.754-3.117,1.283-6.232,1.571-9.26c0.29-3.07,0.002-5.847-0.855-8.251
		c-0.567-1.593-1.481-3.337-2.718-5.187c-1.243-1.857-2.873-3.543-4.846-5.012c-1.977-1.471-4.363-2.572-7.092-3.271
		c-1.268-0.324-2.639-0.494-4.074-0.506h-0.162c-1.618,0-3.368,0.2-5.202,0.596c-3.571,0.772-6.383,1.908-8.357,3.377
		c-1.96,1.461-3.447,2.959-4.418,4.451c-1.079,1.714-1.741,3.572-1.964,5.519l-0.013,0.112l0.242,0.68l0.485-0.227
		c0.573-0.266,1.228-0.529,1.945-0.783c0.717-0.252,1.54-0.479,2.446-0.674c1.762-0.381,3.443-0.574,4.995-0.574h0.151
		c2.005,0.016,3.855,0.357,5.499,1.016c2.952,1.18,4.87,3.109,5.864,5.897c0.618,1.731,0.918,3.659,0.891,5.731
		c-0.028,2.114-0.216,4.336-0.557,6.604c-0.344,2.281-0.795,4.619-1.341,6.949c-0.55,2.336-1.031,4.625-1.429,6.803
		c-0.397,2.171-0.655,4.249-0.766,6.177c-0.113,1.965,0.089,3.689,0.602,5.126c0.545,1.531,1.256,2.769,2.114,3.68
		c0.853,0.908,1.81,1.602,2.845,2.061c1.024,0.455,2.063,0.72,3.086,0.786c0.23,0.015,0.462,0.022,0.686,0.024
		c0.003,0,0.005,0,0.008,0c0.813,0,1.497-0.07,2.129-0.207c1.863-0.402,3.727-1.151,5.538-2.227c1.792-1.064,3.545-2.371,5.21-3.885
		c1.663-1.51,3.27-3.25,4.776-5.172c0.538-0.685,1.063-1.385,1.574-2.101L67.686,98.404z"/>
</g>
</svg>
