<?xml version="1.0" encoding="utf-8"?>
<!-- Generator: Adobe Illustrator 16.0.0, SVG Export Plug-In . SVG Version: 6.00 Build 0)  -->
<!DOCTYPE svg PUBLIC "-//W3C//DTD SVG 1.1//EN" "http://www.w3.org/Graphics/SVG/1.1/DTD/svg11.dtd">
<svg version="1.1" id="Capa_1" xmlns="http://www.w3.org/2000/svg" xmlns:xlink="http://www.w3.org/1999/xlink" x="0px" y="0px"
	 width="456.441px" height="134.043px" viewBox="0 0 456.441 134.043" enable-background="new 0 0 456.441 134.043"
	 xml:space="preserve">
<path fill="#FFFFFF" stroke="#C2C3C9" stroke-width="3" stroke-miterlimit="10" d="M442.941,50.421H179.87
	c1.541-1.392,2.855-3.083,3.833-5.054l0.644-1.297c1.022-2.057,1.788-4.268,2.276-6.571c0.009-0.042,0.018-0.083,0.026-0.124
	c0.334-1.637,0.542-3.411,0.619-5.291c0.13-3.248-0.391-6.54-1.548-9.785c-1.805-5.059-5.218-9.548-9.882-12.992
	c-3.444-2.539-7.488-4.504-12.025-5.844c-4.033-1.189-8.479-1.846-13.215-1.95c-0.063-0.001-1.162-0.013-1.224-0.013
	c-4.168,0-8.473,0.473-12.801,1.408c-8.091,1.75-15.266,4.924-21.33,9.435c-5.494,4.089-10.283,8.994-14.234,14.579
	c-3.653,5.165-6.75,10.868-9.199,16.941c-0.317,0.785-0.629,1.572-0.936,2.362c-3.625-1.933-7.566-2.929-11.722-2.961
	c-0.043,0-0.087,0-0.131,0c-1.863,0-3.751,0.204-5.608,0.606c-1.917,0.415-3.736,0.988-5.438,1.714
	c-1.869-2.179-4.015-4.173-6.412-5.958c-3.866-2.878-8.367-4.989-13.386-6.275c-2.677-0.685-5.5-1.043-8.477-1.067l-0.22,0
	c-2.895,0-5.924,0.337-9.005,1.003c-6.103,1.319-11.252,3.516-15.315,6.54c-3.671,2.736-6.617,5.79-8.754,9.075
	c-0.045,0.07-0.091,0.141-0.135,0.211c-2.535,4.024-4.09,8.422-4.626,13.107l-0.039,0.343c-0.289,2.572,0.012,5.176,0.881,7.613
	l0.688,1.931c1.606,4.507,5.037,8.128,9.45,9.976c2.104,0.881,4.337,1.32,6.57,1.32c1.288,0,2.576-0.146,3.836-0.438
	c-0.128,0.624-0.267,1.25-0.413,1.874c-0.619,2.628-1.162,5.216-1.614,7.691c-0.529,2.895-0.876,5.713-1.03,8.378
	c-0.253,4.387,0.292,8.498,1.617,12.209c1.384,3.884,3.39,7.24,5.951,9.963c2.506,2.668,5.42,4.75,8.663,6.191
	c2.973,1.32,6.078,2.092,9.307,2.302c0.563,0.034,1.125,0.054,1.685,0.057l0.186,0c1.999,0,3.968-0.207,5.837-0.612
	c2.84-0.613,5.629-1.595,8.325-2.928c1.212,0.804,2.483,1.502,3.807,2.09c2.969,1.32,6.074,2.095,9.317,2.307
	c0.55,0.033,1.098,0.052,1.68,0.057c0,0,0.149,0,0.178,0c2,0,3.97-0.206,5.876-0.618c0.119-0.025,0.237-0.052,0.355-0.08
	c0.063-0.012,0.281-0.058,0.328-0.067c6.706-1.449,12.773-4.422,18.042-8.842c2.765-2.322,5.367-4.973,7.785-7.907
	c0.043,0,0.085,0.006,0.128,0.006h333.899c6.627,0,12-5.373,12-12V62.421C454.941,55.794,449.568,50.421,442.941,50.421z"/>
<g>
	<g>
		<path fill="#A01127" d="M128.982,95.488c-0.135,0.337-0.387,0.497-0.757,0.48c-0.37-0.018-0.757-0.135-1.161-0.354
			s-0.757-0.496-1.061-0.834c-0.303-0.336-0.42-0.689-0.353-1.06l8.733-22.665c0.234-0.438,0.529-0.715,0.883-0.834
			c0.354-0.117,0.707-0.126,1.061-0.025c0.354,0.102,0.697,0.295,1.035,0.581c0.336,0.286,0.605,0.614,0.807,0.984
			c0.875,1.515,1.674,3.45,2.398,5.806c0.723,2.355,1.354,5.166,1.893,8.43c0.941-0.303,1.885-0.74,2.827-1.313
			s1.851-1.193,2.726-1.867c0.168-0.168,0.354-0.244,0.556-0.228c0.202,0.018,0.37,0.101,0.505,0.253
			c0.134,0.15,0.201,0.345,0.201,0.58c0,0.236-0.1,0.472-0.303,0.707c-0.471,0.438-0.967,0.816-1.488,1.135
			c-0.522,0.32-1.053,0.624-1.59,0.909c-0.539,0.286-1.078,0.573-1.616,0.858c-0.538,0.286-1.044,0.598-1.515,0.934
			c0,0.842-0.025,1.793-0.075,2.853c-0.051,1.06-0.169,2.112-0.354,3.155c-0.186,1.043-0.472,1.986-0.858,2.826
			c-0.387,0.842-0.9,1.447-1.539,1.817c-0.809,0.472-1.625,0.698-2.449,0.682s-1.59-0.194-2.297-0.53
			c-0.706-0.336-1.32-0.799-1.842-1.388c-0.522-0.589-0.884-1.212-1.086-1.868c-0.201-0.656-0.21-1.329-0.025-2.02
			c0.186-0.689,0.632-1.303,1.338-1.842c0.842-0.639,1.852-1.329,3.029-2.07c1.178-0.74,2.49-1.581,3.938-2.523
			c0-1.279-0.135-2.617-0.404-4.014s-0.598-2.742-0.984-4.038s-0.791-2.456-1.211-3.483c-0.422-1.025-0.8-1.809-1.136-2.348
			L128.982,95.488z M138.978,97.306c0.471-0.303,0.832-0.815,1.085-1.54c0.253-0.723,0.437-1.514,0.556-2.372
			c0.117-0.858,0.184-1.698,0.201-2.524c0.017-0.824,0.025-1.471,0.025-1.943c-0.605,0.303-1.254,0.656-1.943,1.061
			s-1.346,0.808-1.969,1.211c-0.623,0.404-1.187,0.801-1.691,1.188c-0.504,0.387-0.857,0.715-1.06,0.984
			c-0.371,0.471-0.454,1.018-0.253,1.64c0.202,0.624,0.556,1.179,1.061,1.666c0.505,0.488,1.118,0.816,1.842,0.984
			C137.556,97.828,138.271,97.71,138.978,97.306z"/>
		<path fill="#A01127" d="M150.285,71.914c0.102-0.234,0.354-0.387,0.758-0.454s0.815-0.051,1.236,0.05
			c0.421,0.102,0.783,0.262,1.086,0.48s0.404,0.463,0.303,0.731c-0.404,1.245-0.833,2.685-1.287,4.316
			c-0.455,1.633-0.884,3.315-1.287,5.048c-0.404,1.734-0.758,3.433-1.061,5.099s-0.497,3.173-0.58,4.519
			c-0.085,1.346-0.043,2.439,0.126,3.281c0.168,0.841,0.521,1.295,1.06,1.362c0.639,0,1.271-0.243,1.894-0.731
			c0.622-0.488,1.22-1.111,1.792-1.868s1.11-1.599,1.615-2.524c0.505-0.925,0.976-1.85,1.414-2.775
			c0.437-0.926,0.814-1.801,1.135-2.625s0.598-1.506,0.834-2.045c0.234-0.639,0.504-1.489,0.807-2.549
			c0.303-1.061,0.606-2.137,0.909-3.231c0.303-1.093,0.581-2.128,0.833-3.104c0.252-0.976,0.43-1.717,0.529-2.221
			c0.236-0.303,0.472-0.488,0.707-0.556s0.438-0.051,0.605,0.05c0.168,0.102,0.295,0.253,0.379,0.455
			c0.084,0.201,0.109,0.404,0.076,0.605c-0.404,1.615-0.833,3.307-1.287,5.073c-0.455,1.767-0.876,3.509-1.262,5.226
			c-0.388,1.716-0.732,3.349-1.035,4.896s-0.53,2.928-0.682,4.139c-0.151,1.212-0.202,2.213-0.151,3.004
			c0.05,0.791,0.243,1.254,0.581,1.389c0.471,0.201,0.949,0.143,1.438-0.178c0.488-0.318,0.984-0.824,1.49-1.514
			c0.504-0.689,1-1.522,1.488-2.499c0.488-0.976,0.941-2.002,1.363-3.079c0.42-1.077,0.791-2.171,1.11-3.281
			c0.319-1.111,0.581-2.137,0.782-3.08c0.102-0.336,0.253-0.588,0.455-0.757c0.201-0.168,0.412-0.243,0.631-0.228
			c0.219,0.018,0.404,0.119,0.555,0.303c0.152,0.186,0.211,0.447,0.178,0.783c-0.068,0.572-0.236,1.405-0.506,2.498
			c-0.27,1.095-0.639,2.265-1.11,3.51c-0.472,1.244-1.019,2.498-1.641,3.76c-0.623,1.262-1.313,2.356-2.069,3.281
			c-0.758,0.926-1.557,1.607-2.398,2.045s-1.716,0.454-2.625,0.051c-0.572-0.236-0.967-0.656-1.186-1.263
			c-0.22-0.605-0.346-1.278-0.379-2.019s-0.018-1.48,0.051-2.222c0.066-0.739,0.117-1.362,0.151-1.868
			c-0.304,0.539-0.731,1.263-1.288,2.172c-0.555,0.908-1.194,1.783-1.918,2.624c-0.724,0.842-1.523,1.515-2.397,2.02
			c-0.876,0.505-1.784,0.622-2.726,0.354c-1.212-0.337-2.07-1.161-2.574-2.474c-0.506-1.313-0.775-2.869-0.809-4.67
			c-0.033-1.8,0.117-3.727,0.455-5.779c0.336-2.053,0.723-3.996,1.16-5.831c0.438-1.833,0.875-3.449,1.313-4.846
			S150.083,72.419,150.285,71.914z"/>
		<path fill="#A01127" d="M168.509,97.356c-0.068,0.303-0.203,0.522-0.404,0.656c-0.202,0.135-0.422,0.202-0.656,0.202
			c-0.236,0-0.463-0.084-0.682-0.253c-0.219-0.168-0.346-0.403-0.379-0.706c0.033-0.336,0.102-1.068,0.202-2.196
			c0.101-1.127,0.219-2.474,0.354-4.038c0.134-1.565,0.294-3.256,0.479-5.074c0.185-1.816,0.361-3.592,0.53-5.325
			c0.168-1.733,0.345-3.323,0.53-4.771c0.184-1.446,0.344-2.591,0.479-3.433c0.068-0.336,0.278-0.571,0.632-0.706
			c0.353-0.135,0.739-0.186,1.161-0.152c0.42,0.034,0.808,0.145,1.16,0.328c0.354,0.186,0.581,0.412,0.682,0.682h0.051v0.051
			c0.235,0.774,0.58,1.438,1.035,1.994c0.454,0.555,0.934,1.01,1.438,1.363c0.505,0.353,1.001,0.598,1.489,0.731
			c0.487,0.135,0.883,0.185,1.187,0.151c0.437-0.066,0.799-0.042,1.085,0.076c0.285,0.117,0.43,0.529,0.43,1.236
			c-0.135,1.145-0.313,2.381-0.53,3.711c-0.22,1.329-0.421,2.658-0.606,3.987c-0.186,1.33-0.32,2.608-0.403,3.837
			c-0.085,1.229-0.06,2.33,0.075,3.307s0.387,1.766,0.758,2.372c0.369,0.605,0.941,0.959,1.717,1.06
			c0.605,0.068,1.219-0.219,1.842-0.857s1.203-1.54,1.742-2.701c0.537-1.16,1.043-2.516,1.514-4.063s0.858-3.181,1.161-4.896
			c0.033-0.336,0.159-0.571,0.379-0.707c0.218-0.134,0.445-0.192,0.681-0.177c0.236,0.018,0.43,0.109,0.581,0.277
			c0.151,0.17,0.21,0.371,0.177,0.606c-0.674,2.356-1.313,4.476-1.918,6.36s-1.262,3.45-1.969,4.695
			c-0.707,1.244-1.498,2.145-2.373,2.7s-1.885,0.664-3.028,0.328c-0.977-0.269-1.717-0.774-2.222-1.515
			c-0.504-0.74-0.842-1.632-1.01-2.676c-0.168-1.043-0.21-2.195-0.125-3.457c0.083-1.262,0.227-2.558,0.428-3.887
			c0.203-1.33,0.404-2.65,0.606-3.963s0.336-2.541,0.403-3.686c-0.605,0.068-1.152,0.009-1.641-0.177
			c-0.488-0.185-0.951-0.429-1.388-0.731c-0.438-0.303-0.825-0.648-1.161-1.035c-0.337-0.387-0.656-0.748-0.959-1.086
			c-0.505,2.154-0.951,4.385-1.338,6.689s-0.725,4.459-1.01,6.461c-0.286,2.003-0.529,3.762-0.732,5.275
			C168.761,95.741,168.61,96.785,168.509,97.356z"/>
		<path fill="#A01127" d="M185.268,72.924c0.134-0.404,0.462-0.732,0.984-0.984c0.521-0.252,1.018-0.379,1.489-0.379
			c0.572,0,0.908,0.202,1.01,0.605l1.211,22.516c1.918-4.409,3.584-8.439,4.998-12.091c1.413-3.651,2.557-7.009,3.433-10.071
			c0.269-0.369,0.589-0.555,0.959-0.555c0.269,0,0.496,0.093,0.682,0.277c0.185,0.186,0.261,0.463,0.228,0.833
			c-0.068,0.169-0.135,0.379-0.203,0.631c-0.066,0.253-0.117,0.514-0.15,0.782c-0.135,0.909-0.186,1.986-0.152,3.23
			c0.033,1.246,0.16,2.441,0.379,3.585c0.219,1.145,0.538,2.112,0.959,2.902c0.421,0.792,0.967,1.187,1.641,1.187
			c0.909,0,2.036-0.841,3.383-2.523c0.168-0.236,0.361-0.361,0.58-0.379s0.412,0.025,0.58,0.126s0.286,0.244,0.354,0.429
			c0.067,0.186,0.018,0.396-0.15,0.631c-0.271,0.371-0.599,0.758-0.984,1.162c-0.388,0.403-0.791,0.766-1.212,1.084
			c-0.421,0.32-0.842,0.581-1.263,0.783c-0.421,0.201-0.832,0.303-1.236,0.303c-1.11-0.033-2.12-0.639-3.029-1.817
			c-0.908-1.177-1.48-2.978-1.716-5.401c-0.538,1.211-1.128,2.65-1.767,4.316c-0.64,1.666-1.296,3.349-1.969,5.048
			c-0.674,1.7-1.321,3.315-1.943,4.847c-0.623,1.531-1.17,2.768-1.641,3.71c-0.505,0.337-0.977,0.505-1.414,0.505
			c-0.539,0-0.857-0.27-0.959-0.809L185.268,72.924z"/>
		<path fill="#A01127" d="M207.076,73.378c0.202-0.505,0.48-0.849,0.833-1.034c0.354-0.186,0.698-0.253,1.035-0.202
			c0.336,0.05,0.613,0.185,0.833,0.403c0.219,0.22,0.311,0.497,0.277,0.833c-0.068,0.539-0.186,1.212-0.354,2.02
			s-0.371,1.7-0.605,2.675c-0.236,0.977-0.472,2.02-0.707,3.131c-0.236,1.109-0.454,2.221-0.656,3.331
			c-0.236,1.38-0.421,2.726-0.555,4.038c-0.135,1.313-0.169,2.508-0.102,3.584c0.067,1.078,0.26,2.004,0.58,2.777
			c0.32,0.774,0.816,1.295,1.49,1.564c0.504,0.135,1.025-0.008,1.564-0.429c0.538-0.421,1.076-1.01,1.615-1.767
			c0.538-0.758,1.061-1.648,1.564-2.676c0.506-1.026,0.977-2.096,1.414-3.205c0.404-0.977,0.824-1.952,1.262-2.928
			c0.438-0.977,0.773-1.885,1.01-2.727c0.135-0.303,0.311-0.496,0.53-0.58c0.218-0.084,0.421-0.093,0.605-0.025
			s0.337,0.201,0.454,0.403c0.118,0.202,0.127,0.472,0.025,0.808c-0.27,0.707-0.614,1.582-1.035,2.625
			c-0.42,1.044-0.866,2.154-1.337,3.332c-0.472,1.211-0.993,2.406-1.565,3.584s-1.186,2.221-1.842,3.13s-1.363,1.615-2.121,2.12
			c-0.757,0.505-1.557,0.673-2.397,0.505c-1.347-0.235-2.372-0.824-3.079-1.767c-0.707-0.941-1.187-2.104-1.439-3.483
			c-0.252-1.38-0.319-2.894-0.201-4.544c0.117-1.648,0.311-3.297,0.58-4.946c0.202-1.11,0.412-2.188,0.631-3.231
			c0.219-1.042,0.438-2.026,0.656-2.953c0.219-0.925,0.421-1.758,0.606-2.498C206.832,74.506,206.975,73.883,207.076,73.378z
			 M209.853,68.684c-0.506-0.135-0.877-0.354-1.111-0.656c-0.236-0.303-0.354-0.639-0.354-1.01c-0.033-0.471,0.127-0.916,0.48-1.338
			c0.353-0.42,0.832-0.631,1.438-0.631c0.606,0,1.01,0.244,1.212,0.732s0.253,0.984,0.151,1.488
			c-0.101,0.473-0.312,0.859-0.631,1.162C210.718,68.734,210.324,68.818,209.853,68.684z"/>
		<path fill="#A01127" d="M215.809,72.924c0.134-0.404,0.462-0.732,0.984-0.984c0.521-0.252,1.018-0.379,1.489-0.379
			c0.572,0,0.908,0.202,1.01,0.605l1.211,22.516c1.918-4.409,3.584-8.439,4.998-12.091c1.413-3.651,2.557-7.009,3.433-10.071
			c0.269-0.369,0.589-0.555,0.959-0.555c0.269,0,0.496,0.093,0.682,0.277c0.185,0.186,0.261,0.463,0.228,0.833
			c-0.068,0.169-0.135,0.379-0.203,0.631c-0.066,0.253-0.117,0.514-0.15,0.782c-0.135,0.909-0.186,1.986-0.152,3.23
			c0.033,1.246,0.16,2.441,0.379,3.585c0.219,1.145,0.538,2.112,0.959,2.902c0.421,0.792,0.967,1.187,1.641,1.187
			c0.909,0,2.036-0.841,3.383-2.523c0.168-0.236,0.361-0.361,0.58-0.379s0.412,0.025,0.58,0.126s0.286,0.244,0.354,0.429
			c0.067,0.186,0.018,0.396-0.15,0.631c-0.271,0.371-0.599,0.758-0.984,1.162c-0.388,0.403-0.791,0.766-1.212,1.084
			c-0.421,0.32-0.842,0.581-1.263,0.783c-0.421,0.201-0.832,0.303-1.236,0.303c-1.11-0.033-2.12-0.639-3.029-1.817
			c-0.908-1.177-1.48-2.978-1.716-5.401c-0.538,1.211-1.128,2.65-1.767,4.316c-0.64,1.666-1.296,3.349-1.969,5.048
			c-0.674,1.7-1.321,3.315-1.943,4.847c-0.623,1.531-1.17,2.768-1.641,3.71c-0.505,0.337-0.977,0.505-1.414,0.505
			c-0.539,0-0.857-0.27-0.959-0.809L215.809,72.924z"/>
		<path fill="#A01127" d="M238.676,98.063c-1.347-0.201-2.372-0.899-3.079-2.094c-0.707-1.195-1.11-2.668-1.211-4.418
			c-0.102-1.749,0.075-3.625,0.529-5.629c0.455-2.001,1.169-3.912,2.146-5.729c0.841-1.548,1.784-2.92,2.827-4.115
			c1.043-1.193,2.111-2.152,3.205-2.877c1.094-0.723,2.204-1.186,3.332-1.388c1.127-0.202,2.195-0.118,3.205,0.252
			c0.572,0.202,0.977,0.53,1.212,0.984s0.37,0.968,0.403,1.54s-0.008,1.186-0.125,1.842c-0.119,0.656-0.245,1.305-0.379,1.943
			c-0.102,0.506-0.262,1.154-0.48,1.944c-0.219,0.791-0.445,1.59-0.682,2.397c-0.235,0.809-0.453,1.564-0.656,2.271
			c-0.201,0.707-0.353,1.212-0.453,1.515c-0.236,1.01-0.438,2.069-0.606,3.181c-0.169,1.11-0.244,2.145-0.228,3.104
			c0.018,0.959,0.144,1.784,0.379,2.474s0.623,1.136,1.161,1.338c0.437,0.168,0.925,0.059,1.464-0.328
			c0.538-0.387,1.086-0.942,1.641-1.666c0.556-0.724,1.111-1.59,1.666-2.6s1.086-2.053,1.59-3.131
			c0.506-1.076,0.977-2.152,1.414-3.23c0.437-1.076,0.824-2.069,1.16-2.979c0.168-0.571,0.455-0.832,0.859-0.781
			c0.403,0.05,0.639,0.428,0.706,1.135c-0.303,0.809-0.681,1.785-1.136,2.928c-0.454,1.145-0.951,2.322-1.489,3.534
			s-1.136,2.397-1.792,3.56c-0.656,1.16-1.338,2.17-2.045,3.028c-0.706,0.858-1.455,1.522-2.246,1.993
			c-0.791,0.472-1.59,0.623-2.397,0.455c-0.505-0.102-0.942-0.361-1.313-0.783c-0.37-0.42-0.665-0.934-0.884-1.539
			s-0.379-1.279-0.479-2.02s-0.151-1.48-0.151-2.221c-0.337,0.605-0.74,1.287-1.211,2.045c-0.473,0.757-1.002,1.455-1.591,2.094
			c-0.589,0.641-1.236,1.154-1.943,1.54C240.292,98.021,239.517,98.164,238.676,98.063z M239.03,95.842
			c0.808,0.068,1.624-0.336,2.448-1.211s1.615-2.002,2.373-3.383c0.757-1.379,1.455-2.919,2.095-4.619
			c0.639-1.699,1.161-3.34,1.565-4.922c0.234-0.908,0.453-1.799,0.656-2.676c0.201-0.874,0.353-1.673,0.453-2.396
			c0.102-0.725,0.144-1.346,0.127-1.868c-0.018-0.521-0.094-0.884-0.228-1.085c-0.403-0.404-0.976-0.446-1.716-0.127
			c-0.741,0.32-1.557,0.867-2.449,1.641c-0.892,0.775-1.775,1.75-2.649,2.928c-0.876,1.179-1.633,2.424-2.272,3.736
			c-0.706,1.48-1.236,3.028-1.59,4.644c-0.354,1.616-0.539,3.104-0.555,4.468c-0.018,1.363,0.126,2.508,0.429,3.433
			C238.02,95.329,238.457,95.809,239.03,95.842z"/>
		<path fill="#A01127" d="M266.845,62.07c1.109,0.303,1.824,1.053,2.145,2.246c0.32,1.195,0.37,2.625,0.152,4.291
			c-0.22,1.666-0.666,3.467-1.338,5.402c-0.674,1.936-1.473,3.819-2.398,5.653c-0.926,1.835-1.91,3.509-2.953,5.022
			c-1.043,1.515-2.053,2.676-3.028,3.483c0.032,0.505,0.075,1.229,0.126,2.171c0.051,0.942,0.202,1.867,0.454,2.776
			c0.253,0.909,0.647,1.69,1.187,2.347c0.538,0.656,1.313,0.951,2.322,0.884c1.278-0.067,2.363-0.556,3.256-1.464
			c0.891-0.908,1.641-2.011,2.246-3.307c0.605-1.295,1.102-2.658,1.489-4.089c0.387-1.43,0.715-2.7,0.984-3.812
			c0.134-0.336,0.312-0.555,0.53-0.656c0.219-0.101,0.43-0.126,0.631-0.075c0.202,0.05,0.354,0.169,0.455,0.353
			c0.1,0.186,0.1,0.396,0,0.632c-0.17,0.673-0.379,1.522-0.632,2.55c-0.253,1.026-0.572,2.086-0.959,3.18
			c-0.388,1.094-0.842,2.18-1.362,3.256c-0.523,1.078-1.145,2.037-1.869,2.877c-0.723,0.842-1.548,1.49-2.473,1.943
			c-0.926,0.455-1.961,0.614-3.104,0.48c-1.044-0.135-1.927-0.505-2.65-1.111c-0.724-0.605-1.321-1.388-1.792-2.347
			c-0.472-0.96-0.833-2.036-1.086-3.231c-0.252-1.193-0.429-2.439-0.529-3.734c-0.102-1.296-0.145-2.583-0.127-3.862
			c0.018-1.278,0.059-2.474,0.127-3.585c0.033-0.739,0.193-1.748,0.479-3.028c0.285-1.278,0.647-2.642,1.085-4.089
			c0.438-1.446,0.967-2.902,1.59-4.366s1.305-2.743,2.045-3.837s1.531-1.926,2.373-2.498
			C265.06,61.953,265.936,61.802,266.845,62.07z M266.239,63.988c-0.438-0.033-0.876,0.313-1.313,1.035
			c-0.438,0.725-0.876,1.691-1.313,2.902c-0.438,1.212-0.866,2.584-1.287,4.115s-0.808,3.104-1.161,4.719s-0.656,3.198-0.908,4.746
			c-0.253,1.548-0.447,2.911-0.581,4.088c1.11-1.277,2.103-2.691,2.979-4.24c0.875-1.547,1.632-3.121,2.271-4.719
			c0.64-1.599,1.144-3.146,1.515-4.645c0.37-1.498,0.613-2.835,0.732-4.014c0.117-1.178,0.101-2.128-0.051-2.852
			C266.97,64.401,266.675,64.022,266.239,63.988z"/>
		<path fill="#CB6120" d="M278.751,61.035h21.277v3.635h-17.566v11.637h17.416v3.634h-17.416v14.589h17.416v3.635h-21.127V61.035z"
			/>
		<path fill="#CB6120" d="M305.86,70.703h3.534v4.922c1.413-1.885,2.978-3.295,4.694-4.229c1.716-0.934,3.584-1.4,5.603-1.4
			c2.053,0,3.875,0.521,5.465,1.564c1.59,1.044,2.764,2.449,3.521,4.215c0.757,1.768,1.136,4.519,1.136,8.254v14.135h-3.534v-13.1
			c0-3.164-0.131-5.275-0.393-6.336c-0.41-1.816-1.195-3.184-2.356-4.102c-1.161-0.916-2.676-1.375-4.544-1.375
			c-2.137,0-4.052,0.707-5.742,2.12c-1.691,1.413-2.807,3.163-3.346,5.25c-0.336,1.362-0.504,3.854-0.504,7.472v10.07h-3.534V70.703
			z"/>
		<path fill="#CB6120" d="M361.06,70.703h3.533v21.883c0,3.854-0.336,6.672-1.01,8.455c-0.925,2.524-2.532,4.468-4.82,5.831
			c-2.289,1.362-5.039,2.044-8.254,2.044c-2.355,0-4.472-0.334-6.348-1c-1.877-0.666-3.403-1.561-4.581-2.683
			c-1.178-1.123-2.263-2.764-3.256-4.924h3.837c1.044,1.817,2.393,3.163,4.043,4.038s3.697,1.313,6.141,1.313
			c2.408,0,4.443-0.449,6.104-1.346c1.659-0.897,2.843-2.025,3.551-3.383c0.707-1.359,1.061-3.552,1.061-6.578v-1.414
			c-1.33,1.683-2.956,2.975-4.877,3.874c-1.92,0.9-3.958,1.351-6.113,1.351c-2.527,0-4.902-0.627-7.125-1.881
			c-2.225-1.253-3.941-2.939-5.154-5.061c-1.213-2.119-1.819-4.45-1.819-6.991c0-2.54,0.632-4.909,1.896-7.104
			c1.263-2.196,3.01-3.934,5.242-5.213c2.231-1.278,4.586-1.918,7.062-1.918c2.055,0,3.972,0.425,5.748,1.274
			c1.777,0.851,3.491,2.251,5.142,4.202V70.703z M350.636,73.403c-2.003,0-3.862,0.483-5.578,1.451
			c-1.717,0.968-3.063,2.306-4.039,4.013c-0.976,1.709-1.464,3.556-1.464,5.541c0,3.012,1.01,5.502,3.029,7.471
			c2.019,1.969,4.636,2.953,7.85,2.953c3.247,0,5.859-0.976,7.837-2.928c1.977-1.951,2.966-4.518,2.966-7.698
			c0-2.069-0.454-3.916-1.362-5.54c-0.909-1.623-2.197-2.906-3.862-3.85C354.346,73.875,352.554,73.403,350.636,73.403z"/>
		<path fill="#CB6120" d="M371.636,60.102h3.533v38.063h-3.533V60.102z"/>
		<path fill="#CB6120" d="M383.739,59.395c0.805,0,1.49,0.287,2.061,0.859s0.855,1.262,0.855,2.068c0,0.792-0.285,1.473-0.855,2.045
			s-1.256,0.858-2.061,0.858c-0.788,0-1.467-0.286-2.036-0.858s-0.854-1.253-0.854-2.045c0-0.807,0.285-1.496,0.854-2.068
			S382.951,59.395,383.739,59.395z M381.984,70.703h3.534v27.461h-3.534V70.703z"/>
		<path fill="#CB6120" d="M406.67,73.706l-2.271,2.348c-1.891-1.834-3.738-2.751-5.543-2.751c-1.146,0-2.131,0.379-2.947,1.136
			c-0.818,0.757-1.229,1.64-1.229,2.649c0,0.893,0.338,1.742,1.012,2.55c0.674,0.825,2.092,1.792,4.25,2.903
			c2.631,1.362,4.418,2.675,5.361,3.938c0.928,1.278,1.393,2.717,1.393,4.315c0,2.255-0.793,4.165-2.377,5.729
			s-3.564,2.348-5.941,2.348c-1.584,0-3.096-0.346-4.537-1.035s-2.633-1.641-3.576-2.852l2.221-2.524
			c1.805,2.036,3.719,3.054,5.742,3.054c1.418,0,2.623-0.454,3.619-1.363c0.994-0.908,1.492-1.977,1.492-3.205
			c0-1.01-0.33-1.91-0.986-2.701c-0.658-0.773-2.143-1.75-4.453-2.928c-2.479-1.278-4.164-2.54-5.059-3.785
			c-0.893-1.246-1.34-2.668-1.34-4.266c0-2.087,0.711-3.82,2.137-5.2c1.424-1.38,3.223-2.069,5.396-2.069
			C401.563,69.996,404.108,71.232,406.67,73.706z"/>
		<path fill="#CB6120" d="M412.928,60.102h3.533v15.523c1.431-1.885,3.004-3.295,4.721-4.229c1.716-0.934,3.575-1.4,5.578-1.4
			c2.053,0,3.874,0.521,5.464,1.564c1.591,1.044,2.764,2.445,3.521,4.203c0.757,1.758,1.136,4.514,1.136,8.266v14.135h-3.534v-13.1
			c0-3.164-0.126-5.275-0.378-6.336c-0.438-1.816-1.233-3.184-2.386-4.102c-1.152-0.916-2.662-1.375-4.53-1.375
			c-2.138,0-4.051,0.707-5.742,2.12s-2.806,3.163-3.345,5.25c-0.337,1.347-0.505,3.837-0.505,7.472v10.07h-3.533V60.102z"/>
	</g>
</g>
<g>
	<path fill="#C2C3C9" d="M76.439,115.035c-0.232-0.002-0.473-0.011-0.715-0.025c-1.084-0.071-2.18-0.35-3.257-0.829
		c-1.096-0.486-2.113-1.231-3.024-2.215c-0.908-0.981-1.649-2.264-2.202-3.813c-0.555-1.555-0.74-3.46-0.55-5.666
		c0.059-0.697,0.139-1.42,0.237-2.166c-0.516,0.721-1.045,1.428-1.587,2.118c-1.524,1.945-3.15,3.706-4.833,5.234
		c-1.689,1.535-3.469,2.862-5.292,3.943c-1.859,1.104-3.771,1.873-5.688,2.286c-0.697,0.151-1.453,0.225-2.246,0.218
		c-0.232-0.001-0.473-0.011-0.715-0.025c-1.084-0.07-2.181-0.35-3.257-0.828c-1.094-0.486-2.107-1.218-3.006-2.175
		c-0.902-0.959-1.651-2.256-2.221-3.854c-0.536-1.5-0.748-3.292-0.63-5.323c0.112-1.945,0.372-4.043,0.773-6.238
		c0.396-2.171,0.878-4.468,1.434-6.828c0.542-2.313,0.991-4.637,1.333-6.909c0.339-2.249,0.524-4.447,0.552-6.536
		c0.026-2.011-0.264-3.881-0.862-5.557c-0.943-2.645-2.767-4.477-5.579-5.602c-1.587-0.635-3.375-0.964-5.317-0.979
		c-1.557-0.013-3.252,0.177-5.037,0.563c-0.893,0.192-1.694,0.414-2.385,0.657c-0.703,0.249-1.344,0.507-1.901,0.766l-0.983,0.457
		l-0.465-1.305l0.026-0.228c0.231-2.021,0.918-3.95,2.042-5.734c1.006-1.546,2.53-3.083,4.539-4.58
		c2.03-1.511,4.906-2.677,8.55-3.464c1.929-0.417,3.77-0.622,5.473-0.607c1.475,0.012,2.886,0.187,4.194,0.521
		c2.792,0.715,5.237,1.844,7.267,3.355c2.018,1.502,3.688,3.229,4.963,5.134c1.257,1.88,2.191,3.662,2.774,5.297
		c0.882,2.475,1.179,5.323,0.882,8.467c-0.29,3.048-0.822,6.188-1.583,9.33c-0.76,3.134-1.624,6.208-2.571,9.142
		c-0.93,2.886-1.608,5.437-2.014,7.577c-0.386,2.032-0.424,3.582-0.111,4.606c0.096,0.32,0.259,0.632,1.078,0.638
		c0.296,0.002,0.645-0.039,1.038-0.124c0.356-0.077,1.174-0.423,2.646-1.868c1.215-1.191,2.504-2.748,3.831-4.624
		c1.337-1.893,2.682-4.071,4-6.475c1.315-2.403,2.473-4.884,3.439-7.371c0.961-2.474,1.664-4.958,2.086-7.379
		c0.414-2.377,0.455-4.563,0.123-6.499c-0.053-0.311-0.116-0.609-0.185-0.889c-0.07-0.275-0.151-0.539-0.236-0.782
		c-0.138-0.387-0.402-0.656-0.83-0.846l-1.11-0.493l0.709-0.986c0.458-0.637,1.007-1.247,1.629-1.815l0.018-0.015
		c0.578-0.503,1.306-1.011,2.162-1.511c0.898-0.523,1.997-0.927,3.268-1.202c0.667-0.145,1.326-0.215,1.962-0.21
		c1.312,0.011,2.561,0.342,3.709,0.985c1.709,0.959,2.874,2.283,3.464,3.934c0.877,2.465,1.22,5.294,1.015,8.41
		c-0.199,3.03-0.631,6.135-1.283,9.229c-0.645,3.066-1.352,6.075-2.101,8.942c-0.737,2.82-1.264,5.313-1.563,7.414
		c-0.284,1.972-0.236,3.467,0.142,4.447c0.128,0.331,0.358,0.639,1.182,0.645c0.31,0.003,0.673-0.041,1.078-0.128
		c2.353-0.509,4.283-1.862,5.896-4.136c1.688-2.379,3.221-5.408,4.554-9.003c1.351-3.644,2.625-7.794,3.787-12.333
		c1.172-4.585,2.507-9.367,3.967-14.213c1.461-4.857,3.183-9.75,5.118-14.541c1.948-4.83,4.392-9.335,7.26-13.39
		c2.886-4.08,6.384-7.66,10.394-10.644c4.042-3.007,8.948-5.149,14.579-6.367c3.214-0.694,6.375-1.035,9.396-1.011
		c0.179,0.002,0.358,0.003,0.537,0.008c3.193,0.07,6.103,0.487,8.65,1.239c2.571,0.759,4.789,1.817,6.59,3.145
		c1.869,1.38,3.14,2.988,3.78,4.781c0.401,1.126,0.585,2.204,0.545,3.204c-0.038,0.929-0.132,1.765-0.279,2.485
		c-0.184,0.864-0.461,1.672-0.828,2.41l-0.43,0.866l-0.875-0.411c-1.369-0.644-2.998-1.18-4.845-1.591
		c-1.562-0.324-3.542-0.528-5.87-0.603c-0.183-0.006-0.366-0.009-0.551-0.01c-2.17-0.018-4.625,0.267-7.297,0.844
		c-4.72,1.02-8.957,2.836-12.597,5.396c-3.672,2.584-7,5.708-9.891,9.285c-2.911,3.607-5.582,7.609-7.936,11.897
		c-2.376,4.325-4.685,8.78-6.86,13.238c-2.159,4.423-4.342,8.865-6.489,13.201c-2.145,4.331-4.472,8.336-6.916,11.905
		c-2.473,3.609-5.247,6.715-8.244,9.232c-3.057,2.565-6.582,4.293-10.478,5.135c-0.085,0.018-0.175,0.028-0.264,0.028
		c-0.129,0.048-0.275,0.089-0.44,0.125C77.986,114.968,77.23,115.041,76.439,115.035"/>
	<path fill="#C2C3C9" d="M76.528,115.536l-0.092,0c-0.241-0.002-0.491-0.011-0.741-0.026c-1.147-0.075-2.3-0.368-3.43-0.871
		c-1.158-0.514-2.231-1.299-3.188-2.333c-0.955-1.032-1.731-2.373-2.306-3.985c-0.579-1.623-0.773-3.601-0.577-5.877
		c0.009-0.108,0.019-0.216,0.029-0.325c-0.162,0.211-0.324,0.421-0.488,0.63c-1.541,1.966-3.186,3.748-4.89,5.295
		c-1.715,1.559-3.522,2.905-5.372,4.003c-1.905,1.131-3.869,1.92-5.837,2.345c-0.703,0.152-1.46,0.23-2.25,0.23l-0.105,0
		c-0.239-0.001-0.49-0.011-0.741-0.026c-1.144-0.074-2.297-0.367-3.43-0.87c-1.158-0.514-2.223-1.285-3.167-2.29
		c-0.952-1.012-1.735-2.368-2.327-4.028c-0.558-1.563-0.779-3.421-0.658-5.52c0.114-1.969,0.376-4.088,0.781-6.299
		c0.401-2.195,0.885-4.5,1.438-6.853c0.54-2.303,0.986-4.614,1.325-6.869c0.335-2.222,0.519-4.398,0.546-6.468
		c0.025-1.952-0.255-3.763-0.833-5.382c-0.893-2.502-2.624-4.238-5.294-5.305c-1.528-0.612-3.255-0.929-5.135-0.944l-0.143,0
		c-1.481,0-3.091,0.186-4.784,0.552c-0.866,0.186-1.648,0.401-2.325,0.64c-0.688,0.243-1.312,0.495-1.856,0.748l-1.48,0.688
		l-0.688-1.931l0.039-0.343c0.24-2.097,0.952-4.097,2.116-5.945c1.04-1.598,2.607-3.182,4.663-4.714
		c2.089-1.555,5.031-2.75,8.743-3.552c1.903-0.411,3.724-0.619,5.413-0.619l0.17,0c1.516,0.012,2.967,0.193,4.314,0.537
		c2.856,0.732,5.36,1.889,7.441,3.439c2.064,1.536,3.773,3.305,5.08,5.256c1.283,1.918,2.235,3.738,2.83,5.407
		c0.907,2.543,1.212,5.464,0.908,8.682c-0.292,3.074-0.828,6.237-1.594,9.401c-0.764,3.15-1.632,6.238-2.581,9.178
		c-0.925,2.87-1.597,5.399-1.998,7.516c-0.371,1.954-0.413,3.422-0.125,4.367c0.051,0.17,0.084,0.28,0.603,0.284
		c0,0,0.001,0,0.001,0c0.276,0,0.582-0.038,0.928-0.113c0.19-0.041,0.926-0.288,2.402-1.736c1.192-1.169,2.462-2.702,3.773-4.556
		c1.326-1.877,2.661-4.04,3.969-6.426c1.305-2.383,2.453-4.843,3.412-7.312c0.95-2.446,1.644-4.896,2.06-7.284
		c0.404-2.32,0.445-4.45,0.123-6.328c-0.051-0.299-0.112-0.585-0.178-0.854c-0.065-0.256-0.142-0.505-0.223-0.736
		c-0.09-0.254-0.258-0.42-0.561-0.555l-1.672-0.743l1.069-1.485c0.476-0.662,1.048-1.299,1.698-1.893
		c0.625-0.543,1.378-1.07,2.265-1.587c0.943-0.55,2.092-0.973,3.415-1.259c0.679-0.147,1.355-0.222,2.011-0.222
		c1.458,0.011,2.786,0.364,4.01,1.048c1.816,1.02,3.058,2.434,3.691,4.202c0.901,2.532,1.252,5.429,1.043,8.611
		c-0.201,3.052-0.636,6.18-1.293,9.299c-0.646,3.069-1.354,6.085-2.106,8.966c-0.734,2.809-1.256,5.285-1.552,7.358
		c-0.272,1.884-0.233,3.296,0.113,4.197c0.058,0.15,0.124,0.32,0.719,0.325h0.001c0.292,0,0.609-0.039,0.967-0.117
		c2.227-0.481,4.057-1.769,5.594-3.937c1.665-2.345,3.176-5.335,4.493-8.888c1.346-3.63,2.615-7.763,3.771-12.283
		c1.171-4.582,2.508-9.371,3.972-14.233c1.467-4.876,3.194-9.783,5.134-14.584c1.961-4.862,4.422-9.401,7.315-13.491
		c2.915-4.12,6.448-7.738,10.503-10.756c4.1-3.05,9.07-5.222,14.771-6.455c3.145-0.679,6.242-1.023,9.205-1.023l0.849,0.009
		c3.233,0.071,6.188,0.495,8.778,1.259c2.628,0.776,4.898,1.86,6.746,3.222c1.95,1.44,3.28,3.127,3.954,5.015
		c0.423,1.187,0.616,2.329,0.574,3.392c-0.039,0.957-0.136,1.819-0.289,2.565c-0.192,0.907-0.485,1.758-0.87,2.532l-0.647,1.304
		l-1.318-0.619c-1.338-0.63-2.933-1.153-4.741-1.555c-1.531-0.318-3.478-0.517-5.778-0.591c-0.179-0.005-0.357-0.009-0.538-0.01
		l-0.188-0.001c-2.087,0-4.442,0.281-7.001,0.834c-4.652,1.005-8.829,2.794-12.415,5.317c-3.634,2.557-6.928,5.649-9.79,9.19
		c-2.896,3.589-5.549,7.567-7.886,11.823c-2.373,4.318-4.677,8.765-6.849,13.216c-2.159,4.424-4.342,8.867-6.49,13.203
		c-2.157,4.354-4.495,8.38-6.951,11.966c-2.498,3.645-5.302,6.785-8.334,9.333c-3.121,2.619-6.719,4.382-10.694,5.241
		c-0.094,0.02-0.186,0.032-0.276,0.037c-0.128,0.043-0.27,0.082-0.427,0.116C78.086,115.458,77.325,115.536,76.528,115.536z
		 M67.686,98.405l-0.261,1.982c-0.097,0.737-0.176,1.453-0.235,2.142c-0.184,2.133-0.008,3.969,0.522,5.456
		c0.53,1.484,1.235,2.709,2.099,3.641c0.864,0.934,1.826,1.64,2.859,2.098c1.022,0.455,2.061,0.719,3.087,0.787
		c0.23,0.014,0.463,0.022,0.687,0.024l0.084,0.5v-0.5c0.726,0,1.417-0.07,2.053-0.208c0.14-0.03,0.263-0.064,0.372-0.104
		l0.173-0.031c0.051,0,0.107-0.006,0.162-0.018c3.811-0.823,7.263-2.515,10.258-5.028c2.963-2.489,5.707-5.562,8.152-9.132
		c2.43-3.547,4.744-7.532,6.88-11.844c2.146-4.335,4.33-8.776,6.488-13.198c2.179-4.466,4.491-8.927,6.871-13.259
		c2.364-4.308,5.051-8.335,7.984-11.97c2.92-3.614,6.282-6.77,9.992-9.38c3.695-2.6,7.995-4.443,12.779-5.477
		c2.627-0.568,5.054-0.856,7.212-0.856l0.194,0.001c0.188,0.001,0.376,0.004,0.563,0.011c2.358,0.076,4.361,0.282,5.956,0.612
		c1.887,0.42,3.552,0.967,4.957,1.628l0.432,0.203l0.212-0.427c0.348-0.699,0.612-1.47,0.787-2.292
		c0.141-0.689,0.231-1.499,0.269-2.401c0.037-0.935-0.136-1.95-0.517-3.016c-0.605-1.697-1.818-3.227-3.605-4.546
		c-1.753-1.292-3.918-2.325-6.435-3.068c-2.506-0.739-5.372-1.149-8.52-1.218l-0.824-0.009c-2.892,0-5.918,0.336-8.993,1.001
		c-5.562,1.203-10.402,3.316-14.386,6.28c-3.97,2.955-7.43,6.498-10.284,10.531c-2.848,4.027-5.272,8.498-7.205,13.289
		c-1.928,4.773-3.645,9.65-5.103,14.498c-1.461,4.849-2.793,9.625-3.961,14.193c-1.165,4.554-2.444,8.72-3.802,12.383
		c-1.347,3.635-2.9,6.703-4.615,9.119c-1.689,2.38-3.716,3.798-6.199,4.335c-0.428,0.092-0.816,0.139-1.154,0.139
		c-0.903-0.007-1.426-0.313-1.677-0.965c-0.409-1.063-0.466-2.644-0.17-4.699c0.301-2.11,0.831-4.623,1.575-7.469
		c0.748-2.865,1.453-5.866,2.095-8.919c0.647-3.073,1.076-6.154,1.273-9.158c0.2-3.045-0.132-5.808-0.987-8.21
		c-0.549-1.534-1.638-2.767-3.238-3.665c-1.075-0.601-2.242-0.911-3.469-0.921c-0.001,0-0.002,0-0.003,0
		c-0.635,0-1.24,0.067-1.849,0.199c-1.22,0.264-2.27,0.649-3.123,1.146c-0.832,0.485-1.534,0.975-2.085,1.456
		c-0.608,0.554-1.133,1.139-1.569,1.745l-0.35,0.487l0.548,0.243c0.554,0.246,0.913,0.618,1.098,1.136
		c0.09,0.258,0.175,0.535,0.25,0.826c0.073,0.295,0.139,0.605,0.194,0.929c0.341,1.991,0.3,4.234-0.124,6.668
		c-0.428,2.452-1.139,4.967-2.113,7.475c-0.975,2.509-2.141,5.008-3.467,7.43c-1.326,2.42-2.682,4.615-4.03,6.523
		c-1.346,1.903-2.654,3.482-3.889,4.692c-1.485,1.457-2.392,1.892-2.891,2c-0.417,0.09-0.793,0.135-1.119,0.135
		c-1.144-0.008-1.444-0.536-1.582-0.995c-0.336-1.098-0.303-2.729,0.099-4.842c0.408-2.158,1.091-4.727,2.029-7.637
		c0.941-2.916,1.803-5.979,2.561-9.106c0.754-3.118,1.283-6.233,1.571-9.26c0.29-3.071,0.002-5.847-0.855-8.251
		c-0.567-1.592-1.481-3.337-2.718-5.187c-1.243-1.856-2.873-3.542-4.846-5.011c-1.977-1.472-4.363-2.572-7.092-3.272
		c-1.268-0.324-2.639-0.495-4.074-0.506l-0.162,0c-1.618,0-3.368,0.201-5.202,0.597c-3.571,0.772-6.383,1.908-8.357,3.377
		c-1.96,1.461-3.447,2.959-4.418,4.451c-1.079,1.713-1.741,3.572-1.964,5.518l-0.013,0.113l0.242,0.679l0.485-0.226
		c0.573-0.266,1.228-0.529,1.945-0.783c0.717-0.253,1.54-0.479,2.446-0.674c1.762-0.381,3.443-0.575,4.995-0.575l0.151,0
		c2.005,0.016,3.855,0.357,5.499,1.015c2.952,1.18,4.87,3.109,5.864,5.898c0.618,1.731,0.918,3.659,0.891,5.731
		c-0.028,2.115-0.216,4.336-0.557,6.604c-0.344,2.281-0.795,4.619-1.341,6.949c-0.55,2.336-1.031,4.625-1.429,6.803
		c-0.397,2.171-0.655,4.249-0.766,6.177c-0.113,1.965,0.089,3.689,0.602,5.126c0.545,1.53,1.256,2.768,2.114,3.679
		c0.853,0.908,1.81,1.602,2.845,2.061c1.024,0.455,2.063,0.719,3.086,0.786c0.23,0.014,0.462,0.023,0.686,0.024
		c0.003,0,0.005,0,0.008,0c0.813,0,1.497-0.07,2.129-0.207c1.863-0.402,3.727-1.151,5.538-2.227c1.792-1.064,3.545-2.371,5.21-3.884
		c1.663-1.51,3.27-3.25,4.776-5.172c0.538-0.685,1.063-1.385,1.574-2.101L67.686,98.405z"/>
</g>
</svg>
