<?xml version="1.0" encoding="utf-8"?>
<!-- Generator: Adobe Illustrator 16.0.0, SVG Export Plug-In . SVG Version: 6.00 Build 0)  -->
<!DOCTYPE svg PUBLIC "-//W3C//DTD SVG 1.1//EN" "http://www.w3.org/Graphics/SVG/1.1/DTD/svg11.dtd">
<svg version="1.1" id="Capa_1" xmlns="http://www.w3.org/2000/svg" xmlns:xlink="http://www.w3.org/1999/xlink" x="0px" y="0px"
	 width="55.333px" height="55.333px" viewBox="0 0  55.33 55.333" enable-background="new 0 0  55.33 55.333"
	 xml:space="preserve">
<g>
	<path fill="#EAEBEC" d="M25.755,45.508c0.745,0,1.493-0.048,2.224-0.143c1.44-0.186,2.854-0.552,4.202-1.091
		c0.982,1.128,2.255,2.128,3.692,2.902c2.484,1.339,5.137,1.981,8.345,2.683c0.019,0.004,0.038,0.006,0.058,0.006
		c0.088,0,0.172-0.044,0.222-0.119c0.062-0.09,0.062-0.209-0.001-0.301c-2.387-3.48-3.785-7.596-4.043-11.906
		c4.197-6.168,4.484-13.979,0.723-19.923C38,12.596,31.098,9.353,23.589,9.353c-2.86,0-5.624,0.488-7.995,1.413
		c-3.088,1.205-5.538,3.282-7.283,6.173c-3.061,5.072-3.135,12.03-0.188,17.728C11.479,41.151,18.565,45.508,25.755,45.508z"/>
	<g>
		<g>
			<path fill="#7CBB44" d="M41.968,33.426c4.126-6.002,4.427-13.62,0.766-19.407c-3.081-4.869-9.806-8.016-17.135-8.016
				c-2.794,0-5.491,0.477-7.801,1.377c-2.975,1.161-5.337,3.163-7.019,5.95C7.813,18.248,7.745,25,10.61,30.536
				c3.266,6.311,10.158,10.552,17.154,10.552c0.723,0,1.447-0.046,2.156-0.137c1.458-0.188,2.887-0.567,4.246-1.128
				c0.033-0.015,0.068-0.021,0.102-0.021c0.078,0,0.153,0.033,0.205,0.096c0.955,1.137,2.223,2.147,3.663,2.924
				c2.257,1.215,4.679,1.848,7.558,2.488c-2.232-3.466-3.534-7.502-3.772-11.715C41.918,33.536,41.935,33.475,41.968,33.426z"/>
			<path fill="#7B4C3E" d="M46.506,45.561c-2.388-3.48-3.785-7.596-4.045-11.906c4.199-6.168,4.484-13.979,0.725-19.923
				C40.01,8.711,33.108,5.467,25.599,5.467c-2.86,0-5.625,0.489-7.995,1.415c-3.088,1.204-5.539,3.28-7.283,6.172
				c-3.063,5.072-3.135,12.03-0.188,17.728c3.355,6.484,10.441,10.842,17.631,10.842c0.746,0,1.494-0.049,2.223-0.143
				c1.443-0.186,2.855-0.552,4.203-1.091c0.983,1.128,2.256,2.128,3.691,2.902c2.486,1.339,5.137,1.981,8.346,2.683
				c0.02,0.004,0.039,0.006,0.058,0.006c0.089,0,0.172-0.043,0.224-0.119C46.569,45.772,46.568,45.653,46.506,45.561z
				 M38.136,42.821c-1.44-0.776-2.708-1.787-3.663-2.924c-0.052-0.063-0.127-0.096-0.205-0.096c-0.033,0-0.068,0.007-0.102,0.021
				c-1.359,0.561-2.788,0.939-4.246,1.128c-0.709,0.091-1.434,0.137-2.156,0.137c-6.996,0-13.889-4.241-17.154-10.552
				C7.745,25,7.813,18.248,10.78,13.331c1.682-2.787,4.044-4.789,7.019-5.95c2.31-0.9,5.007-1.377,7.801-1.377
				c7.329,0,14.054,3.146,17.135,8.016c3.661,5.787,3.36,13.405-0.766,19.407c-0.033,0.049-0.05,0.109-0.047,0.168
				c0.238,4.213,1.54,8.249,3.772,11.715C42.815,44.668,40.393,44.036,38.136,42.821z"/>
			<path fill="#70AB3E" d="M41.921,33.594c-0.003-0.059,0.014-0.119,0.047-0.168c2.586-3.761,3.669-8.156,3.216-12.339
				c-2.125,4.521-5.493,8.425-9.861,10.813c-6.781,3.708-15.914,3.196-21.648-1.986c-2.236-2.021-3.852-4.572-5.152-7.311
				c0.105,2.704,0.799,5.442,2.088,7.933c3.266,6.311,10.158,10.552,17.154,10.552c0.723,0,1.447-0.046,2.156-0.137
				c1.458-0.188,2.887-0.567,4.246-1.128c0.033-0.015,0.068-0.021,0.102-0.021c0.078,0,0.153,0.033,0.205,0.096
				c0.955,1.137,2.223,2.147,3.663,2.924c2.257,1.215,4.679,1.848,7.558,2.488C43.461,41.843,42.16,37.807,41.921,33.594z"/>
			<path fill="#A4C854" d="M30.739,7.753c-2.359-1.232-5.674-0.717-8.201-0.282c-2.732,0.471-5.99,1.491-8.121,3.339
				c-0.24,0.208,0.014,0.614,0.305,0.524c1.287-0.396,2.509-0.986,3.795-1.396c1.297-0.414,2.643-0.686,3.986-0.895
				c1.421-0.223,2.878-0.255,4.314-0.227c1.283,0.023,2.5,0.265,3.775,0.065C31.126,8.799,31.185,7.986,30.739,7.753z"/>
			<path fill="#A4C854" d="M37.061,10.205c-0.607-0.445-1.277-0.696-1.972-0.977c-0.724-0.292-1.546-0.684-2.331-0.704
				c-0.383-0.011-0.635,0.521-0.326,0.785c0.537,0.459,1.255,0.689,1.889,0.996c0.75,0.366,1.483,0.751,2.293,0.961
				C37.287,11.441,37.573,10.58,37.061,10.205z"/>
		</g>
		<g>
			<g>
				<path fill="#FFFFFF" d="M22.982,18.685c-1.081-0.555-2.995,1.236-1.831,3.746s3.885,4.79,6.278,5.529s5.797,0.578,5.686-2.527
					c-0.032-0.889-2.064-1.88-2.784-1.376c-0.721,0.503-1.093,1.353-1.676,1.438c-0.583,0.086-3.969-1.996-4.391-2.827
					c-0.42-0.832,0.498-0.67,0.369-1.545C24.504,20.249,23.735,19.071,22.982,18.685z"/>
			</g>
			<g>
				<path fill="#FFFFFF" d="M19.586,14.518c-7.696,6.399-2.363,14.948-2.039,15.795c0.322,0.846-1.402,4.762-0.422,5.227
					c0.961,0.453,4.596-1.471,5.469-1.305c7.357,1.398,14.998-2.014,15.414-11.312S27.284,8.119,19.586,14.518z M35.346,22.971
					c-0.318,7.116-6.166,9.728-11.797,8.657c-0.669-0.127-3.449,1.346-4.186,0.997c-0.751-0.354,0.568-3.352,0.322-3.999
					c-0.248-0.647-4.329-7.19,1.561-12.088C27.137,11.64,35.665,15.856,35.346,22.971z"/>
			</g>
		</g>
	</g>
</g>
</svg>
