<?xml version="1.0" encoding="utf-8"?>
<!-- Generator: Adobe Illustrator 16.0.0, SVG Export Plug-In . SVG Version: 6.00 Build 0)  -->
<!DOCTYPE svg PUBLIC "-//W3C//DTD SVG 1.1//EN" "http://www.w3.org/Graphics/SVG/1.1/DTD/svg11.dtd">
<svg version="1.1" id="Capa_1" xmlns="http://www.w3.org/2000/svg" xmlns:xlink="http://www.w3.org/1999/xlink" x="0px" y="0px"
	 width="510px" height="214px" viewBox="0 0 510 214" enable-background="new 0 0 510 214" xml:space="preserve">
  <style type="text/css">@import url(http://fonts.googleapis.com/css?family=Montserrat);</style>

	<text transform="matrix(1 0 0 1 16.5459 50.1348)" fill="#FFFFFF" font-family="'Montserrat-Regular'" font-size="33.6">Estás en</text>
<g>
	<path fill="#FFFFFF" d="M220.186,129.419c-0.319-1.393,0.347-2.228,1.773-2.219l2.596,0.022c1.208,0.009,1.934,0.599,2.182,1.809
		l2.809,14.58c0.314,1.609,0.307,2.744,0.307,2.744h0.075c0,0,0.044-1.131,0.462-2.738l3.699-14.563
		c0.303-1.17,1.035-1.748,2.242-1.74l1.576,0.014c1.205,0.01,1.934,0.601,2.178,1.771l3.396,14.622
		c0.388,1.611,0.416,2.746,0.416,2.746h0.072c0,0,0.012-1.133,0.352-2.738l3.297-14.569c0.266-1.168,1.002-1.746,2.244-1.736
		l2.488,0.018c1.427,0.013,2.078,0.857,1.736,2.245l-5.807,22.156c-0.303,1.168-1.037,1.711-2.244,1.701l-3.547-0.029
		c-1.207-0.008-1.934-0.6-2.217-1.771l-2.763-11.471c-0.392-1.686-0.489-3.076-0.489-3.076h-0.07c0,0-0.123,1.39-0.537,3.068
		l-2.945,11.424c-0.3,1.168-1.037,1.748-2.242,1.738l-3.623-0.029c-1.207-0.01-1.934-0.602-2.216-1.773L220.186,129.419z"/>
	<path fill="#FFFFFF" d="M257.375,129.37c0.01-1.315,0.709-2.007,2.027-1.993l2.374,0.019c1.319,0.01,2.007,0.71,1.995,2.025
		l-0.172,22.126c-0.012,1.316-0.711,2.006-2.027,1.996l-2.378-0.02c-1.313-0.01-2.006-0.711-1.995-2.027L257.375,129.37z"/>
	<path fill="#FFFFFF" d="M274.424,132.843l-5.926-0.045c-1.314-0.01-2.005-0.711-1.996-2.027l0.014-1.464
		c0.008-1.315,0.709-2.005,2.027-1.995l18.248,0.144c1.317,0.011,2.006,0.712,1.996,2.028l-0.013,1.463
		c-0.012,1.316-0.711,2.006-2.024,1.996l-5.928-0.047l-0.146,18.651c-0.01,1.316-0.711,2.006-2.028,1.996l-2.376-0.02
		c-1.318-0.01-2.006-0.711-1.998-2.027L274.424,132.843z"/>
	<path fill="#FFFFFF" d="M300.666,129.287c0.012-1.315,0.711-2.006,2.029-1.994l12.361,0.098c1.314,0.01,2.004,0.711,1.995,2.027
		l-0.013,1.461c-0.012,1.316-0.711,2.008-2.027,1.997l-7.972-0.064l-0.04,4.755l5.963,0.048c1.315,0.011,2.006,0.708,1.996,2.027
		l-0.014,1.463c-0.008,1.318-0.709,2.006-2.026,1.996l-5.962-0.049l-0.038,4.939l8.485,0.066c1.314,0.012,2.006,0.711,1.994,2.027
		l-0.012,1.463c-0.009,1.316-0.709,2.006-2.027,1.996l-12.872-0.102c-1.314-0.01-2.005-0.713-1.995-2.027L300.666,129.287z"/>
	<path fill="#FFFFFF" d="M321.143,129.246c0.011-1.314,0.709-2.006,2.027-1.995l2.854,0.023c1.133,0.009,1.861,0.417,2.402,1.372
		l6.352,10.913c1.01,1.727,2.156,4.479,2.156,4.479h0.075c0,0-0.271-2.816-0.259-4.463l0.082-10.205
		c0.01-1.315,0.71-2.005,2.027-1.995l2.377,0.021c1.317,0.01,2.006,0.709,1.996,2.025l-0.175,22.126
		c-0.013,1.316-0.712,2.006-2.028,1.996l-2.853-0.021c-1.097-0.01-1.825-0.418-2.366-1.373l-6.387-10.877
		c-1.011-1.727-2.159-4.478-2.159-4.478h-0.073c0,0,0.271,2.818,0.258,4.464l-0.082,10.164c-0.01,1.318-0.71,2.008-2.027,1.998
		l-2.377-0.02c-1.314-0.01-2.006-0.711-1.993-2.027L321.143,129.246z"/>
	<path fill="#FFFFFF" d="M360.691,126.523c4.168,0.033,7.412,1.594,8.465,2.371c1.092,0.814,1.197,1.656,0.492,2.783l-0.962,1.492
		c-0.704,1.092-1.583,1.157-2.786,0.525c-1.202-0.631-2.586-1.299-4.853-1.316c-5.233-0.042-7.563,3.45-7.595,7.401
		c-0.037,4.828,3.377,7.889,7.363,7.922c3.729,0.027,5.393-2.08,5.393-2.08l0.014-1.791l-1.683-0.014
		c-1.315-0.012-2.002-0.711-1.994-2.027l0.012-1.424c0.01-1.32,0.71-2.01,2.026-1.998l5.34,0.041
		c1.316,0.012,2.006,0.713,1.996,2.027l-0.084,10.752c-0.014,1.318-0.713,2.006-2.029,1.996l-1.206-0.01
		c-1.319-0.01-2.005-0.711-1.999-1.586v-0.074c0.002-0.221,0.039-0.365,0.039-0.365h-0.072c0,0-2.324,2.43-6.969,2.395
		c-6.729-0.055-12.833-5.223-12.768-13.451C346.895,132.119,352.682,126.459,360.691,126.523"/>
	<path fill="#FFFFFF" d="M376.027,129.287c0.01-1.317,0.71-2.008,2.025-1.996l2.378,0.02c1.318,0.01,2.007,0.711,1.996,2.027
		l-0.146,18.651l8.666,0.068c1.317,0.012,2.007,0.711,1.996,2.027l-0.011,1.463c-0.012,1.316-0.711,2.006-2.027,1.996l-13.057-0.104
		c-1.316-0.01-2.006-0.711-1.994-2.027L376.027,129.287z"/>
	<path fill="#FFFFFF" d="M395.734,129.37c0.01-1.315,0.711-2.007,2.027-1.993l2.379,0.019c1.316,0.01,2.005,0.71,1.994,2.025
		l-0.174,22.126c-0.01,1.316-0.712,2.006-2.027,1.996l-2.377-0.02c-1.316-0.01-2.008-0.711-1.998-2.027L395.734,129.37z"/>
	<path fill="#FFFFFF" d="M406.188,148.098l1.146-1.637c0.738-1.053,1.582-1.121,2.784-0.453c0.835,0.445,2.474,1.627,4.74,1.648
		c1.901,0.014,2.786-0.783,2.793-1.809c0.028-3.693-11.532-3.199-11.466-11.393c0.037-4.827,4.086-7.977,9.388-7.934
		c3.036,0.023,5.808,1.105,7.044,1.994c1.053,0.775,1.156,1.69,0.599,2.748l-0.89,1.711c-0.744,1.42-1.729,1.193-2.749,0.672
		c-1.202-0.593-2.405-1.225-4.125-1.237c-2.009-0.016-2.856,0.782-2.866,1.806c-0.028,3.805,11.535,2.98,11.47,11.245
		c-0.034,4.389-3.356,8.131-9.243,8.084c-3.658-0.031-6.9-1.555-8.283-2.662C405.768,150.254,405.225,149.443,406.188,148.098"/>
	<path fill="#FFFFFF" d="M427.912,129.246c0.01-1.317,0.709-2.008,2.027-1.996l2.375,0.019c1.32,0.011,2.01,0.711,1.996,2.028
		l-0.066,8.445l9.512,0.078l0.064-8.45c0.01-1.317,0.714-2.005,2.027-1.995l2.377,0.018c1.316,0.013,2.006,0.712,1.995,2.028
		l-0.175,22.126c-0.011,1.316-0.713,2.006-2.027,1.996l-2.377-0.02c-1.316-0.01-2.005-0.711-1.997-2.027l0.067-8.229l-9.51-0.074
		l-0.064,8.227c-0.012,1.318-0.711,2.008-2.027,1.998l-2.377-0.02c-1.316-0.01-2.007-0.711-1.994-2.027L427.912,129.246z"/>
	<path fill="#FFFFFF" d="M220.262,159.457c0.006-0.674,0.344-1.006,1.018-1.002l0.978,0.01c0.675,0.004,1.006,0.342,1.005,1.016
		l-0.146,17.955l8.687,0.068c0.645,0.006,1.008,0.346,1.004,1.018l-0.006,0.613c-0.005,0.672-0.375,1.006-1.018,1.002l-10.676-0.086
		c-0.672-0.006-1.005-0.344-0.998-1.018L220.262,159.457z"/>
	<path fill="#FFFFFF" d="M235.859,159.58c0.006-0.672,0.344-1.006,1.019-1.002l10.522,0.084c0.67,0.006,1.006,0.344,1,1.016
		l-0.004,0.615c-0.006,0.641-0.346,1.004-1.018,1l-8.533-0.068l-0.054,6.762l6.759,0.051c0.641,0.006,1.006,0.346,1.002,1.02
		l-0.004,0.611c-0.006,0.672-0.375,1.006-1.02,1l-6.759-0.053l-0.055,6.943l9.051,0.072c0.675,0.006,1.009,0.344,1.005,1.018
		l-0.006,0.611c-0.006,0.674-0.343,1.006-1.017,1.002l-11.043-0.088c-0.672-0.004-1.005-0.344-1-1.018L235.859,159.58z"/>
	<path fill="#FFFFFF" d="M257.73,159.57c0.188-0.58,0.555-0.822,1.137-0.816l1.468,0.01c0.553,0.006,0.947,0.252,1.126,0.834
		l6.943,19.664c0.238,0.705-0.103,1.162-0.838,1.156l-1.039-0.008c-0.581-0.004-0.945-0.283-1.125-0.836l-1.884-5.396l-8.138-0.066
		l-1.939,5.369c-0.156,0.549-0.557,0.822-1.107,0.818l-1.039-0.008c-0.764-0.008-1.064-0.469-0.819-1.17L257.73,159.57z
		 M262.74,171.662l-2.331-6.871c-0.356-1.104-0.8-3.066-0.8-3.066h-0.062c0,0-0.505,1.955-0.882,3.053l-2.469,6.83L262.74,171.662z"
		/>
	<path fill="#FFFFFF" d="M271.826,159.863c0.005-0.672,0.344-1.006,1.018-0.998l5.813,0.045c2.11,0.016,3.148,0.207,4.032,0.613
		c2.042,0.932,3.372,2.932,3.351,5.684c-0.022,2.754-1.511,5.127-3.901,5.904v0.063c0,0,0.272,0.307,0.633,0.98l3.829,7.219
		c0.395,0.709,0.082,1.195-0.682,1.189l-1.223-0.01c-0.582-0.004-0.947-0.223-1.188-0.711l-4.158-7.928l-4.621-0.035l-0.059,7.586
		c-0.006,0.674-0.345,1.006-1.018,1.002l-0.979-0.01c-0.673-0.004-1.006-0.342-1-1.018L271.826,159.863z M279.093,169.283
		c2.356,0.018,3.867-1.561,3.888-3.977c0.012-1.561-0.65-2.789-1.992-3.381c-0.549-0.25-1.189-0.377-2.568-0.387l-3.609-0.029
		l-0.061,7.738L279.093,169.283z"/>
	<path fill="#FFFFFF" d="M290.695,160.014c0.006-0.674,0.346-1.006,1.019-1.002l1.163,0.01c0.58,0.004,0.916,0.191,1.217,0.682
		l9.104,13.439c0.754,1.17,1.75,3.135,1.75,3.135h0.061c0,0-0.17-1.928-0.161-3.121l0.106-13.031c0.006-0.67,0.374-1.006,1.014-1
		l0.979,0.008c0.675,0.006,1.008,0.344,1.003,1.018l-0.156,19.576c-0.006,0.674-0.344,1.006-1.015,1.002l-1.164-0.01
		c-0.55-0.006-0.917-0.191-1.188-0.684l-9.134-13.408c-0.754-1.199-1.748-3.164-1.748-3.164l-0.061-0.002
		c0,0,0.169,1.928,0.156,3.152l-0.1,13c-0.006,0.672-0.346,1.008-1.018,1.002l-0.979-0.006c-0.674-0.008-1.008-0.346-1.002-1.02
		L290.695,160.014z"/>
	<path fill="#FFFFFF" d="M312.424,160.193c0.004-0.674,0.344-1.006,1.016-1.002l0.979,0.008c0.675,0.006,1.007,0.344,1.003,1.018
		l-0.156,19.576c-0.006,0.674-0.344,1.006-1.018,1l-0.979-0.006c-0.672-0.006-1.006-0.344-1-1.018L312.424,160.193z"/>
	<path fill="#FFFFFF" d="M319.896,160.262c0.006-0.674,0.345-1.008,1.018-1.002l1.164,0.01c0.58,0.004,0.916,0.189,1.217,0.682
		l9.104,13.439c0.753,1.168,1.746,3.135,1.746,3.135h0.063c0,0-0.167-1.93-0.16-3.121l0.103-13.033
		c0.006-0.672,0.375-1.006,1.02-0.998l0.977,0.006c0.674,0.006,1.008,0.346,1.003,1.018l-0.155,19.576
		c-0.005,0.674-0.344,1.008-1.018,1l-1.162-0.008c-0.551-0.006-0.917-0.191-1.188-0.682l-9.133-13.41
		c-0.754-1.197-1.75-3.164-1.75-3.164l-0.061-0.002c0,0,0.17,1.93,0.16,3.152l-0.103,13c-0.005,0.674-0.345,1.008-1.019,1.002
		l-0.979-0.006c-0.674-0.008-1.006-0.346-0.999-1.018L319.896,160.262z"/>
	<path fill="#FFFFFF" d="M351.301,159.141c3.639,0.027,6.167,1.424,7.078,2.074c0.519,0.4,0.576,0.861,0.205,1.379l-0.433,0.639
		c-0.371,0.547-0.831,0.574-1.41,0.262c-0.944-0.588-2.71-1.549-5.312-1.568c-4.955-0.039-8.072,3.637-8.109,8.256
		c-0.039,4.924,3.359,8.469,7.826,8.504c3.977,0.033,6.171-2.734,6.171-2.734l0.021-3.029l-2.506-0.018
		c-0.644-0.006-1.006-0.346-1-1.018l0.004-0.613c0.005-0.643,0.374-1.008,1.015-1.002l4.254,0.033
		c0.673,0.006,1.008,0.375,1.002,1.02l-0.071,8.84c-0.006,0.672-0.344,1.004-1.017,1l-0.581-0.004
		c-0.643-0.006-1.008-0.344-1.004-0.863l0.01-0.797c0.002-0.365,0.033-0.672,0.033-0.672h-0.061c0,0-2.315,2.674-6.692,2.637
		c-5.84-0.045-10.575-4.701-10.524-11.188C340.248,163.887,344.967,159.09,351.301,159.141"/>
	<path fill="#FFFFFF" d="M374.087,177.986l0.521-0.73c0.374-0.488,0.804-0.545,1.381-0.174c0.761,0.559,2.401,1.764,4.696,1.783
		c2.295,0.016,3.801-1.195,3.817-3.063c0.036-4.768-10.37-3.781-10.317-10.512c0.029-3.639,3.105-5.971,7.053-5.939
		c2.57,0.021,4.58,1.045,5.4,1.695c0.518,0.371,0.573,0.83,0.295,1.379l-0.434,0.76c-0.371,0.641-0.863,0.576-1.379,0.264
		c-0.822-0.494-2.129-1.27-3.969-1.283c-2.231-0.018-3.891,1.133-3.906,2.998c-0.039,4.646,10.372,3.475,10.318,10.42
		c-0.027,3.395-2.588,6.129-6.903,6.094c-3.117-0.025-5.493-1.48-6.464-2.283C373.801,179.023,373.621,178.594,374.087,177.986"/>
	<path fill="#FFFFFF" d="M396.598,162.471l-6.424-0.051c-0.672-0.006-1.006-0.375-1-1.018l0.004-0.611
		c0.005-0.672,0.346-1.008,1.016-1.002l15.848,0.125c0.642,0.006,0.975,0.344,0.969,1.018l-0.004,0.611
		c-0.008,0.643-0.346,1.008-0.988,1.004l-6.421-0.053l-0.142,17.955c-0.006,0.674-0.377,1.006-1.02,1.002l-1.008-0.006
		c-0.645-0.008-0.978-0.346-0.973-1.02L396.598,162.471z"/>
	<path fill="#FFFFFF" d="M412.884,160.795c0.185-0.58,0.558-0.82,1.138-0.816l1.467,0.012c0.551,0.004,0.947,0.252,1.125,0.834
		l6.941,19.662c0.243,0.707-0.102,1.162-0.834,1.156l-1.039-0.008c-0.582-0.004-0.947-0.283-1.125-0.834l-1.885-5.398l-8.137-0.066
		l-1.94,5.371c-0.157,0.547-0.557,0.822-1.106,0.816l-1.039-0.01c-0.764-0.006-1.068-0.465-0.818-1.168L412.884,160.795z
		 M417.896,172.887l-2.332-6.869c-0.361-1.105-0.801-3.066-0.801-3.066h-0.063c0,0-0.506,1.953-0.879,3.051l-2.473,6.832
		L417.896,172.887z"/>
	<path fill="#FFFFFF" d="M429.873,162.734l-6.422-0.051c-0.674-0.006-1.009-0.375-1.003-1.02l0.003-0.609
		c0.006-0.674,0.346-1.008,1.02-1.002l15.843,0.123c0.645,0.006,0.978,0.346,0.972,1.018l-0.006,0.611
		c-0.003,0.645-0.342,1.01-0.984,1.004l-6.424-0.051l-0.143,17.955c-0.006,0.672-0.376,1.006-1.018,1.002l-1.01-0.01
		c-0.641-0.004-0.975-0.342-0.973-1.016L429.873,162.734z"/>
	<path fill="#FFFFFF" d="M443.221,161.217c0.003-0.672,0.344-1.006,1.018-1.002l0.978,0.01c0.673,0.006,1.007,0.344,1.003,1.016
		l-0.156,19.576c-0.004,0.674-0.344,1.008-1.016,1.002l-0.979-0.006c-0.676-0.006-1.01-0.346-1.003-1.02L443.221,161.217z"/>
	<path fill="#FFFFFF" d="M461.459,159.984c6.422,0.053,11.036,4.893,10.987,11.102c-0.05,6.359-4.739,11.279-11.163,11.229
		c-6.425-0.051-11.063-5.043-11.014-11.406C450.316,164.699,455.037,159.936,461.459,159.984 M461.307,179.533
		c4.588,0.033,7.98-3.639,8.02-8.473c0.037-4.68-3.301-8.256-7.887-8.291c-4.587-0.037-8.014,3.482-8.049,8.164
		C453.352,175.768,456.719,179.494,461.307,179.533"/>
	<path fill="#FFFFFF" d="M475.621,161.482c0.004-0.674,0.342-1.006,1.018-1.002l1.16,0.01c0.581,0.004,0.916,0.191,1.219,0.682
		l9.102,13.439c0.756,1.168,1.749,3.135,1.749,3.135h0.062c0,0-0.169-1.928-0.16-3.121l0.105-13.031
		c0.004-0.672,0.375-1.006,1.016-1l0.979,0.006c0.675,0.006,1.006,0.346,1.002,1.018l-0.154,19.578
		c-0.006,0.672-0.345,1.006-1.018,1l-1.162-0.008c-0.549-0.004-0.917-0.191-1.188-0.684l-9.133-13.41
		c-0.755-1.197-1.748-3.162-1.748-3.162l-0.061-0.002c0,0,0.166,1.93,0.158,3.152l-0.104,13c-0.006,0.672-0.344,1.006-1.016,1
		l-0.979-0.006c-0.675-0.006-1.009-0.346-1.003-1.018L475.621,161.482z"/>
	<path fill="#FFFFFF" d="M125.703,193.941c-0.408-0.004-0.827-0.02-1.25-0.045c-1.899-0.125-3.818-0.613-5.703-1.451
		c-1.919-0.852-3.7-2.154-5.291-3.877c-1.592-1.717-2.889-3.965-3.857-6.676c-0.971-2.721-1.295-6.057-0.965-9.916
		c0.107-1.223,0.246-2.488,0.418-3.793c-0.902,1.266-1.83,2.502-2.778,3.711c-2.667,3.4-5.515,6.484-8.46,9.16
		c-2.957,2.688-6.073,5.008-9.265,6.902c-3.251,1.932-6.599,3.277-9.953,4.002c-1.221,0.266-2.544,0.393-3.93,0.383
		c-0.407-0.002-0.831-0.02-1.251-0.047c-1.9-0.123-3.818-0.609-5.703-1.449c-1.916-0.85-3.686-2.129-5.262-3.805
		c-1.58-1.682-2.889-3.949-3.885-6.744c-0.938-2.631-1.309-5.766-1.106-9.32c0.197-3.404,0.653-7.08,1.356-10.918
		c0.694-3.801,1.536-7.822,2.51-11.953c0.947-4.047,1.732-8.117,2.334-12.093c0.59-3.937,0.916-7.786,0.965-11.439
		c0.043-3.521-0.465-6.794-1.51-9.728c-1.65-4.631-4.846-7.836-9.767-9.807c-2.778-1.108-5.909-1.685-9.305-1.712
		c-2.726-0.022-5.693,0.31-8.819,0.985c-1.562,0.338-2.965,0.725-4.174,1.148c-1.229,0.435-2.35,0.887-3.328,1.34l-1.718,0.801
		l-0.815-2.285l0.045-0.399c0.406-3.536,1.608-6.913,3.572-10.036c1.764-2.708,4.43-5.396,7.947-8.016
		c3.554-2.645,8.586-4.686,14.965-6.064c3.373-0.729,6.597-1.088,9.578-1.063c2.582,0.021,5.054,0.328,7.342,0.913
		c4.886,1.252,9.169,3.228,12.721,5.873c3.534,2.629,6.455,5.652,8.688,8.988c2.201,3.289,3.834,6.408,4.854,9.27
		c1.546,4.332,2.064,9.316,1.545,14.82c-0.506,5.336-1.438,10.83-2.77,16.331c-1.328,5.486-2.842,10.869-4.5,16.003
		c-1.629,5.051-2.818,9.514-3.525,13.262c-0.674,3.557-0.743,6.27-0.195,8.064c0.171,0.559,0.454,1.104,1.887,1.113
		c0.518,0.006,1.129-0.068,1.818-0.217c0.623-0.135,2.054-0.738,4.633-3.268c2.126-2.086,4.382-4.809,6.704-8.096
		c2.34-3.313,4.698-7.127,7.001-11.332c2.303-4.207,4.329-8.547,6.021-12.902c1.682-4.331,2.91-8.676,3.65-12.917
		c0.725-4.16,0.799-7.986,0.215-11.375c-0.094-0.543-0.201-1.066-0.322-1.555c-0.123-0.482-0.264-0.944-0.416-1.369
		c-0.241-0.678-0.703-1.149-1.453-1.482l-1.943-0.861l1.245-1.727c0.802-1.116,1.763-2.186,2.853-3.178l0.029-0.026
		c1.015-0.881,2.288-1.769,3.787-2.644c1.57-0.915,3.494-1.623,5.717-2.105c1.168-0.25,2.324-0.375,3.436-0.366
		c2.298,0.018,4.482,0.598,6.496,1.724c2.99,1.68,5.029,3.994,6.061,6.885c1.537,4.314,2.136,9.267,1.777,14.72
		c-0.35,5.308-1.105,10.74-2.246,16.156c-1.129,5.367-2.369,10.633-3.676,15.652c-1.291,4.938-2.211,9.301-2.738,12.977
		c-0.494,3.451-0.412,6.07,0.248,7.785c0.223,0.58,0.628,1.117,2.068,1.129c0.544,0.006,1.176-0.072,1.887-0.225
		c4.121-0.893,7.5-3.26,10.321-7.238c2.956-4.164,5.638-9.467,7.973-15.762c2.364-6.377,4.595-13.643,6.626-21.588
		c2.055-8.021,4.39-16.393,6.945-24.879c2.559-8.5,5.57-17.063,8.957-25.449c3.414-8.455,7.688-16.34,12.709-23.438
		c5.053-7.142,11.175-13.41,18.195-18.631c7.074-5.265,15.658-9.015,25.518-11.145c5.627-1.218,11.16-1.813,16.447-1.771
		c0.313,0.003,0.627,0.007,0.941,0.014c5.588,0.124,10.684,0.854,15.141,2.169c4.501,1.329,8.381,3.181,11.535,5.506
		c3.271,2.416,5.498,5.23,6.617,8.366c0.701,1.972,1.023,3.858,0.955,5.609c-0.069,1.628-0.232,3.091-0.492,4.351
		c-0.319,1.513-0.807,2.926-1.447,4.218l-0.752,1.515l-1.531-0.719c-2.395-1.129-5.249-2.065-8.479-2.784
		c-2.738-0.567-6.204-0.926-10.279-1.054c-0.32-0.012-0.641-0.019-0.966-0.02c-3.796-0.031-8.093,0.467-12.773,1.479
		c-8.257,1.785-15.675,4.964-22.048,9.445c-6.426,4.523-12.248,9.991-17.309,16.254c-5.098,6.311-9.771,13.317-13.895,20.823
		c-4.158,7.57-8.198,15.366-12.008,23.172c-3.775,7.741-7.596,15.515-11.355,23.105c-3.755,7.58-7.829,14.592-12.106,20.838
		c-4.327,6.316-9.183,11.756-14.429,16.162c-5.353,4.49-11.521,7.514-18.34,8.988c-0.149,0.031-0.305,0.047-0.463,0.047
		c-0.225,0.084-0.482,0.156-0.769,0.221C128.408,193.822,127.087,193.953,125.703,193.941"/>
	<path fill="#D7D7D7" d="M253.873,27.584c0.305,0.003,0.611,0.007,0.915,0.013c5.464,0.122,10.358,0.821,14.692,2.098
		c4.328,1.28,7.992,3.025,10.996,5.242c3.004,2.216,5.012,4.734,6.016,7.555c0.635,1.775,0.918,3.429,0.855,4.96
		c-0.062,1.532-0.215,2.892-0.456,4.07c-0.29,1.364-0.725,2.63-1.302,3.798c-2.527-1.189-5.478-2.158-8.839-2.908
		c-2.868-0.594-6.401-0.959-10.6-1.094c-0.334-0.012-0.669-0.018-1.011-0.02c-3.938-0.032-8.322,0.474-13.147,1.518
		c-8.53,1.845-16.089,5.085-22.677,9.723c-6.594,4.637-12.479,10.163-17.662,16.58c-5.18,6.416-9.871,13.443-14.063,21.078
		c-4.195,7.635-8.211,15.383-12.046,23.246c-3.835,7.861-7.62,15.563-11.353,23.096c-3.733,7.535-7.727,14.412-11.982,20.627
		c-4.258,6.217-8.965,11.488-14.117,15.814c-5.15,4.326-11.018,7.201-17.591,8.623c-0.031,0.006-0.06,0.008-0.093,0.008
		c-0.078,0-0.165-0.02-0.258-0.063c-0.178,0.125-0.475,0.232-0.884,0.32c-1.106,0.24-2.291,0.354-3.552,0.344
		c-0.377-0.004-0.764-0.018-1.154-0.043c-1.698-0.111-3.404-0.545-5.113-1.303c-1.709-0.76-3.282-1.916-4.722-3.473
		c-1.443-1.557-2.608-3.582-3.497-6.08c-0.894-2.5-1.18-5.561-0.871-9.189c0.309-3.627,0.923-7.576,1.832-11.855
		c-2.227,3.695-4.649,7.213-7.274,10.559c-2.623,3.348-5.38,6.328-8.263,8.949c-2.885,2.619-5.879,4.852-8.983,6.695
		c-3.105,1.844-6.252,3.109-9.436,3.797c-1.108,0.24-2.292,0.354-3.552,0.342c-0.379-0.002-0.764-0.016-1.157-0.039
		c-1.697-0.111-3.403-0.545-5.111-1.307c-1.71-0.758-3.276-1.895-4.702-3.41c-1.428-1.516-2.6-3.561-3.52-6.141
		c-0.859-2.418-1.197-5.297-1.004-8.639c0.191-3.34,0.633-6.908,1.328-10.705c0.693-3.797,1.525-7.756,2.491-11.871
		s1.753-8.191,2.36-12.231c0.609-4.037,0.936-7.928,0.984-11.672c0.048-3.744-0.488-7.188-1.609-10.332
		c-1.812-5.078-5.396-8.686-10.751-10.83c-2.991-1.195-6.304-1.808-9.935-1.838c-2.865-0.021-5.93,0.32-9.195,1.026
		c-1.646,0.354-3.104,0.757-4.383,1.208c-1.276,0.451-2.438,0.917-3.482,1.402l-0.045-0.121c0.378-3.291,1.484-6.396,3.318-9.313
		c1.646-2.523,4.15-5.041,7.518-7.549c3.366-2.508,8.132-4.428,14.297-5.762c3.264-0.705,6.33-1.048,9.199-1.025
		c2.455,0.02,4.764,0.307,6.927,0.859c4.688,1.201,8.729,3.063,12.118,5.586s6.152,5.377,8.282,8.563
		c2.133,3.186,3.687,6.151,4.662,8.889c1.467,4.111,1.95,8.805,1.452,14.077c-0.5,5.276-1.41,10.639-2.729,16.087
		c-1.321,5.454-2.811,10.747-4.465,15.879c-1.656,5.135-2.85,9.625-3.582,13.473c-0.729,3.848-0.779,6.811-0.148,8.887
		c0.469,1.547,1.645,2.326,3.528,2.34c0.647,0.006,1.378-0.08,2.196-0.256c1.436-0.311,3.262-1.553,5.477-3.725
		c2.213-2.17,4.516-4.947,6.906-8.33c2.389-3.381,4.758-7.215,7.105-11.5c2.344-4.283,4.385-8.65,6.117-13.105
		c1.73-4.456,2.977-8.87,3.741-13.249c0.765-4.374,0.837-8.361,0.215-11.963c-0.099-0.584-0.215-1.145-0.349-1.683
		c-0.137-0.532-0.291-1.044-0.461-1.527c-0.406-1.128-1.199-1.956-2.381-2.481c0.74-1.027,1.611-1.996,2.615-2.908
		c0.927-0.808,2.101-1.629,3.521-2.457c1.422-0.827,3.159-1.462,5.215-1.908c1.049-0.226,2.064-0.335,3.057-0.327
		c2.012,0.015,3.9,0.517,5.662,1.505c2.627,1.473,4.387,3.459,5.278,5.955c1.466,4.111,2.026,8.789,1.682,14.028
		c-0.347,5.241-1.081,10.544-2.214,15.91c-1.129,5.369-2.348,10.561-3.656,15.572c-1.312,5.018-2.236,9.408-2.777,13.17
		c-0.539,3.762-0.422,6.646,0.348,8.65c0.564,1.475,1.789,2.221,3.669,2.234c0.67,0.01,1.425-0.082,2.265-0.264
		c4.52-0.977,8.307-3.619,11.365-7.926c3.054-4.309,5.781-9.693,8.182-16.158c2.396-6.465,4.625-13.721,6.682-21.762
		c2.057-8.039,4.365-16.313,6.924-24.809c2.555-8.498,5.525-16.93,8.905-25.303c3.378-8.369,7.552-16.066,12.517-23.087
		c4.969-7.021,10.904-13.103,17.815-18.242c6.908-5.141,15.192-8.756,24.853-10.843C243.334,28.121,248.69,27.544,253.873,27.584
		 M253.901,24.128L253.901,24.128c-5.413-0.043-11.075,0.564-16.827,1.81c-10.102,2.184-18.911,6.036-26.186,11.447
		c-7.166,5.33-13.416,11.729-18.571,19.02c-5.096,7.208-9.438,15.211-12.901,23.79c-3.406,8.435-6.437,17.045-9.012,25.6
		c-2.559,8.506-4.904,16.9-6.961,24.948c-2.02,7.888-4.23,15.093-6.575,21.416c-2.282,6.15-4.892,11.32-7.759,15.361
		c-2.564,3.611-5.599,5.754-9.279,6.549c-0.584,0.127-1.092,0.188-1.506,0.186c-0.242-0.002-0.395-0.025-0.479-0.045
		c-0.379-1.002-0.701-3.002-0.143-6.895c0.517-3.611,1.426-7.914,2.698-12.785c1.317-5.049,2.563-10.342,3.698-15.734
		c1.154-5.495,1.921-11.01,2.279-16.395c0.371-5.691-0.258-10.877-1.877-15.416c-1.175-3.295-3.477-5.922-6.843-7.812
		c-2.271-1.271-4.735-1.925-7.325-1.944c-1.238-0.01-2.524,0.127-3.813,0.406c-2.403,0.52-4.497,1.293-6.226,2.301
		c-1.59,0.928-2.953,1.881-4.049,2.832l-0.03,0.026l-0.029,0.025c-1.177,1.074-2.218,2.232-3.093,3.446l-2.484,3.451l3.887,1.727
		c0.42,0.188,0.479,0.353,0.525,0.484c0.135,0.373,0.258,0.784,0.367,1.221c0.111,0.433,0.21,0.91,0.295,1.41
		c0.547,3.196,0.478,6.824-0.215,10.785c-0.721,4.133-1.914,8.367-3.559,12.59c-1.664,4.286-3.658,8.559-5.924,12.702
		c-2.275,4.148-4.596,7.906-6.898,11.164c-2.262,3.199-4.451,5.844-6.504,7.859c-2.531,2.484-3.668,2.785-3.787,2.813
		c-0.557,0.119-1.054,0.182-1.44,0.178c-0.118,0-0.21-0.008-0.282-0.016c-0.299-1.094-0.471-3.191,0.275-7.113
		c0.696-3.676,1.864-8.068,3.473-13.055c1.668-5.172,3.195-10.598,4.535-16.124c1.352-5.584,2.297-11.16,2.811-16.576
		c0.545-5.758-0.006-10.995-1.636-15.564c-1.071-2.996-2.769-6.242-5.048-9.649c-2.34-3.501-5.399-6.667-9.092-9.415
		c-3.734-2.78-8.215-4.852-13.322-6.16c-2.426-0.619-5.035-0.945-7.758-0.967c-3.108-0.025-6.457,0.346-9.959,1.103
		c-6.619,1.431-11.879,3.573-15.629,6.366c-3.68,2.742-6.49,5.58-8.348,8.438l-0.018,0.021l-0.01,0.021
		c-2.106,3.344-3.395,6.965-3.829,10.763l-0.093,0.8l0.271,0.758l0.043,0.121l1.276,3.566l3.437-1.597
		c0.927-0.432,1.995-0.862,3.177-1.279c1.136-0.4,2.472-0.767,3.962-1.089c3-0.65,5.84-0.968,8.438-0.947
		c3.182,0.023,6.102,0.561,8.682,1.591c4.43,1.772,7.303,4.646,8.777,8.78c0.976,2.74,1.451,5.811,1.406,9.127
		c-0.047,3.574-0.365,7.344-0.945,11.203c-0.59,3.928-1.369,7.952-2.307,11.956c-0.977,4.158-1.826,8.209-2.527,12.039
		c-0.716,3.908-1.178,7.652-1.379,11.129c-0.218,3.785,0.186,7.148,1.203,9.998c1.075,3.02,2.508,5.494,4.258,7.35
		c1.73,1.842,3.688,3.256,5.813,4.199c2.073,0.922,4.19,1.457,6.292,1.594c0.455,0.029,0.911,0.047,1.352,0.049
		c1.511,0.014,2.96-0.129,4.31-0.42c3.532-0.764,7.056-2.178,10.47-4.205c3.289-1.953,6.502-4.346,9.544-7.107
		c2.707-2.461,5.331-5.254,7.814-8.32c-0.079,3.201,0.316,6.039,1.181,8.459c1.044,2.932,2.465,5.379,4.217,7.268
		c1.752,1.893,3.723,3.334,5.855,4.283c2.073,0.922,4.188,1.457,6.292,1.594c0.458,0.029,0.911,0.047,1.35,0.049
		c1.511,0.012,2.962-0.129,4.312-0.422c0.257-0.055,0.498-0.119,0.727-0.189c0.17-0.016,0.34-0.041,0.508-0.074
		c7.094-1.535,13.516-4.682,19.083-9.355c5.366-4.508,10.326-10.063,14.744-16.506c4.325-6.316,8.439-13.395,12.231-21.049
		c3.746-7.57,7.567-15.346,11.359-23.114c3.793-7.779,7.822-15.549,11.967-23.098c4.074-7.417,8.692-14.338,13.726-20.572
		c4.958-6.137,10.663-11.494,16.958-15.926c6.182-4.348,13.389-7.434,21.421-9.169c4.554-0.984,8.722-1.469,12.392-1.439
		c0.313,0.001,0.623,0.009,0.926,0.017c3.964,0.128,7.324,0.471,9.983,1.02c3.096,0.692,5.819,1.586,8.093,2.657l3.063,1.439
		l1.505-3.03c0.706-1.422,1.239-2.977,1.589-4.619l0.002-0.01v-0.009c0.279-1.353,0.456-2.91,0.526-4.628
		c0.08-1.974-0.276-4.078-1.054-6.26c-1.234-3.467-3.665-6.553-7.219-9.177c-3.315-2.444-7.378-4.388-12.07-5.773
		c-4.605-1.359-9.854-2.112-15.594-2.239C254.543,24.134,254.223,24.13,253.901,24.128"/>
</g>
</svg>
