<?xml version="1.0" encoding="utf-8"?>
<!-- Generator: Adobe Illustrator 16.0.0, SVG Export Plug-In . SVG Version: 6.00 Build 0)  -->
<!DOCTYPE svg PUBLIC "-//W3C//DTD SVG 1.1//EN" "http://www.w3.org/Graphics/SVG/1.1/DTD/svg11.dtd">

<svg version="1.1" id="Capa_1" xmlns="http://www.w3.org/2000/svg" xmlns:xlink="http://www.w3.org/1999/xlink" x="0px" y="0px"
	 width="464.38px" height="172.299px" viewBox="0 0 464.38 172.299" enable-background="new 0 0 464.38 172.299"
	 xml:space="preserve">
<defs>
	<style type="text/css">
		@font-face {
		  font-family: BehindBlueEyes;
		  src: url(../font/BehindBlueEyes.otf);
		}

	</style>
</defs>
<g>
	<path fill="#EAEBEC" d="M455.4,149.615c-0.657-0.657-4.854-6.671-8.912-12.487c-3.071-4.403-5.974-8.563-7.393-10.479
		c-2.675-3.611-9.785-13.208-9.957-20.21c-0.115-4.821-2.652-12.855-4.504-18.724c-0.797-2.523-1.484-4.703-1.831-6.137
		c-1.19-4.929-3.124-7.134-7.138-8.137c-1.274-0.32-3.519-1.242-6.115-2.309c-1.193-0.492-2.451-1.008-3.714-1.507
		c-0.034-4.593-0.074-9.261-0.113-13.817c-0.149-17.603-0.276-32.807-0.134-34.467c0.348-3.986-2.563-6.884-4.797-7.441
		c-0.635-0.16-4.063-0.236-10.479-0.236c-6.532,0-15.09,0.08-21.965,0.145c-4.884,0.047-9.098,0.085-11.378,0.085
		c-2.417,0-5.013,2.348-5.362,7.591c-0.162,2.416-0.245,18.451-0.225,36.391c-0.725-0.207-1.404-0.356-2.038-0.43
		c-0.537-0.062-1.067-0.094-1.577-0.094c-2.337,0-4.182,0.633-5.335,1.832c-0.92,0.957-1.358,2.232-1.298,3.792
		c0.139,3.61,5.387,6.462,10.281,7.885c0,0.087,0,0.174,0,0.261c-0.495-0.091-0.978-0.136-1.422-0.136
		c-0.442,0-0.859,0.04-1.238,0.122c-2.012,0.432-3.318,1.979-3.588,4.242c-0.293,2.467,0.727,5.132,2.339,6.373
		c-1.661,0.548-2.747,2.002-2.999,4.057c-0.347,2.809,0.938,5.88,2.859,6.845c0.094,0.047,0.19,0.091,0.286,0.134
		c-0.008,0.002-0.019,0.003-0.027,0.006c-1.716,0.423-2.817,1.853-3.104,4.024c-0.378,2.86,0.779,5.996,2.581,6.993
		c0.704,0.389,1.45,0.585,2.219,0.585c0.87,0,1.692-0.243,2.421-0.683c0.104,4.859,0.234,8.016,0.391,8.52
		c0.877,2.807,5.339,3.388,8.618,3.581c1.091,0.063,5.823,0.185,11.583,0.276c3.562,3.627,9.521,9.045,15.909,11.056
		c7.463,2.35,12.306,5.126,14.388,8.251c1.732,2.596,8.166,17.74,8.467,19.254c0.352,1.75,3.057,6.102,4.742,7.283
		c0.146,0.101,0.396,0.147,0.787,0.147l0,0c2.495,0,10.359-1.927,17.045-3.837c1.878-0.536,10.003-2.895,13.096-4.408l0.394,0.613
		c-0.007,0.005-0.015,0.011-0.021,0.018c-0.082,0.069-0.091,0.191-0.02,0.273c0.039,0.043,0.092,0.064,0.145,0.064
		c0.047,0,0.094-0.016,0.129-0.048c0.469-0.41,1.842-1.021,3.295-1.667c2.85-1.268,4.728-2.156,4.875-2.947
		C455.602,149.93,455.543,149.757,455.4,149.615z"/>
	<g>
		<path fill="none" d="M353.025,90.097c-0.193,0.067-0.391,0.125-0.591,0.171c0.204,0.076,0.401,0.163,0.596,0.259
			C353.03,90.384,353.028,90.24,353.025,90.097z"/>
		<path fill="#FFDDAA" d="M342.973,60.157c0.127,3.271,5.078,6.065,9.896,7.496c-0.017-4.064-0.026-8.166-0.032-12.179
			c-0.745-0.217-1.441-0.375-2.082-0.448c-0.523-0.061-1.039-0.092-1.534-0.092c-2.229,0-3.978,0.594-5.055,1.713
			C343.319,57.526,342.916,58.708,342.973,60.157z"/>
		<path fill="#AC9180" d="M406.787,53.008c-0.148-17.612-0.277-32.824-0.13-34.503c0.326-3.772-2.407-6.508-4.508-7.034
			c-0.595-0.148-4.088-0.224-10.382-0.224c-6.533,0-15.09,0.08-21.963,0.145c-4.885,0.047-9.102,0.086-11.381,0.086
			c-2.164,0-4.646,2.262-4.977,7.229c-0.2,3.008-0.285,27.1-0.199,49.689c1.177,0.268,2.396,0.795,3.359,1.613
			c-0.023-3.047-0.045-6.165-0.059-9.275c-0.058-11.383-0.046-20.572,0.035-27.313c0.156-12.55,0.508-12.727,0.719-12.832
			c0.88-0.439,16.037-0.604,25.384-0.604c5.596,0,10.66,0.05,14.257,0.139c6.48,0.161,6.48,0.371,6.48,0.638
			c0,0.077,0.008,0.787,0.023,2.015c0.072,6.254,0.29,24.97,0.388,42.746c1.003,0.354,2.033,0.742,3.065,1.146
			C406.863,62.062,406.826,57.431,406.787,53.008z M386.342,17.509h-13.099c-0.402,0-0.729-0.166-0.942-0.479
			c-0.182-0.263-0.275-0.619-0.275-1.034c0-1.098,0.642-2.321,1.564-2.321h12.924c0.834,0,1.271,0.965,1.271,1.917
			C387.785,16.546,387.336,17.509,386.342,17.509z M392.372,17.853c-1.245,0-2.26-1.013-2.26-2.261c0-1.247,1.015-2.261,2.26-2.261
			c1.248,0,2.262,1.014,2.262,2.261C394.634,16.84,393.62,17.853,392.372,17.853z"/>
		<path fill="#978072" d="M405.162,81.993c-0.451-0.213-0.876-0.41-1.279-0.6c-0.005,20.43-0.359,20.606-0.566,20.709
			c-0.587,0.295-11.429,0.402-18.573,0.402c-0.003,0-0.003,0-0.005,0c-7.117,0-13.691-0.086-18.512-0.24
			c-9.112-0.291-9.167-0.718-9.201-0.999c-0.048-0.382-0.154-6.429-0.257-15.026c-0.632,1.716-1.858,3.05-3.37,3.709
			c0.006,0.261,0.006,0.519,0.012,0.776c0.609,0.349,1.154,0.784,1.591,1.29c0.965,1.114,1.356,2.494,1.136,3.99
			c-0.295,2.023-1.252,3.67-2.574,4.631c0.105,4.934,0.234,8.143,0.392,8.647c0.899,2.878,6.449,3.204,8.273,3.312
			c1.894,0.111,14.827,0.396,24.997,0.396c0,0,0,0,0.002,0c5.207,0,8.672-0.075,10.299-0.223c5.914-0.538,8.712-3.692,9.309-6.228
			c0.223-0.94,0.24-10.444,0.182-22.689C406.465,82.994,405.845,82.314,405.162,81.993z M386.533,108.933
			c0,0.427-0.345,0.774-0.771,0.774h-12.627c-0.427,0-0.773-0.348-0.773-0.774v-2.976c0-0.427,0.347-0.772,0.773-0.772h12.627
			c0.427,0,0.771,0.346,0.771,0.772V108.933z"/>
		<path fill="#978072" d="M354.125,79.56c0.73,0.376,1.413,0.875,1.954,1.509c0.257,0.304,0.472,0.626,0.642,0.964
			c-0.016-1.371-0.031-2.784-0.045-4.234C355.977,78.597,355.101,79.206,354.125,79.56z"/>
		<path fill="#CEE7D3" d="M396.017,64.147c1.44-0.524,4.257,0.146,7.431,1.24c-0.064-11.684-0.193-25.98-0.389-42.607
			c-0.011-1.011-0.02-1.671-0.021-1.917c-0.932-0.294-9.003-0.491-20.351-0.491c-13.091,0-24.278,0.245-25.181,0.551
			c-0.242,0.506-0.75,5.587-0.568,40.322c0.017,3.059,0.035,6.125,0.061,9.122c0.097,0.1,0.191,0.201,0.279,0.307
			c0.892,1.054,1.239,2.325,1.012,3.681c-0.186,1.115-0.62,2.123-1.23,2.965c0.02,2.041,0.04,4.016,0.061,5.899
			c0.096,0.509,0.102,1.041,0.019,1.587c0.106,9.087,0.217,15.675,0.267,16.369c0.824,0.564,11.758,0.943,27.334,0.943h0.005
			c10.519,0,17.592-0.18,18.358-0.35c0.26-0.782,0.393-7.906,0.396-20.556c-0.297-0.138-0.583-0.271-0.852-0.397
			c-1.447-0.676-2.508-1.17-3.38-1.604c-0.883,0.633-7.051,4.914-11.904,4.915c-0.701,0-1.372-0.089-1.998-0.291
			c-6.493-2.096-7.465-4.875-7.465-6.347c0-1.346,2.316-2.183,4.768-3.068c1.744-0.631,3.547-1.282,4.1-2.043
			C388.43,70.089,392.504,65.425,396.017,64.147z"/>
		<path fill="#FFDDAA" d="M349.441,78.787c0.352-0.073,0.732-0.112,1.135-0.112c0.912,0,2.006,0.209,3.041,0.65
			c2.184-0.597,3.865-2.5,4.291-5.035c0.211-1.256-0.099-2.389-0.926-3.366c-1.377-1.628-3.771-2.356-5.536-2.356
			c-0.415,0-0.804,0.039-1.157,0.115c-2.518,0.54-3.138,2.68-3.285,3.908C346.712,75.061,347.787,77.73,349.441,78.787z"/>
		<path fill="#FFDDAA" d="M348.994,89.474c0.313,0.158,0.632,0.277,0.959,0.367c0.07-0.002,0.141-0.006,0.213-0.006
			c0.469,0,0.943,0.061,1.409,0.169c2.595-0.164,4.698-2.263,5.175-5.218c0.21-1.302-0.116-2.467-0.965-3.467
			c-1.329-1.56-3.574-2.258-5.209-2.258c-0.395,0-0.766,0.037-1.102,0.114c-2.378,0.532-2.982,2.639-3.13,3.847
			C346.017,85.683,347.206,88.577,348.994,89.474z"/>
		<path fill="#FFDDAA" d="M348.744,100.639c0.645,0.356,1.327,0.537,2.029,0.537c2.482,0,4.531-2.149,4.982-5.228
			c0.202-1.383-0.16-2.654-1.047-3.682c-1.074-1.242-2.855-2.045-4.543-2.045c-0.356,0-0.691,0.039-0.994,0.113
			c-2.092,0.518-2.661,2.54-2.814,3.7C346.005,96.704,347.098,99.729,348.744,100.639z"/>
		<path fill="#FFDDAA" d="M456.638,147.238c0.007-0.042,0.007-0.089-0.06-0.154c-0.683-0.682-4.889-6.71-8.955-12.54
			c-3.07-4.4-5.973-8.557-7.387-10.468c-4.59-6.196-9.879-14.117-10.033-20.433c-0.115-4.766-2.641-12.771-4.486-18.615
			c-0.799-2.53-1.488-4.717-1.838-6.162c-1.164-4.824-2.958-6.879-6.854-7.854c-1.305-0.326-3.56-1.254-6.17-2.327
			c-5.188-2.132-12.293-5.052-14.706-4.175c-3.425,1.245-7.433,5.838-9.071,8.094c-0.623,0.857-2.4,1.498-4.281,2.179
			c-2.114,0.765-4.51,1.63-4.51,2.705c0,2.324,2.621,4.503,7.195,5.979c5.012,1.616,13.565-4.573,13.652-4.636
			c0.059-0.043,0.136-0.049,0.201-0.018c0.885,0.443,1.971,0.949,3.475,1.652c0.739,0.345,1.573,0.734,2.518,1.178
			c2.965,1.396,4.773,8.818,4.773,9.836c0,0.107-0.085,0.193-0.193,0.193c-0.107,0-0.193-0.086-0.193-0.193
			c0-0.658-0.857-4.342-2.309-6.97c0.057,12.076,0.029,21.155-0.197,22.118c-0.626,2.662-3.527,5.968-9.648,6.525
			c-1.641,0.148-5.116,0.224-10.334,0.224c-0.002,0-0.002,0-0.002,0c-4.146,0-8.754-0.047-12.886-0.11
			c3.563,3.594,9.329,8.742,15.474,10.677c7.549,2.377,12.46,5.206,14.593,8.405c1.589,2.383,8.169,17.607,8.524,19.392
			c0.332,1.653,2.991,5.927,4.586,7.042c0.027,0.02,0.145,0.078,0.564,0.078c4.156,0.001,24.998-5.824,29.938-8.172l0.201,0.314
			l0.396,0.612c0.529-0.446,1.845-1.032,3.369-1.712C453.896,149.054,456.517,147.888,456.638,147.238z"/>
		<path fill="#7B4C3E" d="M456.852,146.812c-0.656-0.658-4.854-6.673-8.913-12.49c-3.071-4.401-5.974-8.56-7.394-10.476
			c-2.675-3.612-9.783-13.209-9.953-20.211c-0.118-4.822-2.654-12.856-4.507-18.723c-0.796-2.524-1.485-4.704-1.83-6.137
			c-1.188-4.929-3.124-7.135-7.137-8.139c-1.276-0.319-3.521-1.24-6.117-2.309c-1.194-0.49-2.448-1.007-3.712-1.505
			c-0.037-4.593-0.075-9.264-0.113-13.818c-0.15-17.604-0.279-32.807-0.135-34.466c0.348-3.988-2.563-6.885-4.797-7.444
			c-0.636-0.156-4.063-0.234-10.477-0.234c-6.533,0-15.092,0.08-21.967,0.145c-4.885,0.047-9.1,0.085-11.377,0.085
			c-2.419,0-5.014,2.349-5.365,7.591c-0.16,2.418-0.244,18.452-0.223,36.391c-0.725-0.207-1.404-0.356-2.039-0.428
			c-0.535-0.063-1.067-0.096-1.577-0.096c-2.337,0-4.181,0.634-5.333,1.831c-0.922,0.959-1.359,2.235-1.3,3.793
			c0.14,3.609,5.388,6.462,10.282,7.886c0,0.087,0,0.174,0,0.26c-0.496-0.092-0.979-0.137-1.423-0.137
			c-0.442,0-0.858,0.041-1.238,0.123c-2.011,0.432-3.319,1.978-3.587,4.242c-0.293,2.467,0.727,5.133,2.34,6.373
			c-1.664,0.548-2.748,2.002-3.001,4.055c-0.345,2.811,0.938,5.882,2.86,6.847c0.095,0.047,0.19,0.092,0.286,0.133
			c-0.01,0.003-0.019,0.004-0.028,0.007c-1.714,0.424-2.818,1.852-3.105,4.024c-0.376,2.86,0.781,5.997,2.583,6.991
			c0.704,0.39,1.45,0.588,2.218,0.588c0.871,0,1.693-0.244,2.421-0.684c0.105,4.859,0.234,8.017,0.392,8.52
			c0.879,2.807,5.338,3.389,8.617,3.582c1.092,0.063,5.824,0.185,11.584,0.275c3.561,3.627,9.52,9.045,15.908,11.057
			c7.465,2.35,12.306,5.125,14.389,8.249c1.732,2.598,8.164,17.742,8.467,19.254c0.35,1.751,3.057,6.103,4.743,7.283
			c0.144,0.102,0.394,0.147,0.786,0.147l0,0c2.495,0,10.359-1.926,17.045-3.836c1.878-0.535,10.002-2.895,13.094-4.408l-0.201-0.314
			c-4.939,2.348-25.781,8.173-29.938,8.172c-0.42,0-0.537-0.059-0.564-0.078c-1.595-1.115-4.254-5.389-4.586-7.042
			c-0.355-1.784-6.936-17.009-8.524-19.392c-2.133-3.199-7.044-6.028-14.593-8.405c-6.145-1.935-11.91-7.083-15.474-10.677
			c4.132,0.063,8.74,0.11,12.886,0.11c0,0,0,0,0.002,0c5.218,0,8.693-0.075,10.334-0.224c6.121-0.558,9.022-3.863,9.648-6.525
			c0.227-0.963,0.254-10.042,0.197-22.118c1.451,2.628,2.309,6.312,2.309,6.97c0,0.107,0.086,0.193,0.193,0.193
			c0.108,0,0.193-0.086,0.193-0.193c0-1.018-1.809-8.439-4.773-9.836c-0.944-0.443-1.778-0.833-2.518-1.178
			c-1.504-0.703-2.59-1.209-3.475-1.652c-0.065-0.031-0.143-0.025-0.201,0.018c-0.087,0.063-8.641,6.252-13.652,4.636
			c-4.574-1.476-7.195-3.654-7.195-5.979c0-1.075,2.396-1.94,4.51-2.705c1.881-0.681,3.658-1.321,4.281-2.179
			c1.639-2.256,5.646-6.849,9.071-8.094c2.413-0.877,9.519,2.043,14.706,4.175c2.61,1.073,4.865,2.001,6.17,2.327
			c3.896,0.975,5.689,3.029,6.854,7.854c0.35,1.445,1.039,3.632,1.838,6.162c1.846,5.844,4.371,13.85,4.486,18.615
			c0.154,6.315,5.443,14.236,10.033,20.433c1.414,1.911,4.316,6.067,7.387,10.468c4.066,5.83,8.272,11.858,8.955,12.54
			c0.066,0.065,0.066,0.112,0.06,0.154c-0.121,0.649-2.742,1.815-4.653,2.665c-1.524,0.68-2.84,1.266-3.369,1.712
			c-0.008,0.006-0.017,0.012-0.021,0.019c-0.083,0.069-0.09,0.191-0.02,0.271c0.037,0.045,0.092,0.066,0.145,0.066
			c0.047,0,0.092-0.016,0.129-0.048c0.469-0.409,1.84-1.021,3.294-1.667c2.85-1.267,4.729-2.157,4.876-2.947
			C457.051,147.125,456.994,146.952,456.852,146.812z M382.666,74.42c-2.451,0.886-4.768,1.723-4.768,3.068
			c0,1.472,0.972,4.251,7.465,6.347c0.626,0.202,1.297,0.291,1.998,0.291c4.854-0.001,11.021-4.282,11.904-4.915
			c0.872,0.435,1.933,0.929,3.38,1.604c0.269,0.127,0.555,0.26,0.852,0.397c-0.003,12.649-0.136,19.773-0.396,20.556
			c-0.767,0.17-7.84,0.35-18.358,0.35h-0.005c-15.576,0-26.51-0.379-27.334-0.943c-0.05-0.694-0.16-7.282-0.267-16.369
			c0.083-0.546,0.077-1.078-0.019-1.587c-0.021-1.884-0.041-3.858-0.061-5.899c0.61-0.842,1.045-1.85,1.23-2.965
			c0.228-1.355-0.12-2.627-1.012-3.681c-0.088-0.105-0.183-0.207-0.279-0.307c-0.025-2.997-0.044-6.063-0.061-9.122
			c-0.182-34.735,0.326-39.816,0.568-40.322c0.902-0.306,12.09-0.551,25.181-0.551c11.348,0,19.419,0.197,20.351,0.491
			c0.002,0.246,0.011,0.906,0.021,1.917c0.195,16.627,0.324,30.924,0.389,42.607c-3.174-1.094-5.99-1.765-7.431-1.24
			c-3.513,1.277-7.587,5.941-9.251,8.229C386.213,73.138,384.41,73.789,382.666,74.42z M406.834,106.54
			c-0.597,2.535-3.395,5.689-9.309,6.228c-1.627,0.147-5.092,0.223-10.299,0.223c-0.002,0-0.002,0-0.002,0
			c-10.17,0-23.104-0.284-24.997-0.396c-1.824-0.107-7.374-0.434-8.273-3.312c-0.157-0.505-0.286-3.714-0.392-8.647
			c1.322-0.961,2.279-2.607,2.574-4.631c0.221-1.496-0.171-2.876-1.136-3.99c-0.437-0.506-0.981-0.941-1.591-1.29
			c-0.006-0.258-0.006-0.516-0.012-0.776c1.512-0.659,2.738-1.993,3.37-3.709c0.103,8.598,0.209,14.645,0.257,15.026
			c0.034,0.281,0.089,0.708,9.201,0.999c4.82,0.154,11.395,0.24,18.512,0.24c0.002,0,0.002,0,0.005,0
			c7.145,0,17.986-0.107,18.573-0.402c0.207-0.103,0.562-0.279,0.566-20.709c0.403,0.189,0.828,0.387,1.279,0.6
			c0.683,0.321,1.303,1.001,1.854,1.857C407.074,96.096,407.057,105.6,406.834,106.54z M346.357,94.035
			c0.153-1.16,0.723-3.183,2.814-3.7c0.303-0.074,0.638-0.113,0.994-0.113c1.688,0,3.469,0.803,4.543,2.045
			c0.887,1.027,1.249,2.299,1.047,3.682c-0.451,3.078-2.5,5.228-4.982,5.228c-0.702,0-1.385-0.181-2.029-0.537
			C347.098,99.729,346.005,96.704,346.357,94.035z M346.345,83.022c0.147-1.208,0.752-3.314,3.13-3.847
			c0.336-0.077,0.707-0.114,1.102-0.114c1.635,0,3.88,0.698,5.209,2.258c0.849,1,1.175,2.165,0.965,3.467
			c-0.477,2.955-2.58,5.054-5.175,5.218c-0.466-0.108-0.94-0.169-1.409-0.169c-0.072,0-0.143,0.004-0.213,0.006
			c-0.327-0.09-0.646-0.209-0.959-0.367C347.206,88.577,346.017,85.683,346.345,83.022z M347.004,72.591
			c0.147-1.229,0.768-3.368,3.285-3.908c0.354-0.076,0.742-0.115,1.157-0.115c1.765,0,4.159,0.729,5.536,2.356
			c0.827,0.978,1.137,2.11,0.926,3.366c-0.426,2.535-2.107,4.438-4.291,5.035c-1.035-0.441-2.129-0.65-3.041-0.65
			c-0.402,0-0.783,0.039-1.135,0.112C347.787,77.73,346.712,75.061,347.004,72.591z M353.025,90.097
			c0.003,0.144,0.005,0.287,0.005,0.43c-0.194-0.096-0.392-0.183-0.596-0.259C352.635,90.222,352.832,90.164,353.025,90.097z
			 M356.676,77.798c0.014,1.45,0.029,2.863,0.045,4.234c-0.17-0.338-0.385-0.66-0.642-0.964c-0.541-0.634-1.224-1.133-1.954-1.509
			C355.101,79.206,355.977,78.597,356.676,77.798z M403.447,22.776c-0.016-1.228-0.023-1.938-0.023-2.015
			c0-0.267,0-0.477-6.48-0.638c-3.597-0.089-8.661-0.139-14.257-0.139c-9.347,0-24.504,0.164-25.384,0.604
			c-0.211,0.105-0.563,0.282-0.719,12.832c-0.081,6.74-0.093,15.93-0.035,27.313c0.014,3.11,0.035,6.229,0.059,9.275
			c-0.963-0.818-2.183-1.346-3.359-1.613c-0.086-22.59-0.001-46.682,0.199-49.689c0.33-4.967,2.813-7.229,4.977-7.229
			c2.279,0,6.496-0.039,11.381-0.086c6.873-0.064,15.43-0.145,21.963-0.145c6.294,0,9.787,0.075,10.382,0.224
			c2.101,0.526,4.834,3.262,4.508,7.034c-0.147,1.679-0.019,16.891,0.13,34.503c0.039,4.423,0.076,9.054,0.113,13.661
			c-1.032-0.404-2.063-0.793-3.065-1.146C403.737,47.746,403.52,29.03,403.447,22.776z M350.754,55.026
			c0.641,0.073,1.337,0.231,2.082,0.448c0.006,4.013,0.016,8.114,0.032,12.179c-4.817-1.431-9.769-4.225-9.896-7.496
			c-0.057-1.449,0.347-2.631,1.192-3.51c1.077-1.119,2.825-1.713,5.055-1.713C349.715,54.935,350.23,54.966,350.754,55.026z"/>
		<path fill="#8C625B" d="M386.514,14.062H373.59c-0.664,0-1.179,1.039-1.179,1.935c0,0.337,0.071,0.618,0.208,0.815
			c0.141,0.205,0.353,0.311,0.624,0.311h13.099c0.73,0,1.055-0.77,1.055-1.53C387.396,14.841,387.066,14.062,386.514,14.062z"/>
		<path fill="#7B4C3E" d="M386.514,13.675H373.59c-0.923,0-1.564,1.224-1.564,2.321c0,0.415,0.094,0.771,0.275,1.034
			c0.214,0.313,0.54,0.479,0.942,0.479h13.099c0.994,0,1.443-0.963,1.443-1.917C387.785,14.64,387.348,13.675,386.514,13.675z
			 M386.342,17.122h-13.099c-0.271,0-0.483-0.105-0.624-0.311c-0.137-0.197-0.208-0.479-0.208-0.815
			c0-0.896,0.515-1.935,1.179-1.935h12.924c0.553,0,0.883,0.779,0.883,1.53C387.396,16.353,387.072,17.122,386.342,17.122z"/>
		<path fill="#8C625B" d="M394.246,15.592c0-1.033-0.84-1.874-1.874-1.874c-1.032,0-1.874,0.841-1.874,1.874
			c0,1.034,0.842,1.874,1.874,1.874C393.406,17.466,394.246,16.626,394.246,15.592z"/>
		<path fill="#7B4C3E" d="M392.372,13.331c-1.245,0-2.26,1.014-2.26,2.261c0,1.248,1.015,2.261,2.26,2.261
			c1.248,0,2.262-1.013,2.262-2.261C394.634,14.345,393.62,13.331,392.372,13.331z M390.498,15.592c0-1.033,0.842-1.874,1.874-1.874
			c1.034,0,1.874,0.841,1.874,1.874c0,1.034-0.84,1.874-1.874,1.874C391.34,17.466,390.498,16.626,390.498,15.592z"/>
		<path fill="#8C625B" d="M385.762,105.571h-12.627c-0.213,0-0.387,0.174-0.387,0.386v2.976c0,0.214,0.174,0.388,0.387,0.388h12.627
			c0.213,0,0.386-0.174,0.386-0.388v-2.976C386.147,105.745,385.975,105.571,385.762,105.571z"/>
		<path fill="#7B4C3E" d="M385.762,105.185h-12.627c-0.427,0-0.773,0.346-0.773,0.772v2.976c0,0.427,0.347,0.774,0.773,0.774h12.627
			c0.427,0,0.771-0.348,0.771-0.774v-2.976C386.533,105.53,386.188,105.185,385.762,105.185z M386.147,108.933
			c0,0.214-0.173,0.388-0.386,0.388h-12.627c-0.213,0-0.387-0.174-0.387-0.388v-2.976c0-0.212,0.174-0.386,0.387-0.386h12.627
			c0.213,0,0.386,0.174,0.386,0.386V108.933z"/>
		<path fill="#FCCA94" d="M343.373,57.835c-0.299,0.673-0.434,1.447-0.4,2.322c0.127,3.271,5.078,6.065,9.896,7.496
			c-0.007-1.317-0.01-2.637-0.015-3.957c-1.139-0.357-2.26-0.76-3.352-1.252C347.154,61.386,344.932,59.851,343.373,57.835z"/>
		<path fill="#FCCA94" d="M357.764,74.94c-0.649,0.208-1.303,0.406-1.966,0.554c-2.939,0.65-6.089,0.222-8.778-1.12
			c0.242,1.872,1.164,3.61,2.422,4.413c0.352-0.073,0.732-0.112,1.135-0.112c0.912,0,2.006,0.209,3.041,0.65
			C355.608,78.781,357.18,77.146,357.764,74.94z"/>
		<path fill="#FCCA94" d="M356.634,85.358c-2.717,1.118-5.747,1.363-8.491,0.349c-0.628-0.232-1.238-0.531-1.8-0.896
			c0.234,2.063,1.261,3.965,2.651,4.662c0.313,0.158,0.632,0.277,0.959,0.367c0.07-0.002,0.141-0.006,0.213-0.006
			c0.469,0,0.943,0.061,1.409,0.169C353.999,89.851,355.994,88.009,356.634,85.358z"/>
		<path fill="#FCCA94" d="M355.444,97.28c-0.726,0.302-1.49,0.513-2.282,0.6c-2.578,0.281-5.225-0.896-6.871-2.883
			c-0.018,2.396,1.002,4.84,2.453,5.642c0.645,0.356,1.327,0.537,2.029,0.537C352.879,101.176,354.673,99.628,355.444,97.28z"/>
		<path fill="#FCCA94" d="M410.588,130.556c-0.517-3.611,3.094-9.026,1.548-9.284c-1.548-0.257-1.495-0.28-6.062,0.773
			c-1.678,0.388-8.511-1.547-6.833-3.353c1.675-1.805,5.415-3.738,7.35-5.545c1.935-1.806,8.253-12.25,8.253-15.088
			c0-2.836-0.518-16.505-3.353-19.084c-2.839-2.579-11.22-6.447-12.896-5.803c-1.676,0.646-6.449,4.771-12.25,7.351
			c-2.092,0.929-3.826,1.12-5.195,0.986c1.139,0.733,2.594,1.396,4.332,1.957c5.012,1.616,13.565-4.573,13.652-4.636
			c0.059-0.043,0.136-0.049,0.201-0.018c0.885,0.443,1.971,0.949,3.475,1.652c0.739,0.345,1.573,0.734,2.518,1.178
			c2.965,1.396,4.773,8.818,4.773,9.836c0,0.107-0.085,0.193-0.193,0.193c-0.107,0-0.193-0.086-0.193-0.193
			c0-0.658-0.857-4.342-2.309-6.97c0.057,12.076,0.029,21.155-0.197,22.118c-0.626,2.662-3.527,5.968-9.648,6.525
			c-1.641,0.148-5.116,0.224-10.334,0.224c-0.002,0-0.002,0-0.002,0c-4.146,0-8.754-0.047-12.886-0.11
			c3.563,3.594,9.329,8.742,15.474,10.677c7.549,2.377,12.46,5.206,14.593,8.405c1.589,2.383,8.169,17.607,8.524,19.392
			c0.332,1.653,2.991,5.927,4.586,7.042c0.027,0.02,0.145,0.078,0.564,0.078c1.911,0.001,7.348-1.229,13.145-2.787
			C421.734,150.856,411.038,133.712,410.588,130.556z"/>
		<path fill="#FCCA94" d="M397.541,71.365c-0.641,0.403-1.174,0.97-1.773,1.433c-0.613,0.471-1.295,0.85-1.896,1.336
			c-0.105,0.088,0.008,0.256,0.129,0.221c0.751-0.21,1.415-0.625,2.07-1.037c0.679-0.428,1.393-0.897,1.884-1.539
			C398.143,71.532,397.785,71.213,397.541,71.365z"/>
		<path fill="#FCCA94" d="M398.258,69.812c-0.262,0.104-0.497,0.215-0.738,0.358c-0.263,0.156-0.55,0.294-0.771,0.509
			c-0.169,0.164,0.005,0.439,0.225,0.385c0.265-0.065,0.505-0.215,0.743-0.34c0.262-0.135,0.5-0.275,0.736-0.449
			C398.666,70.119,398.545,69.696,398.258,69.812z"/>
		<path fill="#FCCA94" d="M410.383,109.202c-1.572,1.619-2.979,3.641-4.219,5.527c-0.135,0.205,0.172,0.438,0.338,0.26
			c1.545-1.647,3.18-3.487,4.389-5.398C411.088,109.278,410.64,108.941,410.383,109.202z"/>
		<path fill="#FCCA94" d="M412.059,108.902c-0.381,0.548-0.632,1.194-0.919,1.796c-0.127,0.27,0.263,0.506,0.405,0.236
			c0.322-0.606,0.699-1.207,0.92-1.86C412.553,108.82,412.195,108.706,412.059,108.902z"/>
		<path fill="#FCCA94" d="M418.881,114.474c-0.73,0.896-1.438,1.811-2.162,2.713c-0.66,0.822-1.434,1.58-2.021,2.455
			c-0.096,0.142,0.095,0.338,0.238,0.238c1.765-1.232,3.284-3.225,4.448-5.017C419.58,114.56,419.111,114.19,418.881,114.474z"/>
		<path fill="#FCCA94" d="M421.479,114.107c-0.59,0.688-1.173,1.457-1.487,2.316c-0.091,0.252,0.275,0.458,0.448,0.263
			c0.586-0.664,1.043-1.47,1.503-2.222C422.115,114.183,421.7,113.851,421.479,114.107z"/>
		<path fill="#FCCA94" d="M418.497,139.538c-0.933-1.079-1.854-2.188-2.664-3.362c-0.38-0.553-0.719-1.134-1.048-1.718
			c-0.196-0.35-0.33-0.811-0.69-1.017c-0.089-0.051-0.189,0.015-0.194,0.11c0,0.016,0,0.033-0.004,0.049
			c0,0.033,0.023,0.061,0.054,0.07c0.014,0.003,0.026,0.008,0.04,0.011c0.014,0.005,0.025-0.005,0.032-0.018
			c-0.149,0.384,0.509,1.317,0.669,1.625c0.313,0.594,0.666,1.165,1.035,1.726c0.697,1.067,1.494,1.998,2.442,2.85
			C418.393,140.064,418.69,139.763,418.497,139.538z"/>
		<path fill="#FCCA94" d="M419.473,138.306c-0.561-0.615-1.138-1.236-1.611-1.924c-0.16-0.232-0.535-0.023-0.383,0.225
			c0.475,0.787,1.016,1.461,1.768,1.996C419.429,138.733,419.612,138.458,419.473,138.306z"/>
		<path fill="#FCCA94" d="M350.988,61.904c-0.675-0.504-1.697-0.999-2.551-1.032c-0.17-0.007-0.223,0.227-0.084,0.311
			c0.349,0.207,0.759,0.316,1.131,0.484c0.433,0.195,0.854,0.416,1.289,0.603C351.026,62.377,351.209,62.067,350.988,61.904z"/>
		<path fill="#FCCA94" d="M351.148,60.933c-0.24-0.004-0.499-0.009-0.722-0.109c-0.185-0.082-0.337,0.164-0.159,0.274
			c0.278,0.176,0.605,0.26,0.921,0.131C351.338,61.167,351.33,60.935,351.148,60.933z"/>
		<path fill="#FCCA94" d="M356.549,73.843c-0.855,0.478-1.668,0.77-2.632,0.931c-0.274,0.046-0.188,0.445,0.062,0.461
			c1.027,0.063,2.113-0.313,2.881-0.987C357.085,74.048,356.798,73.705,356.549,73.843z"/>
		<path fill="#FCCA94" d="M356.332,72.821c-0.216,0.243-0.526,0.415-0.843,0.484c-0.159,0.034-0.127,0.308,0.038,0.289
			c0.434-0.051,0.762-0.256,1.006-0.619C356.615,72.854,356.428,72.712,356.332,72.821z"/>
		<path fill="#FCCA94" d="M354.715,84.505c-1.286,0.186-2.532,0.525-3.831,0.649c-0.156,0.016-0.156,0.228,0,0.241
			c1.341,0.129,2.757,0.072,3.993-0.502C355.113,84.782,354.928,84.476,354.715,84.505z"/>
		<path fill="#FCCA94" d="M353.855,96.911c-0.369-0.041-0.734-0.046-1.104-0.072c-0.362-0.027-0.718-0.105-1.079-0.125
			c-0.145-0.007-0.186,0.192-0.07,0.261c0.654,0.391,1.574,0.495,2.305,0.308C354.126,97.226,354.057,96.933,353.855,96.911z"/>
		<path fill="#FCCA94" d="M354.451,96.181c-0.199,0.094-0.47,0.062-0.66-0.038c-0.105-0.056-0.215,0.077-0.129,0.166
			c0.248,0.257,0.615,0.267,0.896,0.055C354.667,96.282,354.576,96.122,354.451,96.181z"/>
		<path fill="#FFE6C6" d="M393.814,66.744c-0.992,0.587-1.764,1.333-2.521,2.196c-0.716,0.814-1.538,1.81-1.839,2.86
			c-0.055,0.192,0.189,0.327,0.328,0.19c0.764-0.746,1.324-1.716,2.045-2.516c0.729-0.807,1.56-1.521,2.329-2.286
			C394.388,66.962,394.094,66.581,393.814,66.744z"/>
		<path fill="#FFE6C6" d="M396.222,66.272c-0.323,0.066-0.65,0.086-0.979,0.126c-0.165,0.021-0.291,0.269-0.096,0.358
			c0.409,0.189,0.858,0.134,1.236-0.098C396.596,66.53,396.453,66.226,396.222,66.272z"/>
		<path fill="#FFE6C6" d="M427.601,93.999c-0.358-1.975-1.141-3.875-1.731-5.789c-0.592-1.919-1.039-3.912-1.759-5.786
			c-0.073-0.194-0.42-0.188-0.392,0.054c0.233,2.009,0.835,3.999,1.357,5.95c0.526,1.962,0.981,4.013,1.889,5.839
			C427.152,94.642,427.666,94.363,427.601,93.999z"/>
		<path fill="#FFE6C6" d="M427.984,95.48c-0.01-0.322-0.48-0.319-0.498,0c-0.046,0.764-0.014,1.479,0.34,2.165
			c0.094,0.181,0.402,0.102,0.387-0.104C428.16,96.853,428.004,96.174,427.984,95.48z"/>
		<path fill="#FFE6C6" d="M442.242,128.679c-0.866-1.273-1.789-2.491-2.738-3.703c-1.098-1.404-2.501-2.779-3.027-4.513
			c-0.045-0.151-0.256-0.115-0.266,0.037c-0.093,1.486,1.297,2.847,2.113,3.96c1.13,1.546,2.254,3.083,3.489,4.549
			C442.014,129.245,442.413,128.935,442.242,128.679z"/>
		<path fill="#FFE6C6" d="M444.302,131.995c-0.124-0.178-0.235-0.359-0.36-0.534c-0.145-0.2-0.242-0.401-0.216-0.651
			c0.03-0.283-0.425-0.335-0.49-0.066c-0.166,0.674,0.251,1.188,0.781,1.535C444.188,132.392,444.42,132.167,444.302,131.995z"/>
		<path fill="#FFE6C6" d="M348.681,55.724c-0.987,0.104-2.05,0.301-2.948,0.743c-0.221,0.109-0.113,0.464,0.125,0.458
			c0.973-0.025,1.998-0.337,2.891-0.697C348.994,56.131,348.993,55.692,348.681,55.724z"/>
		<path fill="#FFE6C6" d="M351.17,55.795c-0.125-0.043-0.259-0.104-0.39-0.118c-0.14-0.018-0.277-0.033-0.417-0.051
			c-0.176-0.02-0.205,0.263-0.041,0.306c0.138,0.034,0.272,0.07,0.406,0.104c0.129,0.033,0.277,0.021,0.406,0.026
			C351.296,56.069,351.311,55.842,351.17,55.795z"/>
		<path fill="#FFE6C6" d="M352.682,69.294c-0.996,0.019-2.053,0.182-3.011,0.449c-0.188,0.053-0.15,0.34,0.046,0.342
			c0.995,0.004,2.057-0.121,3.022-0.367C352.975,69.656,352.925,69.29,352.682,69.294z"/>
		<path fill="#FFE6C6" d="M351.527,80.179c-0.981-0.109-2.26,0.23-3.082,0.777c-0.168,0.111-0.061,0.369,0.137,0.324
			c0.501-0.113,0.985-0.296,1.486-0.41c0.503-0.112,1.019-0.131,1.521-0.246C351.857,80.563,351.768,80.205,351.527,80.179z"/>
		<path fill="#FFE6C6" d="M352.766,91.739c-0.869-0.506-1.945-0.689-2.932-0.443c-0.074,0.02-0.051,0.119,0.018,0.126
			c0.973,0.098,1.871,0.274,2.795,0.601C352.816,92.081,352.916,91.825,352.766,91.739z"/>
		<g>
			<path fill="#978072" d="M403.835,65.522c1.003,0.354,2.033,0.742,3.065,1.146c-0.037-4.607-0.074-9.238-0.113-13.661
				c-0.041-4.81-0.08-9.439-0.111-13.663c-1.007,0.676-2.016,1.346-3.029,2.007C403.718,48.702,403.79,57.215,403.835,65.522z"/>
			<path fill="#978072" d="M353.248,68.396c1.177,0.268,2.396,0.795,3.359,1.613c-0.021-2.783-0.04-5.626-0.055-8.467
				c-1.105,0.163-2.215,0.294-3.324,0.381C353.232,64.081,353.24,66.245,353.248,68.396z"/>
		</g>
		<path fill="#BB9E8B" d="M362.723,12.312c-1.619-0.311-3.754-0.281-5.27,0.473c-1.44,0.715-2.087,2.123-2.422,3.627
			c-0.043,0.195,0.209,0.302,0.316,0.135c0.767-1.188,1.395-2.418,2.805-2.93c1.412-0.514,3.092-0.332,4.57-0.539
			C363.113,13.022,363.094,12.384,362.723,12.312z"/>
		<path fill="#BB9E8B" d="M367.864,12.629c-1.034-0.152-2.223-0.142-3.245,0.099c-0.224,0.052-0.224,0.398,0,0.451
			c1.022,0.24,2.211,0.25,3.245,0.1C368.188,13.229,368.188,12.676,367.864,12.629z"/>
		<path fill="#B4DDC8" d="M375.848,71.918c-5.291,1.652-10.928,1.819-16.472,1.695c-0.339-0.007-0.679-0.018-1.019-0.026
			c-0.002,0.252-0.023,0.509-0.068,0.768c-0.186,1.115-0.62,2.123-1.23,2.965c0.02,2.041,0.04,4.016,0.061,5.899
			c0.096,0.509,0.102,1.041,0.019,1.587c0.106,9.087,0.217,15.675,0.267,16.369c0.824,0.564,11.758,0.943,27.334,0.943h0.005
			c10.519,0,17.592-0.18,18.358-0.35c0.26-0.782,0.393-7.906,0.396-20.556c-0.297-0.138-0.583-0.271-0.852-0.397
			c-1.447-0.676-2.508-1.17-3.38-1.604c-0.883,0.633-7.051,4.914-11.904,4.915c-0.701,0-1.372-0.089-1.998-0.291
			c-6.493-2.096-7.465-4.875-7.465-6.347c0-1.346,2.316-2.183,4.768-3.068c1.744-0.631,3.547-1.282,4.1-2.043
			c1.664-2.288,5.738-6.952,9.251-8.229c1.44-0.524,4.257,0.146,7.431,1.24c-0.018-3.536-0.044-7.313-0.078-11.32
			c-3.91,3.149-7.896,6.202-11.961,9.152C386.577,66.728,381.547,70.14,375.848,71.918z"/>
		<path fill="#EBF4E8" d="M360.229,23.001c-0.094-0.188-0.385-0.177-0.482,0c-0.451,0.814-0.41,1.9-0.465,2.812
			c-0.074,1.271-0.145,2.542-0.219,3.812c-0.134,2.288-0.602,4.736-0.276,7.014c0.09,0.623,0.995,0.514,1.151,0
			c0.674-2.184,0.5-4.748,0.576-7.014c0.039-1.144,0.068-2.287,0.065-3.43C360.578,25.173,360.703,23.931,360.229,23.001z"/>
		<path fill="#EBF4E8" d="M359.467,41.992c0.014-0.745,0.205-1.466,0.217-2.209c0.006-0.398-0.523-0.514-0.725-0.195
			c-0.829,1.309-0.911,3.339-0.377,4.766c0.174,0.465,0.867,0.408,0.883-0.12C359.488,43.485,359.455,42.741,359.467,41.992z"/>
		<circle fill="#FFFFFF" cx="380.026" cy="96.513" r="3.61"/>
		<circle fill="#FFFFFF" cx="371" cy="96.513" r="2.966"/>
		<circle fill="#FFFFFF" cx="363.004" cy="96.513" r="2.967"/>
		<circle fill="#FFFFFF" cx="396.79" cy="96.513" r="2.966"/>
		<circle fill="#FFFFFF" cx="388.795" cy="96.513" r="2.965"/>
	</g>
	<g>
		<path fill="#FFFFFF" d="M380.115,26.761c-0.037-0.952-0.08-1.904-0.186-2.854c-0.047-0.421-0.664-0.421-0.711,0
			c-0.104,0.949-0.137,1.9-0.184,2.854c-0.042,0.854-0.183,1.786,0.066,2.617c0.129,0.434,0.82,0.434,0.946,0
			C380.298,28.542,380.147,27.619,380.115,26.761z"/>
		<path fill="#FFFFFF" d="M385.664,25.582c-0.897,0.79-1.502,2.084-1.991,3.176c-0.178,0.399,0.337,0.909,0.657,0.509
			c0.775-0.959,1.688-2.11,1.992-3.303C386.423,25.568,385.957,25.326,385.664,25.582z"/>
		<path fill="#FFFFFF" d="M392.683,27.083c-0.726,0.274-1.343,0.706-2.007,1.1c-0.796,0.473-1.648,0.855-2.431,1.348
			c-0.401,0.253-0.146,0.891,0.322,0.767c0.835-0.223,1.628-0.62,2.396-1.009c0.779-0.395,1.564-0.789,2.176-1.422
			C393.442,27.551,393.143,26.909,392.683,27.083z"/>
		<path fill="#FFFFFF" d="M373.824,25.582c0.898,0.79,1.501,2.084,1.991,3.176c0.179,0.399-0.335,0.909-0.657,0.509
			c-0.775-0.959-1.687-2.11-1.99-3.303C373.066,25.568,373.534,25.326,373.824,25.582z"/>
		<path fill="#FFFFFF" d="M366.806,27.083c0.726,0.274,1.345,0.706,2.007,1.1c0.797,0.473,1.648,0.855,2.432,1.348
			c0.4,0.253,0.146,0.891-0.324,0.767c-0.832-0.223-1.625-0.62-2.396-1.009c-0.775-0.395-1.562-0.789-2.174-1.422
			C366.047,27.551,366.348,26.909,366.806,27.083z"/>
	</g>
	<g>
		<path fill="#FFFFFF" d="M379.375,64.868c0.037,0.952,0.079,1.904,0.184,2.854c0.047,0.421,0.664,0.421,0.712,0
			c0.105-0.95,0.138-1.901,0.185-2.854c0.039-0.855,0.182-1.786-0.067-2.617c-0.128-0.432-0.817-0.432-0.948,0
			C379.191,63.087,379.342,64.009,379.375,64.868z"/>
		<path fill="#FFFFFF" d="M373.824,66.047c0.898-0.79,1.501-2.084,1.991-3.177c0.179-0.398-0.335-0.908-0.657-0.509
			c-0.775,0.96-1.687,2.111-1.99,3.304C373.066,66.06,373.534,66.302,373.824,66.047z"/>
		<path fill="#FFFFFF" d="M366.806,64.546c0.726-0.275,1.345-0.707,2.007-1.102c0.797-0.471,1.648-0.853,2.432-1.347
			c0.4-0.253,0.146-0.89-0.324-0.767c-0.832,0.223-1.625,0.621-2.396,1.01c-0.775,0.395-1.562,0.789-2.174,1.422
			C366.047,64.078,366.348,64.72,366.806,64.546z"/>
		<path fill="#FFFFFF" d="M385.664,66.047c-0.897-0.79-1.502-2.084-1.991-3.177c-0.178-0.398,0.337-0.908,0.657-0.509
			c0.775,0.96,1.688,2.111,1.992,3.304C386.423,66.06,385.957,66.302,385.664,66.047z"/>
		<path fill="#FFFFFF" d="M392.683,64.546c-0.726-0.275-1.343-0.707-2.007-1.102c-0.796-0.471-1.648-0.853-2.431-1.347
			c-0.401-0.253-0.146-0.89,0.322-0.767c0.835,0.223,1.628,0.621,2.396,1.01c0.779,0.395,1.564,0.789,2.176,1.422
			C393.442,64.078,393.143,64.72,392.683,64.546z"/>
	</g>
	<path fill="#FFFFFF" d="M380.358,57.772c-0.052,0.014-0.108,0.025-0.165,0.037c-0.256,0.048-0.524,0.049-0.802,0.002
		c-0.282-0.047-0.562-0.158-0.829-0.331c-0.27-0.173-0.518-0.425-0.737-0.749c-0.22-0.326-0.374-0.755-0.464-1.275
		c-0.027-0.165-0.053-0.335-0.072-0.516c-0.077,0.198-0.158,0.394-0.241,0.584c-0.236,0.541-0.507,1.044-0.804,1.497
		c-0.3,0.455-0.631,0.868-0.988,1.226c-0.363,0.365-0.76,0.656-1.176,0.865c-0.152,0.077-0.323,0.138-0.506,0.186
		c-0.054,0.014-0.11,0.025-0.167,0.035c-0.257,0.049-0.523,0.05-0.802,0.004c-0.279-0.047-0.559-0.156-0.822-0.324
		c-0.266-0.167-0.516-0.422-0.742-0.756c-0.214-0.314-0.369-0.716-0.462-1.191c-0.091-0.456-0.156-0.957-0.194-1.486
		c-0.036-0.525-0.063-1.085-0.075-1.662c-0.012-0.566-0.048-1.129-0.104-1.676c-0.056-0.539-0.144-1.058-0.261-1.541
		c-0.115-0.465-0.293-0.88-0.531-1.23c-0.374-0.555-0.904-0.869-1.621-0.961c-0.404-0.053-0.836-0.021-1.285,0.09
		c-0.36,0.09-0.741,0.235-1.131,0.43c-0.193,0.098-0.365,0.197-0.51,0.294c-0.147,0.099-0.281,0.196-0.395,0.29l-0.2,0.164
		l-0.185-0.273l-0.007-0.055c-0.067-0.48-0.022-0.967,0.13-1.445c0.141-0.418,0.4-0.863,0.775-1.327
		c0.378-0.469,0.973-0.911,1.768-1.31c0.419-0.21,0.832-0.367,1.227-0.466c0.342-0.085,0.678-0.129,1-0.128
		c0.686-0.002,1.318,0.113,1.877,0.341c0.556,0.227,1.043,0.525,1.451,0.89c0.402,0.359,0.725,0.715,0.957,1.057
		c0.351,0.52,0.588,1.16,0.707,1.903c0.115,0.722,0.178,1.477,0.189,2.248c0.014,0.769-0.006,1.53-0.049,2.265
		c-0.043,0.721-0.047,1.35-0.014,1.869c0.032,0.49,0.116,0.851,0.248,1.068c0.041,0.069,0.099,0.131,0.287,0.084
		c0.068-0.018,0.147-0.049,0.232-0.091c0.078-0.04,0.245-0.167,0.5-0.587c0.209-0.35,0.414-0.785,0.609-1.297
		c0.194-0.518,0.376-1.1,0.536-1.733c0.161-0.632,0.282-1.274,0.357-1.907c0.073-0.628,0.087-1.242,0.04-1.826
		c-0.044-0.574-0.166-1.082-0.357-1.508c-0.029-0.068-0.063-0.134-0.098-0.194c-0.029-0.06-0.066-0.116-0.098-0.166
		c-0.056-0.083-0.135-0.128-0.244-0.146l-0.284-0.048l0.104-0.27c0.068-0.176,0.157-0.349,0.269-0.516l0.003-0.006
		c0.104-0.15,0.242-0.311,0.41-0.478c0.174-0.173,0.404-0.333,0.682-0.472c0.146-0.072,0.294-0.129,0.44-0.166
		c0.305-0.075,0.612-0.072,0.915,0.006c0.451,0.122,0.799,0.357,1.033,0.705c0.35,0.516,0.598,1.148,0.736,1.879
		c0.134,0.713,0.219,1.455,0.253,2.207c0.033,0.747,0.049,1.484,0.046,2.189c0,0.695,0.025,1.303,0.082,1.805
		c0.053,0.473,0.153,0.815,0.297,1.019c0.05,0.069,0.121,0.126,0.311,0.08c0.072-0.019,0.154-0.05,0.241-0.095
		c0.513-0.258,0.88-0.686,1.116-1.306c0.248-0.65,0.42-1.442,0.516-2.35c0.095-0.923,0.143-1.956,0.14-3.073
		c-0.002-1.128,0.022-2.312,0.069-3.518c0.049-1.209,0.154-2.439,0.316-3.662c0.161-1.23,0.459-2.416,0.877-3.522
		c0.425-1.113,1.02-2.148,1.768-3.075c0.754-0.936,1.759-1.723,2.986-2.338c0.701-0.354,1.41-0.619,2.11-0.794
		c0.04-0.011,0.081-0.021,0.123-0.03c0.742-0.174,1.438-0.251,2.071-0.229c0.64,0.022,1.215,0.135,1.709,0.333
		c0.513,0.208,0.902,0.503,1.156,0.88c0.16,0.236,0.266,0.474,0.316,0.707c0.047,0.217,0.076,0.416,0.084,0.591
		c0.01,0.21-0.006,0.413-0.048,0.604l-0.048,0.225l-0.227-0.041c-0.354-0.068-0.762-0.096-1.213-0.08
		c-0.379,0.019-0.85,0.089-1.392,0.211c-0.042,0.01-0.085,0.02-0.128,0.03c-0.502,0.125-1.05,0.338-1.633,0.63
		c-1.029,0.516-1.898,1.188-2.588,1.996c-0.693,0.814-1.276,1.733-1.73,2.73c-0.457,1.006-0.834,2.09-1.123,3.219
		c-0.292,1.141-0.559,2.307-0.797,3.465c-0.233,1.151-0.474,2.306-0.711,3.435c-0.236,1.127-0.537,2.191-0.887,3.16
		c-0.357,0.979-0.813,1.861-1.355,2.622c-0.552,0.773-1.263,1.383-2.112,1.809c-0.021,0.01-0.038,0.018-0.061,0.022
		c-0.026,0.019-0.057,0.038-0.093,0.055C380.711,57.665,380.542,57.728,380.358,57.772"/>
	<path fill="#D7D7D7" d="M391.606,31.473c0.04-0.011,0.08-0.019,0.122-0.03c0.723-0.17,1.393-0.243,2.006-0.222
		c0.617,0.021,1.159,0.126,1.631,0.317c0.471,0.189,0.822,0.453,1.049,0.791c0.146,0.213,0.238,0.422,0.283,0.626
		c0.044,0.204,0.068,0.388,0.076,0.552c0.008,0.189-0.004,0.371-0.043,0.545c-0.373-0.07-0.795-0.098-1.264-0.084
		c-0.397,0.021-0.876,0.092-1.435,0.218c-0.045,0.009-0.089,0.021-0.134,0.031c-0.521,0.13-1.082,0.347-1.682,0.647
		c-1.064,0.533-1.949,1.217-2.66,2.053c-0.712,0.837-1.301,1.765-1.766,2.789c-0.465,1.021-0.845,2.107-1.139,3.258
		c-0.293,1.148-0.559,2.309-0.797,3.476c-0.239,1.166-0.477,2.313-0.713,3.433c-0.236,1.121-0.529,2.163-0.879,3.127
		c-0.351,0.965-0.793,1.821-1.325,2.566c-0.531,0.745-1.208,1.324-2.026,1.735c-0.002,0.003-0.006,0.003-0.011,0.005
		c-0.011,0.002-0.023,0.002-0.036,0.001c-0.021,0.021-0.055,0.046-0.106,0.071c-0.138,0.07-0.29,0.125-0.457,0.166
		c-0.049,0.012-0.101,0.023-0.153,0.033c-0.227,0.043-0.468,0.045-0.719,0.002c-0.251-0.041-0.498-0.14-0.74-0.297
		c-0.242-0.156-0.465-0.384-0.67-0.683c-0.201-0.3-0.342-0.692-0.426-1.183c-0.082-0.49-0.135-1.031-0.162-1.625
		c-0.168,0.563-0.369,1.109-0.6,1.639c-0.232,0.53-0.493,1.018-0.787,1.461c-0.289,0.445-0.609,0.841-0.956,1.188
		c-0.348,0.35-0.72,0.624-1.116,0.823c-0.137,0.068-0.289,0.123-0.455,0.167c-0.05,0.011-0.102,0.021-0.154,0.032
		c-0.227,0.044-0.468,0.044-0.719,0.002c-0.252-0.043-0.496-0.139-0.735-0.291c-0.241-0.15-0.466-0.381-0.673-0.689
		c-0.196-0.289-0.34-0.658-0.428-1.105c-0.088-0.445-0.15-0.933-0.189-1.455c-0.037-0.525-0.062-1.077-0.073-1.652
		c-0.015-0.574-0.049-1.14-0.105-1.693c-0.056-0.554-0.147-1.076-0.267-1.572c-0.121-0.496-0.309-0.933-0.564-1.309
		c-0.412-0.607-1.006-0.961-1.787-1.063c-0.434-0.055-0.891-0.023-1.372,0.097c-0.378,0.093-0.771,0.243-1.179,0.446
		c-0.204,0.104-0.383,0.207-0.535,0.311c-0.154,0.103-0.292,0.203-0.412,0.303l-0.01-0.016c-0.063-0.447-0.023-0.894,0.12-1.34
		c0.132-0.39,0.376-0.808,0.737-1.252c0.356-0.445,0.92-0.86,1.688-1.246c0.406-0.203,0.8-0.354,1.178-0.447
		c0.326-0.082,0.64-0.123,0.943-0.123c0.66-0.002,1.257,0.106,1.789,0.324c0.532,0.219,0.994,0.5,1.384,0.848
		c0.388,0.35,0.693,0.686,0.916,1.015c0.333,0.491,0.556,1.095,0.671,1.806c0.113,0.713,0.177,1.451,0.187,2.215
		c0.012,0.765-0.004,1.515-0.049,2.247c-0.044,0.733-0.048,1.366-0.013,1.897c0.033,0.533,0.127,0.925,0.281,1.178
		c0.114,0.188,0.296,0.25,0.545,0.189c0.086-0.021,0.18-0.059,0.282-0.109c0.179-0.09,0.376-0.314,0.595-0.678
		c0.219-0.361,0.426-0.805,0.627-1.332c0.199-0.528,0.383-1.115,0.547-1.761c0.162-0.644,0.283-1.288,0.359-1.936
		c0.079-0.646,0.092-1.271,0.045-1.874c-0.049-0.604-0.175-1.131-0.379-1.585c-0.034-0.073-0.066-0.144-0.104-0.21
		c-0.036-0.066-0.073-0.128-0.112-0.186c-0.092-0.135-0.226-0.219-0.399-0.246c0.063-0.16,0.146-0.318,0.246-0.474
		c0.096-0.138,0.221-0.284,0.382-0.444c0.158-0.156,0.366-0.299,0.622-0.428c0.131-0.066,0.261-0.113,0.391-0.146
		c0.268-0.067,0.532-0.066,0.801,0.006c0.396,0.104,0.695,0.307,0.898,0.604c0.331,0.494,0.566,1.092,0.697,1.795
		c0.133,0.702,0.217,1.428,0.249,2.174c0.035,0.746,0.05,1.471,0.048,2.176c-0.002,0.708,0.025,1.318,0.082,1.833
		c0.057,0.516,0.172,0.892,0.34,1.13c0.125,0.174,0.313,0.231,0.561,0.17c0.087-0.021,0.185-0.061,0.29-0.113
		c0.562-0.281,0.973-0.76,1.229-1.432c0.255-0.672,0.433-1.475,0.529-2.408c0.096-0.934,0.143-1.969,0.141-3.098
		c-0.002-1.131,0.021-2.299,0.068-3.508c0.047-1.207,0.154-2.421,0.314-3.639c0.162-1.221,0.45-2.377,0.866-3.472
		c0.417-1.097,0.992-2.099,1.729-3.013c0.736-0.913,1.706-1.672,2.91-2.274C390.233,31.901,390.921,31.644,391.606,31.473
		 M391.492,31.016L391.492,31.016c-0.715,0.179-1.441,0.452-2.158,0.811c-1.258,0.632-2.289,1.44-3.065,2.401
		c-0.763,0.947-1.368,2.003-1.802,3.14c-0.427,1.124-0.727,2.326-0.893,3.576c-0.161,1.228-0.268,2.468-0.316,3.684
		c-0.05,1.208-0.071,2.396-0.07,3.526c0.002,1.109-0.043,2.135-0.139,3.049c-0.094,0.889-0.262,1.658-0.501,2.289
		c-0.216,0.563-0.544,0.95-1.001,1.18c-0.073,0.037-0.139,0.063-0.193,0.076c-0.031,0.008-0.053,0.01-0.064,0.01
		c-0.083-0.119-0.193-0.371-0.252-0.904c-0.056-0.494-0.082-1.092-0.079-1.778c0.002-0.712-0.015-1.45-0.048-2.2
		c-0.035-0.764-0.121-1.517-0.258-2.24c-0.144-0.764-0.402-1.426-0.772-1.969c-0.267-0.396-0.659-0.664-1.167-0.798
		c-0.342-0.091-0.689-0.095-1.033-0.007c-0.163,0.04-0.326,0.102-0.488,0.182c-0.299,0.15-0.549,0.324-0.742,0.516
		c-0.179,0.177-0.328,0.35-0.438,0.511l-0.003,0.005l-0.003,0.005c-0.118,0.182-0.217,0.37-0.292,0.56l-0.209,0.539l0.572,0.096
		c0.062,0.012,0.074,0.031,0.084,0.047c0.03,0.045,0.061,0.095,0.092,0.148c0.029,0.054,0.058,0.113,0.087,0.176
		c0.179,0.402,0.294,0.885,0.337,1.43c0.047,0.57,0.032,1.168-0.039,1.781c-0.074,0.622-0.192,1.254-0.351,1.877
		c-0.159,0.625-0.339,1.199-0.53,1.707c-0.189,0.499-0.389,0.922-0.59,1.259c-0.25,0.413-0.391,0.492-0.404,0.498
		c-0.07,0.036-0.134,0.06-0.184,0.073c-0.016,0.004-0.029,0.007-0.038,0.008c-0.076-0.135-0.171-0.404-0.206-0.947
		c-0.033-0.51-0.028-1.128,0.013-1.842c0.045-0.738,0.063-1.506,0.051-2.278c-0.011-0.784-0.077-1.552-0.191-2.283
		c-0.125-0.777-0.376-1.449-0.747-1.997c-0.243-0.358-0.578-0.729-0.992-1.101c-0.429-0.382-0.94-0.696-1.52-0.933
		c-0.586-0.239-1.25-0.361-1.969-0.36c-0.339,0.001-0.695,0.048-1.055,0.137c-0.41,0.103-0.841,0.265-1.275,0.484
		c-0.825,0.414-1.445,0.876-1.846,1.372c-0.391,0.485-0.666,0.956-0.814,1.396l-0.002,0.004v0.002
		c-0.163,0.512-0.211,1.033-0.139,1.551l0.016,0.107l0.061,0.091l0.011,0.016l0.29,0.427l0.398-0.328
		c0.107-0.088,0.234-0.18,0.375-0.276c0.136-0.091,0.301-0.185,0.484-0.279c0.375-0.187,0.737-0.325,1.082-0.411
		c0.42-0.105,0.824-0.133,1.199-0.086c0.645,0.084,1.121,0.365,1.457,0.859c0.221,0.328,0.389,0.717,0.496,1.157
		c0.115,0.472,0.201,0.979,0.256,1.509c0.055,0.539,0.09,1.096,0.102,1.654c0.014,0.583,0.038,1.146,0.076,1.675
		c0.037,0.539,0.105,1.049,0.197,1.515c0.101,0.506,0.268,0.936,0.499,1.277c0.243,0.363,0.519,0.641,0.813,0.824
		c0.29,0.185,0.595,0.306,0.907,0.357c0.305,0.051,0.602,0.049,0.885-0.005c0.061-0.012,0.122-0.024,0.181-0.038
		c0.198-0.051,0.386-0.119,0.554-0.203c0.439-0.221,0.855-0.527,1.237-0.91c0.367-0.369,0.71-0.795,1.017-1.262
		c0.273-0.418,0.524-0.875,0.748-1.363c0.098,0.425,0.247,0.785,0.444,1.076c0.237,0.351,0.508,0.625,0.803,0.814
		c0.294,0.189,0.604,0.313,0.919,0.365c0.305,0.051,0.601,0.05,0.883-0.003c0.063-0.012,0.121-0.025,0.18-0.04
		c0.199-0.051,0.387-0.118,0.555-0.203c0.031-0.016,0.063-0.031,0.09-0.05c0.021-0.007,0.043-0.016,0.064-0.026
		c0.883-0.444,1.623-1.078,2.199-1.883c0.553-0.777,1.018-1.679,1.383-2.679c0.354-0.979,0.657-2.054,0.896-3.192
		c0.236-1.125,0.475-2.281,0.712-3.435c0.237-1.154,0.504-2.316,0.793-3.454c0.286-1.116,0.659-2.186,1.111-3.179
		c0.445-0.979,1.015-1.88,1.694-2.678c0.668-0.784,1.512-1.436,2.514-1.937c0.566-0.286,1.1-0.49,1.585-0.611
		c0.04-0.012,0.082-0.021,0.122-0.029c0.527-0.119,0.982-0.188,1.352-0.207c0.433-0.013,0.822,0.013,1.158,0.076l0.452,0.086
		l0.095-0.45c0.045-0.212,0.063-0.436,0.055-0.664l-0.002-0.002v-0.001c-0.008-0.188-0.037-0.399-0.088-0.627
		c-0.057-0.264-0.175-0.529-0.352-0.79c-0.279-0.415-0.706-0.741-1.264-0.965c-0.521-0.21-1.123-0.328-1.79-0.352
		c-0.653-0.022-1.37,0.056-2.133,0.235C391.576,30.995,391.535,31.005,391.492,31.016"/>
</g>
<g>
	
		<text transform="matrix(1 0 0 1 13.2578 149.2402)" fill="#FFFFFF" font-family="'BehindBlueEyes'" font-size="5vw" letter-spacing="2">#WitYourStation!</text>
</g>
</svg>
