<?xml version="1.0" encoding="utf-8"?>
<!-- Generator: Adobe Illustrator 16.0.0, SVG Export Plug-In . SVG Version: 6.00 Build 0)  -->
<!DOCTYPE svg PUBLIC "-//W3C//DTD SVG 1.1//EN" "http://www.w3.org/Graphics/SVG/1.1/DTD/svg11.dtd">
<svg version="1.1" id="Capa_1" xmlns="http://www.w3.org/2000/svg" xmlns:xlink="http://www.w3.org/1999/xlink" x="0px" y="0px"
	 width="366.441px" height="134.043px" viewBox="0 0 366.441 134.043" enable-background="new 0 0 366.441 134.043"
	 xml:space="preserve">
<path fill="#FFFFFF" stroke="#C2C3C9" stroke-width="3" stroke-miterlimit="10" d="M352.941,50.421H179.87
	c1.541-1.392,2.855-3.083,3.833-5.054l0.644-1.297c1.022-2.058,1.788-4.269,2.276-6.572c0.009-0.041,0.018-0.082,0.026-0.123
	c0.334-1.637,0.542-3.412,0.619-5.291c0.13-3.248-0.391-6.539-1.548-9.785c-1.805-5.059-5.218-9.547-9.882-12.992
	c-3.444-2.538-7.488-4.504-12.025-5.844c-4.033-1.189-8.479-1.846-13.215-1.95c-0.063-0.001-1.162-0.013-1.224-0.013
	c-4.168,0-8.473,0.473-12.801,1.407c-8.091,1.751-15.266,4.924-21.33,9.435c-5.494,4.09-10.283,8.994-14.234,14.578
	c-3.653,5.165-6.75,10.868-9.199,16.941c-0.317,0.785-0.629,1.572-0.936,2.361c-3.625-1.933-7.566-2.929-11.722-2.961
	c-0.043,0-0.087,0-0.131,0c-1.863,0-3.751,0.204-5.608,0.606c-1.917,0.415-3.736,0.988-5.438,1.714
	c-1.869-2.18-4.015-4.174-6.412-5.957c-3.866-2.879-8.367-4.989-13.386-6.275c-2.677-0.685-5.5-1.043-8.477-1.066l-0.22-0.001
	c-2.895,0-5.924,0.337-9.005,1.003c-6.103,1.318-11.252,3.516-15.315,6.539c-3.671,2.736-6.617,5.79-8.754,9.075
	c-0.045,0.07-0.091,0.141-0.135,0.212c-2.535,4.023-4.09,8.422-4.626,13.107l-0.039,0.342c-0.289,2.572,0.012,5.176,0.881,7.613
	l0.688,1.932c1.606,4.507,5.037,8.129,9.45,9.977c2.104,0.881,4.337,1.32,6.57,1.32c1.288,0,2.576-0.146,3.836-0.438
	c-0.128,0.624-0.267,1.249-0.413,1.874c-0.619,2.627-1.162,5.216-1.614,7.69c-0.529,2.896-0.876,5.714-1.03,8.378
	c-0.253,4.387,0.292,8.498,1.617,12.209c1.384,3.885,3.39,7.24,5.951,9.963c2.506,2.668,5.42,4.751,8.663,6.191
	c2.973,1.32,6.078,2.092,9.307,2.302c0.563,0.034,1.125,0.054,1.685,0.058h0.186c1.999,0,3.968-0.207,5.837-0.612
	c2.84-0.612,5.629-1.595,8.325-2.929c1.212,0.805,2.483,1.503,3.807,2.09c2.969,1.32,6.074,2.096,9.317,2.308
	c0.55,0.033,1.098,0.052,1.68,0.058c0,0,0.149,0,0.178,0c2,0,3.97-0.206,5.876-0.618c0.119-0.025,0.237-0.052,0.355-0.08
	c0.063-0.013,0.281-0.058,0.328-0.067c6.706-1.449,12.773-4.422,18.042-8.842c2.765-2.322,5.367-4.973,7.785-7.906
	c0.043,0,0.085,0.006,0.128,0.006h243.899c6.627,0,12-5.373,12-12V62.421C364.941,55.793,359.568,50.421,352.941,50.421z"/>
<g>
	<path fill="#A3BD31" d="M146.709,67.841c0.948,0,1.609,0.36,1.986,1.083c0.045,0.075,0.067,0.158,0.067,0.248v0.248
		c0,0.331-0.347,0.971-1.038,1.918c-0.271,0.467-2.527,4.047-6.77,10.741c-0.888,1.369-1.354,2.121-1.398,2.257
		c-0.016,7.732-0.023,12.637-0.023,14.713c0,0.557-0.504,1.023-1.512,1.399c-0.271,0.061-0.534,0.09-0.79,0.09
		c-0.993,0-1.669-0.36-2.03-1.083c-0.045-0.075-0.068-0.158-0.068-0.248c0-2.738,0.016-7.688,0.045-14.849
		c-6.183-9.252-9.357-14.043-9.522-14.374l-0.022-0.226v-0.203c0-0.723,0.632-1.233,1.896-1.535
		c0.181-0.015,0.331-0.022,0.451-0.022c1.038,0,1.828,0.534,2.37,1.603c4.648,6.995,6.994,10.516,7.04,10.561
		c0.06-0.135,2.407-3.866,7.04-11.192C144.912,68.217,145.672,67.841,146.709,67.841z"/>
	<path fill="#A3BD31" d="M158.939,68.179h0.633c1.699,0,3.414,0.579,5.145,1.738c1.76,1.278,3.002,3.265,3.724,5.957
		c0.692,2.588,1.038,5.378,1.038,8.372c0,5.386-1.001,9.612-3.002,12.682c-1.865,2.407-4.348,3.61-7.446,3.61
		c-3.249,0-5.987-1.346-8.214-4.039c-0.797-1.203-1.406-2.324-1.828-3.362c-1.098-2.948-1.646-5.949-1.646-9.004V83.32
		c0-4.844,1.271-8.643,3.813-11.396c1.31-1.294,2.324-2.099,3.047-2.414C155.841,68.623,157.42,68.179,158.939,68.179z
		 M151.742,83.659v0.315c0,3.521,0.722,6.801,2.166,9.839c1.384,2.393,3.047,3.588,4.986,3.588c1.475,0,2.73-0.744,3.77-2.233
		c0.42-0.662,0.842-1.587,1.264-2.776c0.781-2.632,1.173-5.37,1.173-8.214c0-3.55-0.542-6.739-1.624-9.567
		c-1.054-2.196-2.408-3.295-4.063-3.295h-0.068c-1.594,0-3.257,1.008-4.986,3.024c-1.144,1.549-1.881,3.302-2.211,5.258
		C151.877,80.981,151.742,82.336,151.742,83.659z"/>
	<path fill="#A3BD31" d="M191.367,67.818c0.963,0,1.67,0.346,2.121,1.037c0.061,0.105,0.105,0.219,0.135,0.339
		c0,3.821-0.225,11.08-0.676,21.776c-0.227,1.595-0.603,2.934-1.129,4.017c-0.451,0.918-1.105,1.798-1.963,2.64
		c-0.902,0.889-1.723,1.489-2.46,1.806c-1.489,0.737-3.039,1.105-4.648,1.105c-2.542,0-4.694-0.819-6.454-2.459
		c-0.813-0.858-1.377-1.716-1.692-2.573c-0.241-0.526-0.466-1.632-0.677-3.316c-0.331-3.25-0.496-7.364-0.496-12.344v-0.813
		c0-2.919,0.053-6.146,0.158-9.681c0-0.392,0.375-0.768,1.127-1.129c0.332-0.104,0.67-0.157,1.016-0.157
		c1.039,0,1.775,0.421,2.212,1.264l0.045,0.226c-0.105,3.836-0.157,7.101-0.157,9.793v0.429c0,7.071,0.315,11.968,0.947,14.69
		c0.195,0.572,0.474,1.099,0.835,1.58c0.872,0.902,1.858,1.354,2.956,1.354c1.459,0,2.844-0.722,4.152-2.166
		c0.947-1.294,1.512-2.61,1.692-3.949c0.21,0,0.474-6.845,0.79-20.535c0-0.135,0.007-0.706,0.021-1.715
		c0-0.24,0.256-0.541,0.768-0.902C190.366,67.923,190.826,67.818,191.367,67.818z"/>
	<path fill="#A3BD31" d="M206.982,67.818h0.022c4.138,0,7.003,2.7,8.598,8.101c1.203,4.017,1.806,9.463,1.806,16.338
		c-0.045,4.844-0.174,7.266-0.385,7.266c-0.496,0.678-1.211,1.016-2.143,1.016c-0.963,0-1.641-0.368-2.031-1.105
		c-0.045-0.075-0.068-0.158-0.068-0.248c0.15-2.647,0.227-4.942,0.227-6.883c0-8.771-1.054-15.104-3.16-19
		c-0.978-1.58-1.979-2.37-3-2.37c-0.873,0-1.821,1.054-2.844,3.159c-1.655,4.122-2.482,10.2-2.482,18.233v0.294
		c0,2.001,0.061,4.159,0.181,6.476c0,0.437-0.414,0.865-1.241,1.286c-0.406,0.105-0.76,0.158-1.061,0.158
		c-0.993,0-1.67-0.36-2.031-1.083c-0.121,0-0.203-2.174-0.248-6.521v-0.677c0-12.502,1.888-20.196,5.664-23.085
		C204.078,68.27,205.479,67.818,206.982,67.818z"/>
	<path fill="#A3BD31" d="M232.458,67.772c3.01,0,5.461,1.182,7.357,3.543c0.707,1.023,1.301,2.257,1.783,3.701
		c0.391,1.369,0.586,2.211,0.586,2.527v0.181c0,0.707-0.602,1.211-1.805,1.512c-0.211,0.03-0.377,0.045-0.498,0.045
		c-1.053,0-1.744-0.437-2.074-1.309c-0.303-1.354-0.617-2.438-0.949-3.25c-0.721-1.76-1.67-2.896-2.842-3.407
		c-0.648-0.271-1.219-0.406-1.717-0.406c-1.654,0-3.136,0.896-4.445,2.686c-0.571,0.918-1.037,1.865-1.398,2.844
		c-0.963,2.783-1.444,5.596-1.444,8.439v0.203c0,3.911,0.85,7.018,2.55,9.319c0.857,0.963,1.489,1.564,1.896,1.806
		c1.144,0.797,2.174,1.195,3.092,1.195c2.15,0,3.828-1.819,5.031-5.461c0.48-1.64,0.723-3.7,0.723-6.183
		c-0.496-0.091-1.1-0.136-1.807-0.136h-0.631c-0.797,0-2.061,0.068-3.791,0.203c-0.978,0-1.648-0.36-2.008-1.083
		c-0.045-0.075-0.067-0.158-0.067-0.248v-0.248c0-0.723,0.609-1.233,1.828-1.535c1.414-0.135,2.73-0.203,3.949-0.203h1.195
		c2.889,0,4.73,0.58,5.529,1.738c0.15,0.271,0.225,0.512,0.225,0.722v0.564c0,4.543-0.768,7.996-2.301,10.357
		c-1.008,1.896-2.656,3.28-4.941,4.152c-0.979,0.331-2.031,0.496-3.16,0.496c-3.429,0-6.461-1.692-9.093-5.077
		c-1.746-2.647-2.618-5.949-2.618-9.906v-0.813c0-4.092,0.85-7.853,2.55-11.283c0.481-0.962,1.166-1.88,2.054-2.753
		c0.888-0.872,1.753-1.489,2.595-1.851C229.33,68.134,230.88,67.772,232.458,67.772z"/>
	<path fill="#58167D" d="M255.093,67.772c4.211,0,7.137,1.34,8.777,4.017c0.723,1.234,1.084,2.61,1.084,4.13v0.474
		c0,1.505-0.287,2.385-0.857,2.641c-0.451,0.315-0.986,0.474-1.604,0.474h-0.066c-0.979,0-1.641-0.384-1.986-1.15
		c-0.031-0.105-0.045-0.195-0.045-0.271v-0.067c0.105-0.722,0.158-1.294,0.158-1.715c-0.061-2.467-0.957-4.077-2.686-4.829
		c-0.844-0.376-1.873-0.564-3.092-0.564c-2.617,0-4.295,0.692-5.033,2.076c-0.24,0.572-0.359,1.113-0.359,1.625v0.248
		c0,1.534,0.789,3.151,2.369,4.852c0.781,0.737,1.781,1.46,3,2.166c1.73,1.084,3.693,2.43,5.891,4.04
		c2.512,1.985,3.768,4.31,3.768,6.973c0,2.889-1.422,5.1-4.264,6.634c-1.414,0.678-3.1,1.016-5.055,1.016
		c-4.846,0-7.943-1.429-9.297-4.287c-0.242-0.692-0.361-1.339-0.361-1.94v-0.655c0-0.902,0.367-1.512,1.105-1.827
		c0.375-0.195,0.797-0.294,1.264-0.294h0.045c0.992,0,1.646,0.361,1.963,1.084c0.045,0.075,0.068,0.157,0.068,0.248v0.112
		c-0.045,0.512-0.068,0.798-0.068,0.857v0.068c0,1.926,1.287,3.054,3.859,3.385c0.391,0.061,0.977,0.098,1.76,0.112
		c2.137,0,3.551-0.85,4.242-2.55c0.227-0.707,0.338-1.286,0.338-1.737c0-1.745-0.805-3.332-2.414-4.762
		c-2.527-1.88-5.197-3.686-8.01-5.416c-0.572-0.375-1.348-1.112-2.324-2.211c-1.521-1.94-2.279-3.761-2.279-5.461v-0.79
		c0-1.67,0.818-3.204,2.459-4.604C249.337,68.473,251.888,67.772,255.093,67.772z"/>
	<path fill="#58167D" d="M276.597,67.818c1.008,0,1.746,0.398,2.211,1.195c0.047,0.181,0.068,0.316,0.068,0.406v5.912h5.506
		c1.174,0,1.949,0.429,2.324,1.286c0.031,0.091,0.045,0.174,0.045,0.249v0.203c-0.24,0.917-1,1.376-2.279,1.376h-5.596V99.14
		c0,0.421-0.316,0.805-0.947,1.15c-0.332,0.166-0.73,0.248-1.195,0.248c-0.994,0-1.709-0.368-2.145-1.105
		c-0.061-0.105-0.09-0.24-0.09-0.406v-20.58h-5.281c-1.113,0-1.895-0.376-2.346-1.128c-0.061-0.105-0.092-0.24-0.092-0.406v-0.248
		c0-0.526,0.451-0.94,1.355-1.241c0.18-0.061,0.457-0.091,0.834-0.091h5.529v-6.16c0-0.542,0.48-0.978,1.443-1.309
		C276.228,67.833,276.447,67.818,276.597,67.818z"/>
	<path fill="#58167D" d="M297.472,67.772h0.066c3.01,0,5.514,1.369,7.516,4.107c0.721,1.053,1.459,3.076,2.211,6.07
		c0.662,2.798,0.992,4.687,0.992,5.664v0.203c0,0.767-0.631,1.286-1.895,1.557c-2.018,0.316-6.621,0.737-13.811,1.264v0.022
		c0,0.753,0.232,2.423,0.699,5.01c0.406,1.67,0.826,2.881,1.264,3.633c0.918,1.385,1.828,2.076,2.73,2.076h0.227
		c0.902,0,2-0.654,3.293-1.963c1.008-1.144,1.723-2.407,2.145-3.791c0.48-0.632,1.166-0.948,2.053-0.948
		c0.994,0,1.707,0.392,2.145,1.174c0.045,0.105,0.074,0.241,0.09,0.406c-0.061,0.707-0.488,1.753-1.285,3.137
		c-2.348,3.43-5.146,5.145-8.395,5.145c-2.633,0-4.838-1.128-6.613-3.385c-0.465-0.691-0.879-1.459-1.24-2.302
		c-1.068-3.068-1.602-6.777-1.602-11.125c0-5.551,0.924-9.763,2.775-12.637C292.537,68.879,294.748,67.772,297.472,67.772z
		 M292.462,83.479c4.857-0.361,8.611-0.685,11.26-0.971c-0.451-2.723-0.934-4.821-1.445-6.296c-0.436-1.504-0.865-2.557-1.285-3.159
		c-1.068-1.429-2.197-2.144-3.385-2.144c-0.963,0-1.873,0.55-2.73,1.647c-0.633,0.902-1.137,2.099-1.512,3.588
		C292.763,78.567,292.462,81.012,292.462,83.479z"/>
	<path fill="#58167D" d="M320.218,67.772c4.348,0,7.281,2.972,8.801,8.914v0.315c0,0.723-0.609,1.219-1.828,1.489
		c-0.182,0.016-0.338,0.022-0.475,0.022c-0.992,0-1.678-0.391-2.053-1.173c-0.438-1.55-0.91-2.798-1.422-3.746
		c-1.023-1.79-2.061-2.686-3.113-2.686c-1.084,0-2.018,0.79-2.799,2.37c-0.361,0.707-0.744,1.971-1.15,3.791
		c-0.844,3.896-1.264,11.223-1.264,21.979c0,0.602-0.564,1.076-1.693,1.422c-0.285,0.045-0.496,0.067-0.631,0.067
		c-0.857,0-1.506-0.323-1.941-0.97c-0.09-0.166-0.135-0.316-0.135-0.452c0-12.365,0.549-20.361,1.646-23.987
		c0.271-1.008,0.594-1.94,0.971-2.798c0.375-0.797,0.932-1.603,1.67-2.414c1.008-0.903,1.979-1.482,2.91-1.738
		C318.662,67.908,319.496,67.772,320.218,67.772z"/>
	<path fill="#58167D" d="M340.978,67.772c4.213,0,7.139,1.34,8.779,4.017c0.721,1.234,1.082,2.61,1.082,4.13v0.474
		c0,1.505-0.285,2.385-0.857,2.641c-0.451,0.315-0.984,0.474-1.602,0.474h-0.068c-0.979,0-1.639-0.384-1.986-1.15
		c-0.029-0.105-0.045-0.195-0.045-0.271v-0.067c0.105-0.722,0.158-1.294,0.158-1.715c-0.061-2.467-0.955-4.077-2.686-4.829
		c-0.842-0.376-1.873-0.564-3.092-0.564c-2.617,0-4.295,0.692-5.031,2.076c-0.24,0.572-0.361,1.113-0.361,1.625v0.248
		c0,1.534,0.789,3.151,2.369,4.852c0.783,0.737,1.783,1.46,3.002,2.166c1.73,1.084,3.693,2.43,5.889,4.04
		c2.514,1.985,3.77,4.31,3.77,6.973c0,2.889-1.422,5.1-4.266,6.634c-1.414,0.678-3.1,1.016-5.055,1.016
		c-4.844,0-7.943-1.429-9.297-4.287c-0.24-0.692-0.361-1.339-0.361-1.94v-0.655c0-0.902,0.369-1.512,1.105-1.827
		c0.377-0.195,0.799-0.294,1.264-0.294h0.045c0.994,0,1.648,0.361,1.965,1.084c0.045,0.075,0.066,0.157,0.066,0.248v0.112
		c-0.045,0.512-0.066,0.798-0.066,0.857v0.068c0,1.926,1.285,3.054,3.857,3.385c0.393,0.061,0.979,0.098,1.76,0.112
		c2.137,0,3.551-0.85,4.244-2.55c0.225-0.707,0.338-1.286,0.338-1.737c0-1.745-0.805-3.332-2.414-4.762
		c-2.527-1.88-5.199-3.686-8.012-5.416c-0.572-0.375-1.346-1.112-2.324-2.211c-1.52-1.94-2.279-3.761-2.279-5.461v-0.79
		c0-1.67,0.82-3.204,2.459-4.604C335.224,68.473,337.775,67.772,340.978,67.772z"/>
</g>
<g>
	<path fill="#C2C3C9" d="M76.439,115.035c-0.232-0.002-0.473-0.012-0.715-0.025c-1.084-0.072-2.18-0.35-3.257-0.829
		c-1.096-0.486-2.113-1.231-3.024-2.216c-0.908-0.98-1.649-2.264-2.202-3.813c-0.555-1.555-0.74-3.461-0.55-5.666
		c0.059-0.697,0.139-1.42,0.237-2.166c-0.516,0.722-1.045,1.429-1.587,2.119c-1.524,1.944-3.15,3.705-4.833,5.233
		c-1.689,1.534-3.469,2.862-5.292,3.943c-1.859,1.104-3.771,1.872-5.688,2.286c-0.697,0.151-1.453,0.225-2.246,0.219
		c-0.232-0.002-0.473-0.012-0.715-0.025c-1.084-0.07-2.181-0.35-3.257-0.828c-1.094-0.486-2.107-1.218-3.006-2.176
		c-0.902-0.959-1.651-2.256-2.221-3.854c-0.536-1.5-0.748-3.292-0.63-5.323c0.112-1.944,0.372-4.044,0.773-6.237
		c0.396-2.172,0.878-4.469,1.434-6.828c0.542-2.313,0.991-4.637,1.333-6.909c0.339-2.249,0.524-4.447,0.552-6.536
		c0.026-2.011-0.264-3.881-0.862-5.557c-0.943-2.645-2.767-4.477-5.579-5.602c-1.587-0.635-3.375-0.964-5.317-0.979
		c-1.557-0.014-3.252,0.176-5.037,0.563c-0.893,0.191-1.694,0.414-2.385,0.656c-0.703,0.249-1.344,0.508-1.901,0.766l-0.983,0.457
		l-0.465-1.305l0.026-0.229c0.231-2.021,0.918-3.949,2.042-5.734c1.006-1.546,2.53-3.082,4.539-4.579
		c2.03-1.511,4.906-2.677,8.55-3.464c1.929-0.417,3.77-0.622,5.473-0.607c1.475,0.012,2.886,0.187,4.194,0.521
		c2.792,0.715,5.237,1.844,7.267,3.355c2.018,1.502,3.688,3.229,4.963,5.133c1.257,1.881,2.191,3.662,2.774,5.297
		c0.882,2.475,1.179,5.324,0.882,8.467c-0.29,3.049-0.822,6.188-1.583,9.33c-0.76,3.135-1.624,6.209-2.571,9.143
		c-0.93,2.886-1.608,5.436-2.014,7.576c-0.386,2.032-0.424,3.582-0.111,4.606c0.096,0.32,0.259,0.632,1.078,0.638
		c0.296,0.002,0.645-0.039,1.038-0.124c0.356-0.077,1.174-0.423,2.646-1.868c1.215-1.191,2.504-2.748,3.831-4.623
		c1.337-1.894,2.682-4.071,4-6.475c1.315-2.403,2.473-4.885,3.439-7.371c0.961-2.475,1.664-4.957,2.086-7.379
		c0.414-2.377,0.455-4.563,0.123-6.499c-0.053-0.312-0.116-0.608-0.185-0.889c-0.07-0.275-0.151-0.538-0.236-0.782
		c-0.138-0.387-0.402-0.656-0.83-0.846l-1.11-0.493l0.709-0.986c0.458-0.637,1.007-1.247,1.629-1.815l0.018-0.014
		c0.578-0.504,1.306-1.012,2.162-1.512c0.898-0.522,1.997-0.927,3.268-1.201c0.667-0.145,1.326-0.215,1.962-0.211
		c1.312,0.011,2.561,0.342,3.709,0.984c1.709,0.96,2.874,2.283,3.464,3.934c0.877,2.465,1.22,5.295,1.015,8.41
		c-0.199,3.03-0.631,6.136-1.283,9.229c-0.645,3.066-1.352,6.075-2.101,8.943c-0.737,2.819-1.264,5.313-1.563,7.413
		c-0.284,1.972-0.236,3.467,0.142,4.447c0.128,0.331,0.358,0.639,1.182,0.646c0.31,0.002,0.673-0.041,1.078-0.129
		c2.353-0.508,4.283-1.861,5.896-4.135c1.688-2.379,3.221-5.408,4.554-9.004c1.351-3.645,2.625-7.794,3.787-12.333
		c1.172-4.585,2.507-9.366,3.967-14.214c1.461-4.856,3.183-9.749,5.118-14.54c1.948-4.829,4.392-9.335,7.26-13.39
		c2.886-4.08,6.384-7.66,10.394-10.645c4.042-3.007,8.948-5.148,14.579-6.367c3.214-0.694,6.375-1.035,9.396-1.012
		c0.179,0.002,0.358,0.004,0.537,0.009c3.193,0.07,6.103,0.487,8.65,1.239c2.571,0.759,4.789,1.816,6.59,3.145
		c1.869,1.381,3.14,2.988,3.78,4.781c0.401,1.125,0.585,2.203,0.545,3.203c-0.038,0.93-0.132,1.766-0.279,2.485
		c-0.184,0.864-0.461,1.673-0.828,2.409l-0.43,0.866l-0.875-0.411c-1.369-0.645-2.998-1.18-4.845-1.591
		c-1.562-0.324-3.542-0.528-5.87-0.603c-0.183-0.006-0.366-0.01-0.551-0.01c-2.17-0.018-4.625,0.266-7.297,0.844
		c-4.72,1.02-8.957,2.836-12.597,5.396c-3.672,2.584-7,5.708-9.891,9.285c-2.911,3.607-5.582,7.609-7.936,11.896
		c-2.376,4.326-4.685,8.781-6.86,13.238c-2.159,4.424-4.342,8.865-6.489,13.201c-2.145,4.33-4.472,8.336-6.916,11.904
		c-2.473,3.609-5.247,6.715-8.244,9.232c-3.057,2.564-6.582,4.293-10.478,5.135c-0.085,0.018-0.175,0.027-0.264,0.027
		c-0.129,0.049-0.275,0.09-0.44,0.125C77.986,114.968,77.23,115.041,76.439,115.035"/>
	<path fill="#C2C3C9" d="M76.528,115.535h-0.092c-0.241-0.002-0.491-0.012-0.741-0.027c-1.147-0.074-2.3-0.367-3.43-0.87
		c-1.158-0.515-2.231-1.299-3.188-2.333c-0.955-1.031-1.731-2.373-2.306-3.984c-0.579-1.623-0.773-3.601-0.577-5.877
		c0.009-0.107,0.019-0.217,0.029-0.325c-0.162,0.212-0.324,0.421-0.488,0.63c-1.541,1.966-3.186,3.748-4.89,5.295
		c-1.715,1.559-3.522,2.905-5.372,4.004c-1.905,1.131-3.869,1.92-5.837,2.344c-0.703,0.152-1.46,0.23-2.25,0.23h-0.105
		c-0.239-0.002-0.49-0.012-0.741-0.027c-1.144-0.074-2.297-0.366-3.43-0.869c-1.158-0.514-2.223-1.285-3.167-2.29
		c-0.952-1.013-1.735-2.368-2.327-4.028c-0.558-1.563-0.779-3.421-0.658-5.52c0.114-1.969,0.376-4.088,0.781-6.299
		c0.401-2.195,0.885-4.501,1.438-6.854c0.54-2.303,0.986-4.613,1.325-6.869c0.335-2.222,0.519-4.398,0.546-6.467
		c0.025-1.953-0.255-3.764-0.833-5.383c-0.893-2.502-2.624-4.237-5.294-5.305c-1.528-0.611-3.255-0.93-5.135-0.943l-0.143-0.001
		c-1.481,0-3.091,0.186-4.784,0.552c-0.866,0.187-1.648,0.402-2.325,0.641c-0.688,0.242-1.312,0.494-1.856,0.747l-1.48,0.688
		l-0.688-1.932l0.039-0.343c0.24-2.097,0.952-4.097,2.116-5.944c1.04-1.598,2.607-3.182,4.663-4.715
		c2.089-1.555,5.031-2.75,8.743-3.552c1.903-0.411,3.724-0.619,5.413-0.619l0.17,0.001c1.516,0.012,2.967,0.192,4.314,0.537
		c2.856,0.731,5.36,1.889,7.441,3.438c2.064,1.536,3.773,3.305,5.08,5.257c1.283,1.918,2.235,3.737,2.83,5.406
		c0.907,2.544,1.212,5.465,0.908,8.682c-0.292,3.074-0.828,6.237-1.594,9.401c-0.764,3.15-1.632,6.238-2.581,9.178
		c-0.925,2.87-1.597,5.399-1.998,7.517c-0.371,1.953-0.413,3.422-0.125,4.367c0.051,0.17,0.084,0.279,0.603,0.283
		c0,0,0.001,0,0.001,0c0.276,0,0.582-0.038,0.928-0.113c0.19-0.041,0.926-0.287,2.402-1.735c1.192-1.169,2.462-2.702,3.773-4.556
		c1.326-1.877,2.661-4.039,3.969-6.426c1.305-2.383,2.453-4.844,3.412-7.313c0.95-2.445,1.644-4.896,2.06-7.283
		c0.404-2.32,0.445-4.45,0.123-6.328c-0.051-0.3-0.112-0.586-0.178-0.854c-0.065-0.257-0.142-0.506-0.223-0.736
		c-0.09-0.254-0.258-0.42-0.561-0.555l-1.672-0.743l1.069-1.485c0.476-0.662,1.048-1.299,1.698-1.893
		c0.625-0.543,1.378-1.07,2.265-1.588c0.943-0.549,2.092-0.973,3.415-1.259c0.679-0.147,1.355-0.222,2.011-0.222
		c1.458,0.012,2.786,0.364,4.01,1.049c1.816,1.02,3.058,2.434,3.691,4.201c0.901,2.531,1.252,5.43,1.043,8.611
		c-0.201,3.052-0.636,6.18-1.293,9.299c-0.646,3.068-1.354,6.086-2.106,8.966c-0.734,2.81-1.256,5.284-1.552,7.358
		c-0.272,1.884-0.233,3.296,0.113,4.196c0.058,0.149,0.124,0.32,0.719,0.325h0.001c0.292,0,0.609-0.039,0.967-0.117
		c2.227-0.481,4.057-1.77,5.594-3.937c1.665-2.345,3.176-5.335,4.493-8.888c1.346-3.631,2.615-7.763,3.771-12.283
		c1.171-4.582,2.508-9.371,3.972-14.233c1.467-4.876,3.194-9.783,5.134-14.584c1.961-4.862,4.422-9.401,7.315-13.491
		c2.915-4.119,6.448-7.738,10.503-10.756c4.1-3.051,9.07-5.223,14.771-6.455c3.145-0.68,6.242-1.023,9.205-1.023l0.849,0.009
		c3.233,0.071,6.188,0.495,8.778,1.259c2.628,0.777,4.898,1.861,6.746,3.223c1.95,1.439,3.28,3.127,3.954,5.016
		c0.423,1.187,0.616,2.328,0.574,3.392c-0.039,0.956-0.136,1.819-0.289,2.565c-0.192,0.906-0.485,1.758-0.87,2.531l-0.647,1.305
		l-1.318-0.619c-1.338-0.631-2.933-1.153-4.741-1.556c-1.531-0.317-3.478-0.517-5.778-0.591c-0.179-0.006-0.357-0.01-0.538-0.01
		l-0.188-0.002c-2.087,0-4.442,0.281-7.001,0.834c-4.652,1.006-8.829,2.795-12.415,5.317c-3.634,2.557-6.928,5.649-9.79,9.19
		c-2.896,3.589-5.549,7.566-7.886,11.823c-2.373,4.317-4.677,8.765-6.849,13.216c-2.159,4.425-4.342,8.867-6.49,13.203
		c-2.157,4.354-4.495,8.381-6.951,11.967c-2.498,3.645-5.302,6.785-8.334,9.332c-3.121,2.619-6.719,4.382-10.694,5.24
		c-0.094,0.02-0.186,0.032-0.276,0.037c-0.128,0.043-0.27,0.082-0.427,0.115C78.086,115.457,77.325,115.535,76.528,115.535z
		 M67.686,98.404l-0.261,1.982c-0.097,0.736-0.176,1.452-0.235,2.142c-0.184,2.134-0.008,3.969,0.522,5.456
		c0.53,1.484,1.235,2.709,2.099,3.641c0.864,0.934,1.826,1.641,2.859,2.099c1.022,0.454,2.061,0.72,3.087,0.786
		c0.23,0.015,0.463,0.023,0.687,0.025l0.084,0.5v-0.5c0.726,0,1.417-0.07,2.053-0.207c0.14-0.031,0.263-0.064,0.372-0.105
		l0.173-0.031c0.051,0,0.107-0.006,0.162-0.018c3.811-0.822,7.263-2.515,10.258-5.027c2.963-2.489,5.707-5.562,8.152-9.133
		c2.43-3.547,4.744-7.531,6.88-11.844c2.146-4.335,4.33-8.775,6.488-13.197c2.179-4.467,4.491-8.928,6.871-13.26
		c2.364-4.308,5.051-8.335,7.984-11.971c2.92-3.613,6.282-6.77,9.992-9.379c3.695-2.601,7.995-4.443,12.779-5.477
		c2.627-0.568,5.054-0.857,7.212-0.857l0.194,0.002c0.188,0,0.376,0.004,0.563,0.01c2.358,0.076,4.361,0.282,5.956,0.613
		c1.887,0.42,3.552,0.967,4.957,1.627l0.432,0.203l0.212-0.427c0.348-0.699,0.612-1.47,0.787-2.292
		c0.141-0.689,0.231-1.498,0.269-2.4c0.037-0.936-0.136-1.95-0.517-3.016c-0.605-1.697-1.818-3.227-3.605-4.547
		c-1.753-1.293-3.918-2.324-6.435-3.068c-2.506-0.738-5.372-1.148-8.52-1.218l-0.824-0.009c-2.892,0-5.918,0.336-8.993,1
		c-5.562,1.203-10.402,3.316-14.386,6.28c-3.97,2.955-7.43,6.498-10.284,10.531c-2.848,4.027-5.272,8.498-7.205,13.288
		c-1.928,4.773-3.645,9.65-5.103,14.498c-1.461,4.85-2.793,9.625-3.961,14.193c-1.165,4.554-2.444,8.72-3.802,12.383
		c-1.347,3.635-2.9,6.703-4.615,9.119c-1.689,2.381-3.716,3.799-6.199,4.335c-0.428,0.093-0.816,0.14-1.154,0.14
		c-0.903-0.008-1.426-0.314-1.677-0.965c-0.409-1.063-0.466-2.645-0.17-4.699c0.301-2.109,0.831-4.623,1.575-7.469
		c0.748-2.865,1.453-5.865,2.095-8.919c0.647-3.073,1.076-6.153,1.273-9.158c0.2-3.046-0.132-5.808-0.987-8.21
		c-0.549-1.533-1.638-2.768-3.238-3.665c-1.075-0.601-2.242-0.911-3.469-0.921c-0.001,0-0.002,0-0.003,0
		c-0.635,0-1.24,0.066-1.849,0.199c-1.22,0.264-2.27,0.648-3.123,1.146c-0.832,0.485-1.534,0.976-2.085,1.456
		c-0.608,0.553-1.133,1.139-1.569,1.744l-0.35,0.487l0.548,0.243c0.554,0.246,0.913,0.617,1.098,1.136
		c0.09,0.258,0.175,0.535,0.25,0.825c0.073,0.295,0.139,0.605,0.194,0.93c0.341,1.99,0.3,4.234-0.124,6.668
		c-0.428,2.451-1.139,4.967-2.113,7.475s-2.141,5.008-3.467,7.43c-1.326,2.42-2.682,4.614-4.03,6.522
		c-1.346,1.903-2.654,3.481-3.889,4.692c-1.485,1.457-2.392,1.892-2.891,2c-0.417,0.09-0.793,0.135-1.119,0.135
		c-1.144-0.008-1.444-0.535-1.582-0.994c-0.336-1.099-0.303-2.729,0.099-4.843c0.408-2.157,1.091-4.728,2.029-7.638
		c0.941-2.916,1.803-5.979,2.561-9.105c0.754-3.117,1.283-6.233,1.571-9.26c0.29-3.07,0.002-5.848-0.855-8.252
		c-0.567-1.592-1.481-3.337-2.718-5.187c-1.243-1.856-2.873-3.542-4.846-5.011c-1.977-1.472-4.363-2.572-7.092-3.271
		c-1.268-0.324-2.639-0.495-4.074-0.506l-0.162-0.001c-1.618,0-3.368,0.2-5.202,0.597c-3.571,0.771-6.383,1.908-8.357,3.377
		c-1.96,1.461-3.447,2.959-4.418,4.451c-1.079,1.713-1.741,3.572-1.964,5.518l-0.013,0.113l0.242,0.68l0.485-0.227
		c0.573-0.266,1.228-0.529,1.945-0.783c0.717-0.253,1.54-0.479,2.446-0.674c1.762-0.382,3.443-0.575,4.995-0.575l0.151,0.001
		c2.005,0.016,3.855,0.357,5.499,1.015c2.952,1.181,4.87,3.109,5.864,5.897c0.618,1.731,0.918,3.66,0.891,5.731
		c-0.028,2.114-0.216,4.337-0.557,6.604c-0.344,2.281-0.795,4.619-1.341,6.948c-0.55,2.336-1.031,4.625-1.429,6.804
		c-0.397,2.17-0.655,4.248-0.766,6.176c-0.113,1.965,0.089,3.689,0.602,5.127c0.545,1.53,1.256,2.768,2.114,3.68
		c0.853,0.908,1.81,1.602,2.845,2.061c1.024,0.455,2.063,0.719,3.086,0.785c0.23,0.015,0.462,0.023,0.686,0.025
		c0.003,0,0.005,0,0.008,0c0.813,0,1.497-0.07,2.129-0.207c1.863-0.402,3.727-1.152,5.538-2.228c1.792-1.063,3.545-2.37,5.21-3.884
		c1.663-1.51,3.27-3.25,4.776-5.172c0.538-0.686,1.063-1.386,1.574-2.102L67.686,98.404z"/>
</g>
</svg>
